AnekBangla-ExpandedMedium.ufo
<glyph name="exclam" format="2">
  <advance width="574"/>
  <unicode hex="0021"/>
  <outline>
    <contour>
      <point x="382" y="401" type="line"/>
      <point x="405" y="1278" type="line"/>
      <point x="169" y="1278" type="line"/>
      <point x="193" y="401" type="line"/>
    </contour>
    <contour>
      <point x="287" y="-24" type="curve" smooth="yes"/>
      <point x="382" y="-24"/>
      <point x="427" y="23"/>
      <point x="427" y="100" type="curve" smooth="yes"/>
      <point x="427" y="104" type="line" smooth="yes"/>
      <point x="427" y="181"/>
      <point x="382" y="228"/>
      <point x="287" y="228" type="curve" smooth="yes"/>
      <point x="194" y="228"/>
      <point x="148" y="181"/>
      <point x="148" y="104" type="curve" smooth="yes"/>
      <point x="148" y="100" type="line" smooth="yes"/>
      <point x="148" y="23"/>
      <point x="194" y="-24"/>
    </contour>
  </outline>
</glyph>
<glyph name="dollar" format="2">
	<advance width="1460"/>
	<unicode hex="0024"/>
	<outline>
		<contour>
			<point x="821" y="1189" type="line"/>
			<point x="821" y="1530" type="line"/>
			<point x="615" y="1530" type="line"/>
			<point x="615" y="1189" type="line"/>
		</contour>
		<contour>
			<point x="821" y="-253" type="line"/>
			<point x="821" y="100" type="line"/>
			<point x="615" y="100" type="line"/>
			<point x="615" y="-253" type="line"/>
		</contour>
		<component base="S"/>
	</outline>
</glyph>
<glyph name="percent" format="2">
	<advance width="1890"/>
	<unicode hex="0025"/>
	<outline>
		<contour>
			<point x="308" y="0" type="line"/>
			<point x="532" y="0" type="line"/>
			<point x="1585" y="1278" type="line"/>
			<point x="1362" y="1278" type="line"/>
		</contour>
		<contour>
			<point x="1440" y="-35" type="curve" smooth="yes"/>
			<point x="1662" y="-35"/>
			<point x="1792" y="87"/>
			<point x="1792" y="296" type="curve"/>
			<point x="1792" y="303" type="line"/>
			<point x="1792" y="511"/>
			<point x="1661" y="632"/>
			<point x="1440" y="632" type="curve" smooth="yes"/>
			<point x="1219" y="632"/>
			<point x="1090" y="508"/>
			<point x="1090" y="303" type="curve"/>
			<point x="1090" y="296" type="line"/>
			<point x="1090" y="87"/>
			<point x="1218" y="-35"/>
		</contour>
		<contour>
			<point x="1440" y="110" type="curve" smooth="yes"/>
			<point x="1328" y="110"/>
			<point x="1261" y="176"/>
			<point x="1261" y="296" type="curve" smooth="yes"/>
			<point x="1261" y="301" type="line" smooth="yes"/>
			<point x="1261" y="420"/>
			<point x="1327" y="488"/>
			<point x="1440" y="488" type="curve" smooth="yes"/>
			<point x="1553" y="488"/>
			<point x="1619" y="420"/>
			<point x="1619" y="301" type="curve" smooth="yes"/>
			<point x="1619" y="296" type="line" smooth="yes"/>
			<point x="1619" y="176"/>
			<point x="1554" y="110"/>
		</contour>
		<contour>
			<point x="448" y="647" type="curve" smooth="yes"/>
			<point x="669" y="647"/>
			<point x="800" y="771"/>
			<point x="800" y="977" type="curve"/>
			<point x="800" y="984" type="line"/>
			<point x="800" y="1192"/>
			<point x="670" y="1314"/>
			<point x="448" y="1314" type="curve" smooth="yes"/>
			<point x="226" y="1314"/>
			<point x="98" y="1192"/>
			<point x="98" y="984" type="curve"/>
			<point x="98" y="977" type="line"/>
			<point x="98" y="769"/>
			<point x="226" y="647"/>
		</contour>
		<contour>
			<point x="448" y="791" type="curve" smooth="yes"/>
			<point x="336" y="791"/>
			<point x="268" y="858"/>
			<point x="268" y="977" type="curve" smooth="yes"/>
			<point x="268" y="984" type="line" smooth="yes"/>
			<point x="268" y="1102"/>
			<point x="335" y="1170"/>
			<point x="448" y="1170" type="curve" smooth="yes"/>
			<point x="561" y="1170"/>
			<point x="627" y="1102"/>
			<point x="627" y="984" type="curve" smooth="yes"/>
			<point x="627" y="977" type="line" smooth="yes"/>
			<point x="627" y="858"/>
			<point x="562" y="791"/>
		</contour>
	</outline>
</glyph>
<glyph name="plus" format="2">
	<advance width="1337"/>
	<unicode hex="002B"/>
	<outline>
		<contour>
			<point x="761" y="87" type="line"/>
			<point x="761" y="1125" type="line"/>
			<point x="576" y="1125" type="line"/>
			<point x="576" y="87" type="line"/>
		</contour>
		<contour>
			<point x="141" y="521" type="line"/>
			<point x="1196" y="521" type="line"/>
			<point x="1196" y="691" type="line"/>
			<point x="141" y="691" type="line"/>
		</contour>
	</outline>
</glyph>
<glyph name="comma" format="2">
  <advance width="482"/>
  <unicode hex="002C"/>
  <outline>
    <contour>
      <point x="350" y="291" type="curve"/>
      <point x="140" y="291" type="line"/>
      <point x="145" y="251"/>
      <point x="147" y="213"/>
      <point x="147" y="170" type="curve" smooth="yes"/>
      <point x="147" y="10"/>
      <point x="114" y="-115"/>
      <point x="32" y="-238" type="curve"/>
      <point x="193" y="-279" type="line"/>
      <point x="315" y="-142"/>
      <point x="360" y="2"/>
      <point x="360" y="178" type="curve" smooth="yes"/>
      <point x="360" y="222"/>
      <point x="355" y="264"/>
    </contour>
  </outline>
</glyph>
<glyph name="period" format="2">
	<advance width="509"/>
	<unicode hex="002E"/>
	<outline>
		<contour>
			<point x="254" y="-24" type="curve" smooth="yes"/>
			<point x="349" y="-24"/>
			<point x="394" y="23"/>
			<point x="394" y="100" type="curve" smooth="yes"/>
			<point x="394" y="104" type="line" smooth="yes"/>
			<point x="394" y="181"/>
			<point x="349" y="228"/>
			<point x="254" y="228" type="curve" smooth="yes"/>
			<point x="161" y="228"/>
			<point x="115" y="181"/>
			<point x="115" y="104" type="curve" smooth="yes"/>
			<point x="115" y="100" type="line" smooth="yes"/>
			<point x="115" y="23"/>
			<point x="161" y="-24"/>
		</contour>
	</outline>
</glyph>
<glyph name="zero" format="2">
	<advance width="1539"/>
	<unicode hex="0030"/>
	<outline>
		<contour>
			<point x="769" y="-33" type="curve" smooth="yes"/>
			<point x="1197" y="-33"/>
			<point x="1419" y="203"/>
			<point x="1419" y="630" type="curve"/>
			<point x="1419" y="647" type="line"/>
			<point x="1419" y="1072"/>
			<point x="1197" y="1310"/>
			<point x="769" y="1310" type="curve" smooth="yes"/>
			<point x="342" y="1310"/>
			<point x="120" y="1072"/>
			<point x="120" y="647" type="curve"/>
			<point x="120" y="630" type="line"/>
			<point x="120" y="203"/>
			<point x="343" y="-33"/>
		</contour>
		<contour>
			<point x="769" y="150" type="curve" smooth="yes"/>
			<point x="487" y="150"/>
			<point x="349" y="324"/>
			<point x="349" y="629" type="curve" smooth="yes"/>
			<point x="349" y="647" type="line" smooth="yes"/>
			<point x="349" y="952"/>
			<point x="485" y="1127"/>
			<point x="769" y="1127" type="curve" smooth="yes"/>
			<point x="1054" y="1127"/>
			<point x="1190" y="953"/>
			<point x="1190" y="647" type="curve" smooth="yes"/>
			<point x="1190" y="629" type="line" smooth="yes"/>
			<point x="1190" y="324"/>
			<point x="1054" y="150"/>
		</contour>
	</outline>
</glyph>
<glyph name="seven" format="2">
	<advance width="1281"/>
	<unicode hex="0037"/>
	<outline>
		<contour>
			<point x="293" y="0" type="line"/>
			<point x="548" y="0" type="line"/>
			<point x="1204" y="1095" type="line"/>
			<point x="1204" y="1278" type="line"/>
			<point x="77" y="1278" type="line"/>
			<point x="77" y="1097" type="line"/>
			<point x="957" y="1097" type="line"/>
		</contour>
	</outline>
</glyph>
<glyph name="eight" format="2">
	<advance width="1532"/>
	<unicode hex="0038"/>
	<outline>
		<contour>
			<point x="765" y="-38" type="curve" smooth="yes"/>
			<point x="1257" y="-38"/>
			<point x="1421" y="118"/>
			<point x="1421" y="331" type="curve" smooth="yes"/>
			<point x="1421" y="347" type="line" smooth="yes"/>
			<point x="1421" y="531"/>
			<point x="1298" y="639"/>
			<point x="1122" y="671" type="curve"/>
			<point x="1122" y="681" type="line"/>
			<point x="1279" y="701"/>
			<point x="1400" y="794"/>
			<point x="1400" y="959" type="curve" smooth="yes"/>
			<point x="1400" y="976" type="line" smooth="yes"/>
			<point x="1400" y="1187"/>
			<point x="1194" y="1310"/>
			<point x="765" y="1310" type="curve" smooth="yes"/>
			<point x="338" y="1310"/>
			<point x="132" y="1187"/>
			<point x="132" y="976" type="curve" smooth="yes"/>
			<point x="132" y="959" type="line" smooth="yes"/>
			<point x="132" y="793"/>
			<point x="253" y="701"/>
			<point x="410" y="681" type="curve"/>
			<point x="410" y="671" type="line"/>
			<point x="235" y="639"/>
			<point x="111" y="532"/>
			<point x="111" y="347" type="curve" smooth="yes"/>
			<point x="111" y="331" type="line" smooth="yes"/>
			<point x="111" y="106"/>
			<point x="292" y="-38"/>
		</contour>
		<contour>
			<point x="770" y="136" type="curve" smooth="yes"/>
			<point x="473" y="136"/>
			<point x="341" y="213"/>
			<point x="341" y="351" type="curve" smooth="yes"/>
			<point x="341" y="363" type="line" smooth="yes"/>
			<point x="341" y="494"/>
			<point x="469" y="571"/>
			<point x="756" y="584" type="curve"/>
			<point x="1054" y="570"/>
			<point x="1191" y="498"/>
			<point x="1191" y="363" type="curve" smooth="yes"/>
			<point x="1191" y="351" type="line" smooth="yes"/>
			<point x="1191" y="216"/>
			<point x="1063" y="136"/>
		</contour>
		<contour>
			<point x="775" y="739" type="curve"/>
			<point x="481" y="749"/>
			<point x="357" y="823"/>
			<point x="357" y="940" type="curve" smooth="yes"/>
			<point x="357" y="952" type="line" smooth="yes"/>
			<point x="357" y="1076"/>
			<point x="488" y="1144"/>
			<point x="765" y="1144" type="curve" smooth="yes"/>
			<point x="1045" y="1144"/>
			<point x="1175" y="1076"/>
			<point x="1175" y="950" type="curve" smooth="yes"/>
			<point x="1175" y="938" type="line" smooth="yes"/>
			<point x="1175" y="820"/>
			<point x="1041" y="749"/>
		</contour>
	</outline>
</glyph>
<glyph name="F" format="2">
	<advance width="1412"/>
	<unicode hex="0046"/>
	<anchor x="707" y="1278" name="top"/>
	<anchor x="707" y="0" name="bottom"/>
	<outline>
		<contour>
			<point x="185" y="0" type="line"/>
			<point x="405" y="0" type="line"/>
			<point x="405" y="1278" type="line"/>
			<point x="185" y="1278" type="line"/>
		</contour>
		<contour>
			<point x="299" y="498" type="line"/>
			<point x="1282" y="498" type="line"/>
			<point x="1282" y="679" type="line"/>
			<point x="299" y="679" type="line"/>
		</contour>
		<contour>
			<point x="196" y="1097" type="line"/>
			<point x="1302" y="1097" type="line"/>
			<point x="1302" y="1278" type="line"/>
			<point x="196" y="1278" type="line"/>
		</contour>
	</outline>
</glyph>
<glyph name="G" format="2">
	<advance width="1680"/>
	<unicode hex="0047"/>
	<anchor x="840" y="1278" name="top"/>
	<anchor x="840" y="0" name="bottom"/>
	<outline>
		<contour>
			<point x="795" y="-33" type="curve" smooth="yes"/>
			<point x="1111" y="-33"/>
			<point x="1250" y="99"/>
			<point x="1295" y="246" type="curve"/>
			<point x="1513" y="246" type="line"/>
			<point x="1513" y="715" type="line"/>
			<point x="867" y="715" type="line"/>
			<point x="867" y="537" type="line"/>
			<point x="1328" y="539" type="line"/>
			<point x="1300" y="612" type="line"/>
			<point x="1300" y="382" type="line"/>
			<point x="1245" y="258"/>
			<point x="1098" y="151"/>
			<point x="863" y="151" type="curve" smooth="yes"/>
			<point x="523" y="151"/>
			<point x="344" y="327"/>
			<point x="344" y="628" type="curve" smooth="yes"/>
			<point x="344" y="647" type="line" smooth="yes"/>
			<point x="344" y="954"/>
			<point x="530" y="1126"/>
			<point x="900" y="1126" type="curve" smooth="yes"/>
			<point x="1146" y="1126"/>
			<point x="1330" y="1060"/>
			<point x="1475" y="986" type="curve"/>
			<point x="1453" y="1180" type="line"/>
			<point x="1326" y="1247"/>
			<point x="1137" y="1311"/>
			<point x="879" y="1311" type="curve" smooth="yes"/>
			<point x="375" y="1311"/>
			<point x="112" y="1064"/>
			<point x="112" y="644" type="curve"/>
			<point x="112" y="626" type="line"/>
			<point x="112" y="206"/>
			<point x="369" y="-33"/>
		</contour>
		<contour>
			<point x="1305" y="285" type="line"/>
			<point x="1296" y="0" type="line"/>
			<point x="1513" y="0" type="line"/>
			<point x="1513" y="285" type="line"/>
		</contour>
	</outline>
</glyph>
<glyph name="I" format="2">
  <advance width="597"/>
  <unicode hex="0049"/>
  <anchor x="299" y="0" name="bottom"/>
  <anchor x="448" y="5" name="ogonek"/>
  <anchor x="299" y="1278" name="top"/>
  <anchor x="20" y="1278" name="topleft"/>
  <outline>
    <contour>
      <point x="410" y="0" type="line"/>
      <point x="410" y="1278" type="line"/>
      <point x="187" y="1278" type="line"/>
      <point x="187" y="0" type="line"/>
    </contour>
  </outline>
</glyph>
<glyph name="J" format="2">
	<advance width="1138"/>
	<unicode hex="004A"/>
	<anchor x="850" y="1278" name="top"/>
	<anchor x="571" y="0" name="bottom"/>
	<outline>
		<contour>
			<point x="442" y="-16" type="curve" smooth="yes"/>
			<point x="817" y="-16"/>
			<point x="964" y="154"/>
			<point x="964" y="494" type="curve" smooth="yes"/>
			<point x="964" y="1278" type="line"/>
			<point x="741" y="1278" type="line"/>
			<point x="741" y="504" type="line" smooth="yes"/>
			<point x="741" y="281"/>
			<point x="651" y="174"/>
			<point x="417" y="174" type="curve" smooth="yes"/>
			<point x="296" y="174"/>
			<point x="178" y="200"/>
			<point x="76" y="241" type="curve"/>
			<point x="100" y="45" type="line"/>
			<point x="197" y="6"/>
			<point x="321" y="-16"/>
		</contour>
	</outline>
</glyph>
<glyph name="K" format="2">
	<advance width="1539"/>
	<unicode hex="004B"/>
	<anchor x="770" y="1278" name="top"/>
	<anchor x="770" y="0" name="bottom"/>
	<outline>
		<contour>
			<point x="1199" y="0" type="line"/>
			<point x="1495" y="0" type="line"/>
			<point x="755" y="689" type="line"/>
			<point x="755" y="632" type="line"/>
			<point x="1479" y="1278" type="line"/>
			<point x="1193" y="1278" type="line"/>
			<point x="588" y="745" type="line"/>
			<point x="387" y="745" type="line"/>
			<point x="387" y="560" type="line"/>
			<point x="585" y="560" type="line"/>
		</contour>
		<contour>
			<point x="185" y="0" type="line"/>
			<point x="407" y="0" type="line"/>
			<point x="407" y="1278" type="line"/>
			<point x="185" y="1278" type="line"/>
		</contour>
	</outline>
</glyph>
<glyph name="L" format="2">
  <advance width="1360"/>
  <unicode hex="004C"/>
  <anchor x="729" y="0" name="bottom"/>
  <anchor x="680" y="639" name="center"/>
  <anchor x="297" y="1278" name="top"/>
  <anchor x="904" y="1278" name="topright"/>
  <outline>
    <contour>
      <point x="408" y="0" type="line"/>
      <point x="408" y="1278" type="line"/>
      <point x="185" y="1278" type="line"/>
      <point x="185" y="0" type="line"/>
    </contour>
    <contour>
      <point x="299" y="183" type="line"/>
      <point x="299" y="0" type="line"/>
      <point x="1278" y="0" type="line"/>
      <point x="1278" y="183" type="line"/>
    </contour>
  </outline>
</glyph>
<glyph name="P" format="2">
	<advance width="1526"/>
	<unicode hex="0050"/>
	<anchor x="763" y="1278" name="top"/>
	<anchor x="763" y="0" name="bottom"/>
	<outline>
		<contour>
			<point x="347" y="415" type="line"/>
			<point x="911" y="415" type="line" smooth="yes"/>
			<point x="1270" y="415"/>
			<point x="1434" y="577"/>
			<point x="1434" y="837" type="curve" smooth="yes"/>
			<point x="1434" y="855" type="line" smooth="yes"/>
			<point x="1434" y="1118"/>
			<point x="1270" y="1278"/>
			<point x="911" y="1278" type="curve" smooth="yes"/>
			<point x="341" y="1278" type="line"/>
			<point x="341" y="1098" type="line"/>
			<point x="911" y="1098" type="line" smooth="yes"/>
			<point x="1116" y="1098"/>
			<point x="1204" y="1008"/>
			<point x="1204" y="855" type="curve" smooth="yes"/>
			<point x="1204" y="838" type="line" smooth="yes"/>
			<point x="1204" y="685"/>
			<point x="1116" y="596"/>
			<point x="911" y="596" type="curve" smooth="yes"/>
			<point x="347" y="596" type="line"/>
		</contour>
		<contour>
			<point x="185" y="0" type="line"/>
			<point x="405" y="0" type="line"/>
			<point x="405" y="445" type="line"/>
			<point x="405" y="538" type="line"/>
			<point x="405" y="1278" type="line"/>
			<point x="185" y="1278" type="line"/>
		</contour>
	</outline>
</glyph>
<glyph name="underscore" format="2">
	<advance width="1203"/>
	<unicode hex="005F"/>
	<outline>
		<contour>
			<point x="66" y="-249" type="line"/>
			<point x="1138" y="-249" type="line"/>
			<point x="1138" y="-82" type="line"/>
			<point x="66" y="-82" type="line"/>
		</contour>
	</outline>
</glyph>
<glyph name="b" format="2">
  <advance width="1464"/>
  <unicode hex="0062"/>
  <anchor x="732" y="0" name="bottom"/>
  <anchor x="732" y="1319" name="top"/>
  <outline>
    <contour>
      <point x="837" y="-29" type="curve" smooth="yes"/>
      <point x="1161" y="-29"/>
      <point x="1361" y="144"/>
      <point x="1361" y="469" type="curve" smooth="yes"/>
      <point x="1361" y="489" type="line" smooth="yes"/>
      <point x="1361" y="814"/>
      <point x="1163" y="987"/>
      <point x="844" y="987" type="curve" smooth="yes"/>
      <point x="566" y="987"/>
      <point x="425" y="860"/>
      <point x="382" y="714" type="curve"/>
      <point x="312" y="714" type="line"/>
      <point x="364" y="544" type="line"/>
      <point x="405" y="697"/>
      <point x="560" y="814"/>
      <point x="774" y="814" type="curve" smooth="yes"/>
      <point x="1005" y="814"/>
      <point x="1141" y="702"/>
      <point x="1141" y="493" type="curve" smooth="yes"/>
      <point x="1141" y="474" type="line" smooth="yes"/>
      <point x="1141" y="262"/>
      <point x="1004" y="149"/>
      <point x="777" y="149" type="curve" smooth="yes"/>
      <point x="562" y="149"/>
      <point x="384" y="251"/>
      <point x="372" y="478" type="curve"/>
      <point x="307" y="244" type="line"/>
      <point x="380" y="244" type="line"/>
      <point x="430" y="74"/>
      <point x="586" y="-29"/>
    </contour>
    <contour>
      <point x="160" y="0" type="line"/>
      <point x="378" y="0" type="line"/>
      <point x="369" y="279" type="line"/>
      <point x="372" y="346" type="line"/>
      <point x="372" y="625" type="line"/>
      <point x="371" y="673" type="line"/>
      <point x="376" y="957" type="line"/>
      <point x="376" y="1319" type="line"/>
      <point x="160" y="1319" type="line"/>
    </contour>
  </outline>
</glyph>
<glyph name="d" format="2">
  <advance width="1464"/>
  <unicode hex="0064"/>
  <anchor x="732" y="0" name="bottom"/>
  <anchor x="732" y="479" name="center"/>
  <anchor x="732" y="1319" name="top"/>
  <anchor x="1476" y="1319" name="topright"/>
  <outline>
    <contour>
      <point x="624" y="-29" type="curve" smooth="yes"/>
      <point x="904" y="-29"/>
      <point x="1040" y="98"/>
      <point x="1084" y="244" type="curve"/>
      <point x="1154" y="244" type="line"/>
      <point x="1100" y="415" type="line"/>
      <point x="1059" y="264"/>
      <point x="904" y="149"/>
      <point x="690" y="149" type="curve" smooth="yes"/>
      <point x="459" y="149"/>
      <point x="323" y="262"/>
      <point x="323" y="472" type="curve" smooth="yes"/>
      <point x="323" y="491" type="line" smooth="yes"/>
      <point x="323" y="702"/>
      <point x="460" y="814"/>
      <point x="690" y="814" type="curve" smooth="yes"/>
      <point x="916" y="814"/>
      <point x="1080" y="707"/>
      <point x="1092" y="485" type="curve"/>
      <point x="1155" y="714" type="line"/>
      <point x="1082" y="714" type="line"/>
      <point x="1033" y="884"/>
      <point x="879" y="987"/>
      <point x="628" y="987" type="curve" smooth="yes"/>
      <point x="304" y="987"/>
      <point x="103" y="814"/>
      <point x="103" y="489" type="curve" smooth="yes"/>
      <point x="103" y="469" type="line" smooth="yes"/>
      <point x="103" y="144"/>
      <point x="296" y="-29"/>
    </contour>
    <contour>
      <point x="1086" y="0" type="line"/>
      <point x="1304" y="0" type="line"/>
      <point x="1304" y="1319" type="line"/>
      <point x="1088" y="1319" type="line"/>
      <point x="1088" y="957" type="line"/>
      <point x="1093" y="673" type="line"/>
      <point x="1092" y="625" type="line"/>
      <point x="1092" y="346" type="line"/>
      <point x="1095" y="279" type="line"/>
    </contour>
  </outline>
</glyph>
<glyph name="e" format="2">
  <advance width="1339"/>
  <unicode hex="0065"/>
  <anchor x="680" y="0" name="bottom"/>
  <anchor x="1081" y="5" name="ogonek"/>
  <anchor x="680" y="958" name="top"/>
  <outline>
    <contour>
      <point x="713" y="-32" type="curve" smooth="yes"/>
      <point x="915" y="-32"/>
      <point x="1075" y="12"/>
      <point x="1199" y="84" type="curve"/>
      <point x="1223" y="266" type="line"/>
      <point x="1081" y="191"/>
      <point x="924" y="146"/>
      <point x="747" y="146" type="curve" smooth="yes"/>
      <point x="424" y="146"/>
      <point x="318" y="272"/>
      <point x="318" y="444" type="curve" smooth="yes"/>
      <point x="318" y="481" type="line"/>
      <point x="318" y="504" type="line"/>
      <point x="318" y="520" type="line" smooth="yes"/>
      <point x="318" y="705"/>
      <point x="436" y="819"/>
      <point x="672" y="819" type="curve" smooth="yes"/>
      <point x="912" y="819"/>
      <point x="1035" y="710"/>
      <point x="1035" y="527" type="curve" smooth="yes"/>
      <point x="1035" y="487"/>
      <point x="1033" y="440"/>
      <point x="1028" y="404" type="curve"/>
      <point x="1232" y="404" type="line"/>
      <point x="1238" y="434"/>
      <point x="1243" y="475"/>
      <point x="1243" y="513" type="curve" smooth="yes"/>
      <point x="1243" y="519" type="line" smooth="yes"/>
      <point x="1243" y="803"/>
      <point x="1051" y="990"/>
      <point x="672" y="990" type="curve" smooth="yes"/>
      <point x="303" y="990"/>
      <point x="101" y="806"/>
      <point x="101" y="491" type="curve"/>
      <point x="101" y="468" type="line"/>
      <point x="101" y="148"/>
      <point x="305" y="-32"/>
    </contour>
    <contour>
      <point x="200" y="404" type="line"/>
      <point x="1191" y="404" type="line"/>
      <point x="1191" y="566" type="line"/>
      <point x="200" y="566" type="line"/>
    </contour>
  </outline>
</glyph>
<glyph name="f" format="2">
	<advance width="999"/>
	<unicode hex="0066"/>
	<anchor x="500" y="1291" name="top"/>
	<anchor x="500" y="0" name="bottom"/>
	<outline>
		<contour>
			<point x="608" y="1350" type="curve" smooth="yes"/>
			<point x="305" y="1350"/>
			<point x="181" y="1241"/>
			<point x="181" y="1083" type="curve" smooth="yes"/>
			<point x="181" y="1080" type="line" smooth="yes"/>
			<point x="181" y="991"/>
			<point x="226" y="935"/>
			<point x="282" y="903" type="curve"/>
			<point x="282" y="880" type="line"/>
			<point x="423" y="886" type="line"/>
			<point x="408" y="915"/>
			<point x="394" y="952"/>
			<point x="394" y="998" type="curve" smooth="yes"/>
			<point x="394" y="1002" type="line" smooth="yes"/>
			<point x="394" y="1107"/>
			<point x="453" y="1173"/>
			<point x="657" y="1173" type="curve" smooth="yes"/>
			<point x="779" y="1173"/>
			<point x="873" y="1154"/>
			<point x="968" y="1124" type="curve"/>
			<point x="944" y="1293" type="line"/>
			<point x="848" y="1327"/>
			<point x="740" y="1350"/>
		</contour>
		<contour>
			<point x="220" y="0" type="line"/>
			<point x="436" y="0" type="line"/>
			<point x="436" y="830" type="line"/>
			<point x="220" y="830" type="line"/>
		</contour>
		<contour>
			<point x="16" y="727" type="line"/>
			<point x="939" y="727" type="line"/>
			<point x="961" y="896" type="line"/>
			<point x="390" y="896" type="line"/>
			<point x="312" y="894" type="line"/>
			<point x="16" y="896" type="line"/>
		</contour>
	</outline>
</glyph>
<glyph name="g" format="2">
	<advance width="1375"/>
	<unicode hex="0067"/>
	<anchor x="685" y="958" name="top"/>
	<anchor x="685" y="-338" name="bottom"/>
	<outline>
		<contour>
			<point x="687" y="331" type="curve" smooth="yes"/>
			<point x="1060" y="331"/>
			<point x="1242" y="427"/>
			<point x="1242" y="621" type="curve" smooth="yes"/>
			<point x="1242" y="628" type="line" smooth="yes"/>
			<point x="1242" y="736"/>
			<point x="1174" y="809"/>
			<point x="1029" y="835" type="curve"/>
			<point x="1029" y="845" type="line"/>
			<point x="1355" y="839" type="line"/>
			<point x="1355" y="1005" type="line"/>
			<point x="625" y="979" type="line" smooth="yes"/>
			<point x="284" y="967"/>
			<point x="116" y="872"/>
			<point x="116" y="661" type="curve" smooth="yes"/>
			<point x="116" y="653" type="line" smooth="yes"/>
			<point x="116" y="447"/>
			<point x="307" y="331"/>
		</contour>
		<contour>
			<point x="696" y="-216" type="curve" smooth="yes"/>
			<point x="678" y="-216" type="line"/>
			<point x="437" y="-216"/>
			<point x="294" y="-182"/>
			<point x="294" y="-76" type="curve" smooth="yes"/>
			<point x="294" y="-74" type="line" smooth="yes"/>
			<point x="294" y="18"/>
			<point x="392" y="52"/>
			<point x="518" y="64" type="curve"/>
			<point x="444" y="57" type="line"/>
			<point x="866" y="32" type="line" smooth="yes"/>
			<point x="1015" y="23"/>
			<point x="1080" y="-7"/>
			<point x="1080" y="-80" type="curve" smooth="yes"/>
			<point x="1080" y="-84" type="line" smooth="yes"/>
			<point x="1080" y="-184"/>
			<point x="936" y="-216"/>
		</contour>
		<contour>
			<point x="662" y="-386" type="curve" smooth="yes"/>
			<point x="694" y="-386" type="line" smooth="yes"/>
			<point x="1061" y="-386"/>
			<point x="1293" y="-312"/>
			<point x="1293" y="-91" type="curve" smooth="yes"/>
			<point x="1293" y="-88" type="line" smooth="yes"/>
			<point x="1293" y="96"/>
			<point x="1167" y="172"/>
			<point x="896" y="190" type="curve" smooth="yes"/>
			<point x="561" y="212" type="line" smooth="yes"/>
			<point x="406" y="222"/>
			<point x="354" y="241"/>
			<point x="354" y="285" type="curve" smooth="yes"/>
			<point x="354" y="286" type="line" smooth="yes"/>
			<point x="354" y="325"/>
			<point x="392" y="344"/>
			<point x="495" y="347" type="curve"/>
			<point x="588" y="344" type="line"/>
			<point x="322" y="406" type="line"/>
			<point x="322" y="376" type="line"/>
			<point x="204" y="365"/>
			<point x="151" y="317"/>
			<point x="151" y="231" type="curve" smooth="yes"/>
			<point x="151" y="230" type="line" smooth="yes"/>
			<point x="151" y="151"/>
			<point x="208" y="103"/>
			<point x="301" y="87" type="curve"/>
			<point x="301" y="77" type="line"/>
			<point x="179" y="63"/>
			<point x="84" y="-3"/>
			<point x="84" y="-122" type="curve" smooth="yes"/>
			<point x="84" y="-125" type="line" smooth="yes"/>
			<point x="84" y="-321"/>
			<point x="303" y="-386"/>
		</contour>
		<contour>
			<point x="683" y="487" type="curve" smooth="yes"/>
			<point x="431" y="487"/>
			<point x="329" y="552"/>
			<point x="329" y="657" type="curve" smooth="yes"/>
			<point x="329" y="666" type="line" smooth="yes"/>
			<point x="329" y="769"/>
			<point x="431" y="829"/>
			<point x="682" y="829" type="curve" smooth="yes"/>
			<point x="691" y="829" type="line" smooth="yes"/>
			<point x="935" y="829"/>
			<point x="1037" y="765"/>
			<point x="1037" y="664" type="curve" smooth="yes"/>
			<point x="1037" y="655" type="line" smooth="yes"/>
			<point x="1037" y="548"/>
			<point x="936" y="487"/>
		</contour>
	</outline>
</glyph>
<glyph name="j" format="2">
	<advance width="587"/>
	<unicode hex="006A"/>
	<outline>
		<contour>
			<point x="208" y="172" type="line"/>
			<point x="425" y="172" type="line"/>
			<point x="425" y="958" type="line"/>
			<point x="208" y="958" type="line"/>
		</contour>
		<contour>
			<point x="316" y="1104" type="curve" smooth="yes"/>
			<point x="407" y="1104"/>
			<point x="450" y="1145"/>
			<point x="450" y="1215" type="curve" smooth="yes"/>
			<point x="450" y="1219" type="line" smooth="yes"/>
			<point x="450" y="1287"/>
			<point x="407" y="1329"/>
			<point x="316" y="1329" type="curve" smooth="yes"/>
			<point x="226" y="1329"/>
			<point x="184" y="1287"/>
			<point x="184" y="1219" type="curve" smooth="yes"/>
			<point x="184" y="1215" type="line" smooth="yes"/>
			<point x="184" y="1146"/>
			<point x="226" y="1104"/>
		</contour>
		<component base="jbottom"/>
	</outline>
</glyph>
<glyph name="k" format="2">
	<advance width="1328"/>
	<unicode hex="006B"/>
	<anchor x="674" y="1319" name="top"/>
	<anchor x="674" y="0" name="bottom"/>
	<outline>
		<contour>
			<point x="1003" y="0" type="line"/>
			<point x="1301" y="0" type="line"/>
			<point x="662" y="540" type="line"/>
			<point x="662" y="495" type="line"/>
			<point x="1278" y="958" type="line"/>
			<point x="987" y="958" type="line"/>
			<point x="499" y="599" type="line"/>
			<point x="337" y="599" type="line"/>
			<point x="337" y="420" type="line"/>
			<point x="497" y="420" type="line"/>
		</contour>
		<contour>
			<point x="160" y="0" type="line"/>
			<point x="378" y="0" type="line"/>
			<point x="378" y="1319" type="line"/>
			<point x="160" y="1319" type="line"/>
		</contour>
	</outline>
</glyph>
<glyph name="n" format="2">
	<advance width="1413"/>
	<unicode hex="006E"/>
	<anchor x="707" y="958" name="top"/>
	<anchor x="707" y="0" name="bottom"/>
	<outline>
		<contour>
			<point x="1051" y="503" type="curve" smooth="yes"/>
			<point x="1051" y="0" type="line"/>
			<point x="1269" y="0" type="line"/>
			<point x="1269" y="525" type="line" smooth="yes"/>
			<point x="1269" y="817"/>
			<point x="1142" y="987"/>
			<point x="825" y="987" type="curve" smooth="yes"/>
			<point x="565" y="987"/>
			<point x="425" y="860"/>
			<point x="380" y="714" type="curve"/>
			<point x="338" y="714" type="line"/>
			<point x="369" y="549" type="line"/>
			<point x="408" y="693"/>
			<point x="535" y="807"/>
			<point x="747" y="807" type="curve" smooth="yes"/>
			<point x="975" y="807"/>
			<point x="1051" y="679"/>
		</contour>
		<contour>
			<point x="160" y="0" type="line"/>
			<point x="378" y="0" type="line"/>
			<point x="378" y="652" type="line"/>
			<point x="369" y="679" type="line"/>
			<point x="378" y="958" type="line"/>
			<point x="160" y="958" type="line"/>
		</contour>
	</outline>
</glyph>
<glyph name="q" format="2">
  <advance width="1464"/>
  <unicode hex="0071"/>
  <anchor x="732" y="0" name="bottom"/>
  <anchor x="732" y="958" name="top"/>
  <outline>
    <contour>
      <point x="624" y="-29" type="curve" smooth="yes"/>
      <point x="903" y="-29"/>
      <point x="1038" y="98"/>
      <point x="1082" y="244" type="curve"/>
      <point x="1154" y="244" type="line"/>
      <point x="1100" y="417" type="line"/>
      <point x="1059" y="266"/>
      <point x="904" y="151"/>
      <point x="690" y="151" type="curve" smooth="yes"/>
      <point x="459" y="151"/>
      <point x="323" y="263"/>
      <point x="323" y="472" type="curve" smooth="yes"/>
      <point x="323" y="491" type="line" smooth="yes"/>
      <point x="323" y="702"/>
      <point x="460" y="814"/>
      <point x="690" y="814" type="curve" smooth="yes"/>
      <point x="916" y="814"/>
      <point x="1080" y="710"/>
      <point x="1092" y="495" type="curve"/>
      <point x="1155" y="713" type="line"/>
      <point x="1084" y="713" type="line"/>
      <point x="1035" y="884"/>
      <point x="880" y="987"/>
      <point x="628" y="987" type="curve" smooth="yes"/>
      <point x="304" y="987"/>
      <point x="103" y="814"/>
      <point x="103" y="489" type="curve" smooth="yes"/>
      <point x="103" y="469" type="line" smooth="yes"/>
      <point x="103" y="144"/>
      <point x="296" y="-29"/>
    </contour>
    <contour>
      <point x="1088" y="-338" type="line"/>
      <point x="1304" y="-338" type="line"/>
      <point x="1304" y="958" type="line"/>
      <point x="1086" y="958" type="line"/>
      <point x="1095" y="678" type="line"/>
      <point x="1092" y="592" type="line"/>
      <point x="1092" y="347" type="line"/>
      <point x="1093" y="285" type="line"/>
      <point x="1088" y="2" type="line"/>
    </contour>
  </outline>
</glyph>
<glyph name="s" format="2">
	<advance width="1219"/>
	<unicode hex="0073"/>
	<anchor x="610" y="958" name="top"/>
	<anchor x="610" y="0" name="bottom"/>
	<outline>
		<contour>
			<point x="629" y="-32" type="curve" smooth="yes"/>
			<point x="967" y="-32"/>
			<point x="1139" y="61"/>
			<point x="1139" y="274" type="curve"/>
			<point x="1139" y="274" type="line"/>
			<point x="1139" y="484"/>
			<point x="1004" y="542"/>
			<point x="635" y="572" type="curve" smooth="yes"/>
			<point x="360" y="594"/>
			<point x="302" y="620"/>
			<point x="302" y="704" type="curve" smooth="yes"/>
			<point x="302" y="704" type="line" smooth="yes"/>
			<point x="302" y="775"/>
			<point x="371" y="817"/>
			<point x="581" y="817" type="curve" smooth="yes"/>
			<point x="787" y="817"/>
			<point x="957" y="772"/>
			<point x="1085" y="713" type="curve"/>
			<point x="1061" y="894" type="line"/>
			<point x="953" y="945"/>
			<point x="786" y="991"/>
			<point x="563" y="991" type="curve" smooth="yes"/>
			<point x="244" y="991"/>
			<point x="88" y="898"/>
			<point x="88" y="708" type="curve"/>
			<point x="88" y="706" type="line"/>
			<point x="88" y="521"/>
			<point x="202" y="436"/>
			<point x="571" y="408" type="curve" smooth="yes"/>
			<point x="838" y="388"/>
			<point x="923" y="365"/>
			<point x="923" y="274" type="curve"/>
			<point x="923" y="274" type="line"/>
			<point x="923" y="183"/>
			<point x="821" y="146"/>
			<point x="618" y="146" type="curve" smooth="yes"/>
			<point x="397" y="146"/>
			<point x="224" y="201"/>
			<point x="87" y="265" type="curve"/>
			<point x="111" y="67" type="line"/>
			<point x="227" y="17"/>
			<point x="396" y="-32"/>
		</contour>
	</outline>
</glyph>
<glyph name="t" format="2">
	<advance width="1086"/>
	<unicode hex="0074"/>
	<anchor x="544" y="479" name="center"/>
	<anchor x="323" y="1203" name="top"/>
	<anchor x="802" y="1416" name="topright"/>
	<anchor x="593" y="0" name="bottom"/>
	<outline>
		<contour>
			<point x="640" y="-27" type="curve" smooth="yes"/>
			<point x="779" y="-27"/>
			<point x="902" y="-2"/>
			<point x="994" y="40" type="curve"/>
			<point x="1016" y="225" type="line"/>
			<point x="923" y="180"/>
			<point x="809" y="154"/>
			<point x="692" y="154" type="curve" smooth="yes"/>
			<point x="497" y="154"/>
			<point x="428" y="231"/>
			<point x="428" y="395" type="curve" smooth="yes"/>
			<point x="428" y="838" type="line"/>
			<point x="212" y="838" type="line"/>
			<point x="212" y="372" type="line" smooth="yes"/>
			<point x="212" y="105"/>
			<point x="322" y="-27"/>
		</contour>
		<contour>
			<point x="8" y="774" type="line"/>
			<point x="991" y="774" type="line"/>
			<point x="1014" y="942" type="line"/>
			<point x="8" y="942" type="line"/>
		</contour>
		<contour>
			<point x="215" y="922" type="line"/>
			<point x="422" y="922" type="line"/>
			<point x="430" y="1231" type="line"/>
			<point x="214" y="1210" type="line"/>
		</contour>
	</outline>
</glyph>
<glyph name="w" format="2">
  <advance width="1959"/>
  <unicode hex="0077"/>
  <anchor x="980" y="0" name="bottom"/>
  <anchor x="980" y="958" name="top"/>
  <outline>
    <contour>
      <point x="394" y="0" type="line"/>
      <point x="715" y="0" type="line"/>
      <point x="902" y="559" type="line"/>
      <point x="971" y="774" type="line"/>
      <point x="987" y="774" type="line"/>
      <point x="1057" y="559" type="line"/>
      <point x="1244" y="0" type="line"/>
      <point x="1565" y="0" type="line"/>
      <point x="1905" y="958" type="line"/>
      <point x="1673" y="958" type="line"/>
      <point x="1408" y="156" type="line"/>
      <point x="1388" y="156" type="line"/>
      <point x="1128" y="930" type="line"/>
      <point x="829" y="930" type="line"/>
      <point x="573" y="156" type="line"/>
      <point x="552" y="156" type="line"/>
      <point x="286" y="958" type="line"/>
      <point x="54" y="958" type="line"/>
    </contour>
  </outline>
</glyph>
<glyph name="y" format="2">
  <advance width="1315"/>
  <unicode hex="0079"/>
  <anchor x="1025" y="32" name="bottom"/>
  <anchor x="658" y="958" name="top"/>
  <outline>
    <contour>
      <point x="760" y="185" type="line"/>
      <point x="638" y="185" type="line"/>
      <point x="274" y="958" type="line"/>
      <point x="38" y="958" type="line"/>
      <point x="488" y="39" type="line"/>
      <point x="718" y="39" type="line"/>
      <point x="633" y="133" type="line"/>
      <point x="398" y="-338" type="line"/>
      <point x="631" y="-338" type="line"/>
      <point x="1277" y="958" type="line"/>
      <point x="1041" y="958" type="line"/>
      <point x="632" y="108" type="line"/>
    </contour>
  </outline>
</glyph>
<glyph name="z" format="2">
	<advance width="1237"/>
	<unicode hex="007A"/>
	<anchor x="619" y="479" name="center"/>
	<anchor x="619" y="0" name="bottom"/>
	<anchor x="619" y="958" name="top"/>
	<outline>
		<contour>
			<point x="1136" y="171" type="line"/>
			<point x="393" y="171" type="line"/>
			<point x="1129" y="799" type="line"/>
			<point x="1129" y="957" type="line"/>
			<point x="105" y="957" type="line"/>
			<point x="105" y="786" type="line"/>
			<point x="836" y="786" type="line"/>
			<point x="101" y="159" type="line"/>
			<point x="101" y="0" type="line"/>
			<point x="1136" y="0" type="line"/>
		</contour>
	</outline>
</glyph>
<glyph name="bar" format="2">
	<advance width="608"/>
	<unicode hex="007C"/>
	<outline>
		<contour>
			<point x="399" y="-445" type="line"/>
			<point x="399" y="1415" type="line"/>
			<point x="209" y="1415" type="line"/>
			<point x="209" y="-445" type="line"/>
		</contour>
	</outline>
</glyph>
<glyph name="exclamdown" format="2">
  <advance width="574"/>
  <unicode hex="00A1"/>
  <outline>
    <contour>
      <point x="382" y="557" type="line"/>
      <point x="193" y="557" type="line"/>
      <point x="169" y="-320" type="line"/>
      <point x="405" y="-320" type="line"/>
    </contour>
    <contour>
      <point x="287" y="982" type="curve" smooth="yes"/>
      <point x="194" y="982"/>
      <point x="148" y="935"/>
      <point x="148" y="858" type="curve" smooth="yes"/>
      <point x="148" y="854" type="line" smooth="yes"/>
      <point x="148" y="777"/>
      <point x="194" y="730"/>
      <point x="287" y="730" type="curve" smooth="yes"/>
      <point x="382" y="730"/>
      <point x="427" y="777"/>
      <point x="427" y="854" type="curve" smooth="yes"/>
      <point x="427" y="858" type="line" smooth="yes"/>
      <point x="427" y="935"/>
      <point x="382" y="982"/>
    </contour>
  </outline>
</glyph>
<glyph name="yen" format="2">
  <advance width="1525"/>
  <unicode hex="00A5"/>
  <anchor x="761" y="0" name="bottom"/>
  <anchor x="761" y="1278" name="top"/>
  <anchor x="20" y="1278" name="topleft"/>
  <outline>
    <contour>
      <point x="877" y="543" type="line"/>
      <point x="1370" y="543" type="line"/>
      <point x="1384" y="695" type="line"/>
      <point x="920" y="695" type="line"/>
    </contour>
    <contour>
      <point x="159" y="390" type="line"/>
      <point x="144" y="238" type="line"/>
      <point x="1370" y="238" type="line"/>
      <point x="1384" y="390" type="line"/>
    </contour>
    <contour>
      <point x="612" y="695" type="line"/>
      <point x="159" y="695" type="line"/>
      <point x="144" y="543" type="line"/>
      <point x="655" y="543" type="line"/>
    </contour>
    <component base="Y"/>
  </outline>
</glyph>
<glyph name="copyright" format="2">
  <advance width="1689"/>
  <unicode hex="00A9"/>
  <outline>
    <contour>
      <point x="844" y="-33" type="curve" smooth="yes"/>
      <point x="1310" y="-33"/>
      <point x="1577" y="211"/>
      <point x="1577" y="634" type="curve" smooth="yes"/>
      <point x="1577" y="652" type="line" smooth="yes"/>
      <point x="1577" y="1071"/>
      <point x="1310" y="1311"/>
      <point x="844" y="1311" type="curve" smooth="yes"/>
      <point x="379" y="1311"/>
      <point x="112" y="1071"/>
      <point x="112" y="652" type="curve" smooth="yes"/>
      <point x="112" y="634" type="line" smooth="yes"/>
      <point x="112" y="211"/>
      <point x="379" y="-33"/>
    </contour>
    <contour>
      <point x="877" y="312" type="curve" smooth="yes"/>
      <point x="1003" y="312"/>
      <point x="1094" y="343"/>
      <point x="1151" y="376" type="curve"/>
      <point x="1164" y="512" type="line"/>
      <point x="1097" y="473"/>
      <point x="1015" y="441"/>
      <point x="901" y="441" type="curve" smooth="yes"/>
      <point x="740" y="441"/>
      <point x="656" y="509"/>
      <point x="656" y="635" type="curve" smooth="yes"/>
      <point x="656" y="646" type="line" smooth="yes"/>
      <point x="656" y="771"/>
      <point x="738" y="837"/>
      <point x="895" y="837" type="curve" smooth="yes"/>
      <point x="1011" y="837"/>
      <point x="1094" y="804"/>
      <point x="1157" y="766" type="curve"/>
      <point x="1143" y="901" type="line"/>
      <point x="1089" y="932"/>
      <point x="1000" y="964"/>
      <point x="876" y="964" type="curve" smooth="yes"/>
      <point x="632" y="964"/>
      <point x="502" y="850"/>
      <point x="502" y="647" type="curve" smooth="yes"/>
      <point x="502" y="635" type="line" smooth="yes"/>
      <point x="502" y="427"/>
      <point x="632" y="312"/>
    </contour>
    <contour>
      <point x="844" y="90" type="curve" smooth="yes"/>
      <point x="470" y="90"/>
      <point x="259" y="288"/>
      <point x="259" y="635" type="curve" smooth="yes"/>
      <point x="259" y="651" type="line" smooth="yes"/>
      <point x="259" y="995"/>
      <point x="470" y="1188"/>
      <point x="844" y="1188" type="curve" smooth="yes"/>
      <point x="1219" y="1188"/>
      <point x="1430" y="995"/>
      <point x="1430" y="651" type="curve" smooth="yes"/>
      <point x="1430" y="635" type="line" smooth="yes"/>
      <point x="1430" y="288"/>
      <point x="1219" y="90"/>
    </contour>
  </outline>
</glyph>
<glyph name="logicalnot" format="2">
  <advance width="1347"/>
  <unicode hex="00AC"/>
  <outline>
    <contour>
      <point x="1196" y="87" type="line"/>
      <point x="1196" y="631" type="line"/>
      <point x="1014" y="631" type="line"/>
      <point x="1014" y="87" type="line"/>
    </contour>
    <contour>
      <point x="141" y="522" type="line"/>
      <point x="1196" y="522" type="line"/>
      <point x="1196" y="690" type="line"/>
      <point x="141" y="690" type="line"/>
    </contour>
  </outline>
</glyph>
<glyph name="degree" format="2">
	<advance width="807"/>
	<unicode hex="00B0"/>
	<outline>
		<contour>
			<point x="403" y="740" type="curve" smooth="yes"/>
			<point x="601" y="740"/>
			<point x="713" y="853"/>
			<point x="713" y="1023" type="curve"/>
			<point x="713" y="1029" type="line"/>
			<point x="713" y="1199"/>
			<point x="601" y="1311"/>
			<point x="403" y="1311" type="curve" smooth="yes"/>
			<point x="206" y="1311"/>
			<point x="94" y="1199"/>
			<point x="94" y="1029" type="curve"/>
			<point x="94" y="1023" type="line"/>
			<point x="94" y="853"/>
			<point x="206" y="740"/>
		</contour>
		<contour>
			<point x="403" y="882" type="curve" smooth="yes"/>
			<point x="310" y="882"/>
			<point x="257" y="938"/>
			<point x="257" y="1023" type="curve" smooth="yes"/>
			<point x="257" y="1028" type="line" smooth="yes"/>
			<point x="257" y="1114"/>
			<point x="310" y="1169"/>
			<point x="403" y="1169" type="curve" smooth="yes"/>
			<point x="497" y="1169"/>
			<point x="550" y="1114"/>
			<point x="550" y="1028" type="curve" smooth="yes"/>
			<point x="550" y="1023" type="line" smooth="yes"/>
			<point x="550" y="938"/>
			<point x="497" y="882"/>
		</contour>
	</outline>
</glyph>
<glyph name="plusminus" format="2">
	<advance width="1365"/>
	<unicode hex="00B1"/>
	<outline>
		<contour>
			<point x="155" y="67" type="line"/>
			<point x="1210" y="67" type="line"/>
			<point x="1210" y="234" type="line"/>
			<point x="155" y="234" type="line"/>
		</contour>
		<contour>
			<point x="775" y="371" type="line"/>
			<point x="775" y="1191" type="line"/>
			<point x="590" y="1191" type="line"/>
			<point x="590" y="371" type="line"/>
		</contour>
		<contour>
			<point x="155" y="698" type="line"/>
			<point x="1210" y="698" type="line"/>
			<point x="1210" y="864" type="line"/>
			<point x="155" y="864" type="line"/>
		</contour>
	</outline>
</glyph>
<glyph name="twosuperior" format="2">
	<advance width="819"/>
	<unicode hex="00B2"/>
	<outline>
		<contour>
			<point x="49" y="751" type="line"/>
			<point x="762" y="751" type="line"/>
			<point x="762" y="890" type="line"/>
			<point x="236" y="889" type="line"/>
			<point x="350" y="860" type="line"/>
			<point x="350" y="894" type="line"/>
			<point x="486" y="953" type="line" smooth="yes"/>
			<point x="666" y="1031"/>
			<point x="747" y="1100"/>
			<point x="747" y="1221" type="curve" smooth="yes"/>
			<point x="747" y="1228" type="line" smooth="yes"/>
			<point x="747" y="1366"/>
			<point x="624" y="1443"/>
			<point x="402" y="1443" type="curve" smooth="yes"/>
			<point x="281" y="1443"/>
			<point x="146" y="1411"/>
			<point x="70" y="1373" type="curve"/>
			<point x="54" y="1235" type="line"/>
			<point x="151" y="1275"/>
			<point x="258" y="1308"/>
			<point x="385" y="1308" type="curve" smooth="yes"/>
			<point x="517" y="1308"/>
			<point x="572" y="1276"/>
			<point x="572" y="1208" type="curve" smooth="yes"/>
			<point x="572" y="1206" type="line" smooth="yes"/>
			<point x="572" y="1130"/>
			<point x="468" y="1076"/>
			<point x="347" y="1023" type="curve" smooth="yes"/>
			<point x="49" y="893" type="line"/>
		</contour>
	</outline>
</glyph>
<glyph name="paragraph" format="2">
	<advance width="934"/>
	<unicode hex="00B6"/>
	<outline>
		<contour>
			<point x="465" y="654" type="curve"/>
			<point x="574" y="654" type="line"/>
			<point x="573" y="1278" type="line"/>
			<point x="465" y="1278" type="line" smooth="yes"/>
			<point x="214" y="1278"/>
			<point x="97" y="1162"/>
			<point x="97" y="973" type="curve" smooth="yes"/>
			<point x="97" y="959" type="line" smooth="yes"/>
			<point x="97" y="772"/>
			<point x="214" y="654"/>
		</contour>
		<contour>
			<point x="749" y="0" type="line"/>
			<point x="749" y="1278" type="line"/>
			<point x="531" y="1278" type="line"/>
			<point x="531" y="0" type="line"/>
		</contour>
	</outline>
</glyph>
<glyph name="onesuperior" format="2">
	<advance width="542"/>
	<unicode hex="00B9"/>
	<outline>
		<contour>
			<point x="274" y="751" type="line"/>
			<point x="441" y="751" type="line"/>
			<point x="441" y="1424" type="line"/>
			<point x="284" y="1424" type="line"/>
			<point x="44" y="1320" type="line"/>
			<point x="37" y="1174" type="line"/>
			<point x="266" y="1271" type="line"/>
			<point x="274" y="1271" type="line"/>
		</contour>
	</outline>
</glyph>
<glyph name="ordmasculine" format="2">
	<advance width="898"/>
	<unicode hex="00BA"/>
	<outline>
		<contour>
			<point x="449" y="628" type="curve" smooth="yes"/>
			<point x="691" y="628"/>
			<point x="826" y="742"/>
			<point x="826" y="952" type="curve"/>
			<point x="826" y="971" type="line"/>
			<point x="826" y="1180"/>
			<point x="692" y="1295"/>
			<point x="449" y="1295" type="curve" smooth="yes"/>
			<point x="207" y="1295"/>
			<point x="72" y="1180"/>
			<point x="72" y="971" type="curve"/>
			<point x="72" y="952" type="line"/>
			<point x="72" y="743"/>
			<point x="206" y="628"/>
		</contour>
		<contour>
			<point x="449" y="759" type="curve" smooth="yes"/>
			<point x="313" y="759"/>
			<point x="237" y="826"/>
			<point x="237" y="954" type="curve" smooth="yes"/>
			<point x="237" y="970" type="line" smooth="yes"/>
			<point x="237" y="1097"/>
			<point x="313" y="1164"/>
			<point x="449" y="1164" type="curve" smooth="yes"/>
			<point x="585" y="1164"/>
			<point x="661" y="1097"/>
			<point x="661" y="970" type="curve" smooth="yes"/>
			<point x="661" y="954" type="line" smooth="yes"/>
			<point x="661" y="826"/>
			<point x="584" y="759"/>
		</contour>
	</outline>
</glyph>
<glyph name="guillemetright" format="2">
	<advance width="1285"/>
	<unicode hex="00BB"/>
	<outline>
		<contour>
			<point x="431" y="475" type="line"/>
			<point x="38" y="75" type="line"/>
			<point x="276" y="75" type="line"/>
			<point x="658" y="458" type="line"/>
			<point x="658" y="504" type="line"/>
			<point x="276" y="875" type="line"/>
			<point x="38" y="875" type="line"/>
		</contour>
		<contour>
			<point x="982" y="475" type="line"/>
			<point x="589" y="75" type="line"/>
			<point x="827" y="75" type="line"/>
			<point x="1209" y="458" type="line"/>
			<point x="1209" y="504" type="line"/>
			<point x="827" y="875" type="line"/>
			<point x="589" y="875" type="line"/>
		</contour>
	</outline>
</glyph>
<glyph name="questiondown" format="2">
	<advance width="1282"/>
	<unicode hex="00BF"/>
	<outline>
		<contour>
			<point x="873" y="538" type="line"/>
			<point x="758" y="531" type="line" smooth="yes"/>
			<point x="333" y="505"/>
			<point x="101" y="367"/>
			<point x="101" y="73" type="curve" smooth="yes"/>
			<point x="101" y="60" type="line" smooth="yes"/>
			<point x="101" y="-205"/>
			<point x="284" y="-347"/>
			<point x="663" y="-347" type="curve" smooth="yes"/>
			<point x="899" y="-347"/>
			<point x="1089" y="-278"/>
			<point x="1190" y="-224" type="curve"/>
			<point x="1216" y="-32" type="line"/>
			<point x="1069" y="-104"/>
			<point x="880" y="-165"/>
			<point x="678" y="-165" type="curve" smooth="yes"/>
			<point x="417" y="-165"/>
			<point x="326" y="-77"/>
			<point x="326" y="64" type="curve" smooth="yes"/>
			<point x="326" y="74" type="line" smooth="yes"/>
			<point x="326" y="244"/>
			<point x="462" y="331"/>
			<point x="769" y="355" type="curve" smooth="yes"/>
			<point x="873" y="363" type="line"/>
		</contour>
		<contour>
			<point x="764" y="981" type="curve" smooth="yes"/>
			<point x="669" y="981"/>
			<point x="624" y="934"/>
			<point x="624" y="857" type="curve" smooth="yes"/>
			<point x="624" y="853" type="line" smooth="yes"/>
			<point x="624" y="776"/>
			<point x="669" y="729"/>
			<point x="764" y="729" type="curve" smooth="yes"/>
			<point x="857" y="729"/>
			<point x="903" y="776"/>
			<point x="903" y="853" type="curve" smooth="yes"/>
			<point x="903" y="857" type="line" smooth="yes"/>
			<point x="903" y="934"/>
			<point x="857" y="981"/>
		</contour>
	</outline>
</glyph>
<glyph name="Eth" format="2">
	<advance width="1635"/>
	<unicode hex="00D0"/>
	<outline>
		<contour>
			<point x="-3" y="569" type="line"/>
			<point x="857" y="568" type="line"/>
			<point x="857" y="732" type="line"/>
			<point x="-3" y="733" type="line"/>
		</contour>
		<component base="D"/>
	</outline>
</glyph>
<glyph name="Thorn" format="2">
  <advance width="1526"/>
  <unicode hex="00DE"/>
  <anchor x="763" y="0" name="bottom"/>
  <anchor x="763" y="1278" name="top"/>
  <outline>
    <contour>
      <point x="347" y="210" type="line"/>
      <point x="911" y="210" type="line" smooth="yes"/>
      <point x="1270" y="210"/>
      <point x="1434" y="372"/>
      <point x="1434" y="632" type="curve" smooth="yes"/>
      <point x="1434" y="650" type="line" smooth="yes"/>
      <point x="1434" y="913"/>
      <point x="1270" y="1073"/>
      <point x="911" y="1073" type="curve" smooth="yes"/>
      <point x="341" y="1073" type="line"/>
      <point x="341" y="893" type="line"/>
      <point x="911" y="893" type="line" smooth="yes"/>
      <point x="1116" y="893"/>
      <point x="1204" y="803"/>
      <point x="1204" y="650" type="curve" smooth="yes"/>
      <point x="1204" y="633" type="line" smooth="yes"/>
      <point x="1204" y="480"/>
      <point x="1116" y="391"/>
      <point x="911" y="391" type="curve" smooth="yes"/>
      <point x="347" y="391" type="line"/>
    </contour>
    <contour>
      <point x="185" y="0" type="line"/>
      <point x="405" y="0" type="line"/>
      <point x="405" y="260" type="line"/>
      <point x="405" y="332" type="line"/>
      <point x="405" y="944" type="line"/>
      <point x="405" y="1021" type="line"/>
      <point x="405" y="1278" type="line"/>
      <point x="185" y="1278" type="line"/>
    </contour>
  </outline>
</glyph>
<glyph name="eth" format="2">
  <advance width="1408"/>
  <unicode hex="00F0"/>
  <outline>
    <contour>
      <point x="704" y="-30" type="curve" smooth="yes"/>
      <point x="1091" y="-30"/>
      <point x="1307" y="146"/>
      <point x="1307" y="450" type="curve"/>
      <point x="1307" y="476" type="line"/>
      <point x="1307" y="872"/>
      <point x="1009" y="1105"/>
      <point x="632" y="1319" type="curve"/>
      <point x="328" y="1319" type="line"/>
      <point x="328" y="1317" type="line"/>
      <point x="740" y="1091"/>
      <point x="1044" y="861"/>
      <point x="1075" y="626" type="curve"/>
      <point x="1079" y="569"/>
      <point x="1084" y="536"/>
      <point x="1088" y="455" type="curve"/>
      <point x="1088" y="449"/>
      <point x="1088" y="444"/>
      <point x="1088" y="438" type="curve" smooth="yes"/>
      <point x="1088" y="245"/>
      <point x="944" y="143"/>
      <point x="704" y="143" type="curve" smooth="yes"/>
      <point x="463" y="143"/>
      <point x="320" y="244"/>
      <point x="320" y="438" type="curve" smooth="yes"/>
      <point x="320" y="460" type="line" smooth="yes"/>
      <point x="320" y="654"/>
      <point x="461" y="747"/>
      <point x="702" y="747" type="curve" smooth="yes"/>
      <point x="921" y="747"/>
      <point x="1077" y="660"/>
      <point x="1088" y="455" type="curve"/>
      <point x="1080" y="776" type="line"/>
      <point x="1018" y="752" type="line"/>
      <point x="942" y="857"/>
      <point x="828" y="918"/>
      <point x="622" y="918" type="curve" smooth="yes"/>
      <point x="303" y="918"/>
      <point x="101" y="754"/>
      <point x="101" y="461" type="curve" smooth="yes"/>
      <point x="101" y="439" type="line" smooth="yes"/>
      <point x="101" y="133"/>
      <point x="317" y="-30"/>
    </contour>
    <contour>
      <point x="270" y="977" type="line"/>
      <point x="1217" y="1159" type="line"/>
      <point x="1217" y="1294" type="line"/>
      <point x="270" y="1113" type="line"/>
    </contour>
  </outline>
</glyph>
<glyph name="divide" format="2">
	<advance width="1337"/>
	<unicode hex="00F7"/>
	<outline>
		<contour>
			<point x="141" y="520" type="line"/>
			<point x="1196" y="520" type="line"/>
			<point x="1196" y="692" type="line"/>
			<point x="141" y="692" type="line"/>
		</contour>
		<contour>
			<point x="670" y="67" type="curve" smooth="yes"/>
			<point x="763" y="67"/>
			<point x="807" y="114"/>
			<point x="807" y="189" type="curve" smooth="yes"/>
			<point x="807" y="193" type="line" smooth="yes"/>
			<point x="807" y="268"/>
			<point x="763" y="314"/>
			<point x="670" y="314" type="curve" smooth="yes"/>
			<point x="579" y="314"/>
			<point x="534" y="268"/>
			<point x="534" y="193" type="curve" smooth="yes"/>
			<point x="534" y="189" type="line" smooth="yes"/>
			<point x="534" y="114"/>
			<point x="579" y="67"/>
		</contour>
		<contour>
			<point x="670" y="907" type="curve" smooth="yes"/>
			<point x="763" y="907"/>
			<point x="807" y="954"/>
			<point x="807" y="1029" type="curve" smooth="yes"/>
			<point x="807" y="1033" type="line" smooth="yes"/>
			<point x="807" y="1108"/>
			<point x="763" y="1154"/>
			<point x="670" y="1154" type="curve" smooth="yes"/>
			<point x="579" y="1154"/>
			<point x="534" y="1108"/>
			<point x="534" y="1033" type="curve" smooth="yes"/>
			<point x="534" y="1029" type="line" smooth="yes"/>
			<point x="534" y="954"/>
			<point x="579" y="907"/>
		</contour>
	</outline>
</glyph>
<glyph name="oslash" format="2">
	<advance width="1409"/>
	<unicode hex="00F8"/>
	<anchor x="705" y="479" name="center"/>
	<anchor x="1268" y="10" name="ogonek"/>
	<anchor x="705" y="958" name="top"/>
	<anchor x="1389" y="958" name="topright"/>
	<anchor x="705" y="0" name="bottom"/>
	<outline>
		<contour>
			<point x="704" y="-29" type="curve" smooth="yes"/>
			<point x="1096" y="-29"/>
			<point x="1308" y="145"/>
			<point x="1308" y="468" type="curve"/>
			<point x="1308" y="490" type="line"/>
			<point x="1308" y="807"/>
			<point x="1077" y="988"/>
			<point x="704" y="988" type="curve" smooth="yes"/>
			<point x="314" y="988"/>
			<point x="101" y="813"/>
			<point x="101" y="493" type="curve"/>
			<point x="101" y="471" type="line"/>
			<point x="101" y="153"/>
			<point x="331" y="-29"/>
		</contour>
		<contour>
			<point x="104" y="-60" type="line"/>
			<point x="316" y="-60" type="line"/>
			<point x="440" y="75" type="line"/>
			<point x="477" y="116" type="line"/>
			<point x="1066" y="758" type="line"/>
			<point x="1112" y="808" type="line"/>
			<point x="1305" y="1018" type="line"/>
			<point x="1094" y="1018" type="line"/>
			<point x="987" y="902" type="line"/>
			<point x="949" y="860" type="line"/>
			<point x="349" y="206" type="line"/>
			<point x="304" y="158" type="line"/>
		</contour>
		<contour>
			<point x="704" y="131" type="curve" smooth="yes"/>
			<point x="455" y="131"/>
			<point x="312" y="251"/>
			<point x="312" y="468" type="curve" smooth="yes"/>
			<point x="312" y="493" type="line" smooth="yes"/>
			<point x="312" y="712"/>
			<point x="453" y="829"/>
			<point x="704" y="829" type="curve" smooth="yes"/>
			<point x="955" y="829"/>
			<point x="1097" y="709"/>
			<point x="1097" y="493" type="curve" smooth="yes"/>
			<point x="1097" y="468" type="line" smooth="yes"/>
			<point x="1097" y="249"/>
			<point x="955" y="131"/>
		</contour>
	</outline>
</glyph>
<glyph name="thorn" format="2">
  <advance width="1464"/>
  <unicode hex="00FE"/>
  <anchor x="732" y="0" name="bottom"/>
  <anchor x="732" y="958" name="top"/>
  <outline>
    <contour>
      <point x="836" y="-29" type="curve" smooth="yes"/>
      <point x="1160" y="-29"/>
      <point x="1361" y="144"/>
      <point x="1361" y="470" type="curve" smooth="yes"/>
      <point x="1361" y="490" type="line" smooth="yes"/>
      <point x="1361" y="814"/>
      <point x="1168" y="987"/>
      <point x="838" y="987" type="curve" smooth="yes"/>
      <point x="562" y="987"/>
      <point x="426" y="860"/>
      <point x="382" y="714" type="curve"/>
      <point x="312" y="714" type="line"/>
      <point x="366" y="544" type="line"/>
      <point x="407" y="697"/>
      <point x="561" y="814"/>
      <point x="774" y="814" type="curve" smooth="yes"/>
      <point x="1005" y="814"/>
      <point x="1141" y="702"/>
      <point x="1141" y="493" type="curve" smooth="yes"/>
      <point x="1141" y="474" type="line" smooth="yes"/>
      <point x="1141" y="263"/>
      <point x="1004" y="151"/>
      <point x="776" y="151" type="curve" smooth="yes"/>
      <point x="562" y="151"/>
      <point x="384" y="248"/>
      <point x="372" y="470" type="curve"/>
      <point x="309" y="244" type="line"/>
      <point x="382" y="244" type="line"/>
      <point x="431" y="74"/>
      <point x="586" y="-29"/>
    </contour>
    <contour>
      <point x="160" y="-338" type="line"/>
      <point x="376" y="-338" type="line"/>
      <point x="376" y="2" type="line"/>
      <point x="371" y="285" type="line"/>
      <point x="372" y="347" type="line"/>
      <point x="372" y="592" type="line"/>
      <point x="371" y="679" type="line"/>
      <point x="376" y="958" type="line"/>
      <point x="376" y="1319" type="line"/>
      <point x="160" y="1319" type="line"/>
    </contour>
  </outline>
</glyph>
<glyph name="oe" format="2">
	<advance width="2317"/>
	<unicode hex="0153"/>
	<anchor x="1159" y="958" name="top"/>
	<anchor x="1159" y="0" name="bottom"/>
	<outline>
		<contour>
			<point x="674" y="-30" type="curve" smooth="yes"/>
			<point x="942" y="-30"/>
			<point x="1101" y="64"/>
			<point x="1173" y="236" type="curve"/>
			<point x="1183" y="236" type="line"/>
			<point x="1247" y="78"/>
			<point x="1433" y="-32"/>
			<point x="1715" y="-32" type="curve" smooth="yes"/>
			<point x="1895" y="-32"/>
			<point x="2053" y="12"/>
			<point x="2177" y="84" type="curve"/>
			<point x="2201" y="266" type="line"/>
			<point x="2059" y="191"/>
			<point x="1902" y="146"/>
			<point x="1726" y="146" type="curve" smooth="yes"/>
			<point x="1445" y="146"/>
			<point x="1296" y="265"/>
			<point x="1296" y="444" type="curve" smooth="yes"/>
			<point x="1296" y="481" type="line"/>
			<point x="1296" y="494" type="line"/>
			<point x="1296" y="520" type="line" smooth="yes"/>
			<point x="1296" y="695"/>
			<point x="1414" y="819"/>
			<point x="1650" y="819" type="curve" smooth="yes"/>
			<point x="1890" y="819"/>
			<point x="2013" y="710"/>
			<point x="2013" y="527" type="curve" smooth="yes"/>
			<point x="2013" y="487"/>
			<point x="2011" y="440"/>
			<point x="2006" y="404" type="curve"/>
			<point x="2210" y="404" type="line"/>
			<point x="2216" y="434"/>
			<point x="2221" y="475"/>
			<point x="2221" y="513" type="curve" smooth="yes"/>
			<point x="2221" y="519" type="line" smooth="yes"/>
			<point x="2221" y="802"/>
			<point x="2028" y="990"/>
			<point x="1669" y="990" type="curve" smooth="yes"/>
			<point x="1410" y="990"/>
			<point x="1250" y="892"/>
			<point x="1183" y="724" type="curve"/>
			<point x="1173" y="724" type="line"/>
			<point x="1105" y="892"/>
			<point x="942" y="990"/>
			<point x="671" y="990" type="curve" smooth="yes"/>
			<point x="312" y="990"/>
			<point x="101" y="813"/>
			<point x="101" y="493" type="curve"/>
			<point x="101" y="468" type="line"/>
			<point x="101" y="148"/>
			<point x="312" y="-30"/>
		</contour>
		<contour>
			<point x="1168" y="404" type="line"/>
			<point x="2169" y="404" type="line"/>
			<point x="2169" y="566" type="line"/>
			<point x="1168" y="566" type="line"/>
		</contour>
		<contour>
			<point x="704" y="143" type="curve" smooth="yes"/>
			<point x="458" y="143"/>
			<point x="320" y="259"/>
			<point x="320" y="468" type="curve" smooth="yes"/>
			<point x="320" y="493" type="line" smooth="yes"/>
			<point x="320" y="702"/>
			<point x="458" y="817"/>
			<point x="704" y="817" type="curve" smooth="yes"/>
			<point x="952" y="817"/>
			<point x="1089" y="702"/>
			<point x="1089" y="493" type="curve" smooth="yes"/>
			<point x="1089" y="468" type="line" smooth="yes"/>
			<point x="1089" y="259"/>
			<point x="951" y="143"/>
		</contour>
	</outline>
</glyph>
<glyph name="gravecomb" format="2">
	<advance width="0"/>
	<unicode hex="0300"/>
	<anchor x="-343" y="1348" name="top"/>
	<anchor x="-192" y="958" name="_top"/>
	<outline>
		<contour>
			<point x="-352" y="1387" type="line"/>
			<point x="-605" y="1387" type="line"/>
			<point x="-605" y="1381" type="line"/>
			<point x="-296" y="1094" type="line"/>
			<point x="-92" y="1094" type="line"/>
			<point x="-92" y="1099" type="line"/>
		</contour>
	</outline>
</glyph>
<glyph name="acutecomb" format="2">
  <unicode hex="0301"/>
  <anchor x="192" y="958" name="_top"/>
  <anchor x="192" y="1348" name="top"/>
  <outline>
    <contour>
      <point x="352" y="1387" type="line"/>
      <point x="92" y="1099" type="line"/>
      <point x="92" y="1094" type="line"/>
      <point x="296" y="1094" type="line"/>
      <point x="605" y="1381" type="line"/>
      <point x="605" y="1387" type="line"/>
    </contour>
  </outline>
</glyph>
<glyph name="circumflexcomb" format="2">
	<advance width="0"/>
	<unicode hex="0302"/>
	<anchor x="-471" y="1346" name="top"/>
	<anchor x="-471" y="958" name="_top"/>
	<outline>
		<contour>
			<point x="-584" y="1387" type="line"/>
			<point x="-843" y="1099" type="line"/>
			<point x="-843" y="1094" type="line"/>
			<point x="-660" y="1094" type="line"/>
			<point x="-475" y="1270" type="line"/>
			<point x="-467" y="1270" type="line"/>
			<point x="-283" y="1094" type="line"/>
			<point x="-100" y="1094" type="line"/>
			<point x="-100" y="1099" type="line"/>
			<point x="-359" y="1387" type="line"/>
		</contour>
	</outline>
</glyph>
<glyph name="tildecomb" format="2">
	<advance width="0"/>
	<unicode hex="0303"/>
	<anchor x="-454" y="1343" name="top"/>
	<anchor x="-454" y="958" name="_top"/>
	<outline>
		<contour>
			<point x="-292" y="1111" type="curve" smooth="yes"/>
			<point x="-152" y="1111"/>
			<point x="-100" y="1192"/>
			<point x="-100" y="1326" type="curve" smooth="yes"/>
			<point x="-100" y="1361" type="line"/>
			<point x="-239" y="1361" type="line"/>
			<point x="-239" y="1348" type="line" smooth="yes"/>
			<point x="-239" y="1293"/>
			<point x="-257" y="1264"/>
			<point x="-304" y="1264" type="curve" smooth="yes"/>
			<point x="-393" y="1264"/>
			<point x="-492" y="1349"/>
			<point x="-617" y="1349" type="curve" smooth="yes"/>
			<point x="-758" y="1349"/>
			<point x="-809" y="1266"/>
			<point x="-809" y="1134" type="curve" smooth="yes"/>
			<point x="-809" y="1099" type="line"/>
			<point x="-671" y="1099" type="line"/>
			<point x="-671" y="1112" type="line" smooth="yes"/>
			<point x="-671" y="1167"/>
			<point x="-652" y="1196"/>
			<point x="-605" y="1196" type="curve" smooth="yes"/>
			<point x="-517" y="1196"/>
			<point x="-415" y="1111"/>
		</contour>
	</outline>
</glyph>
<glyph name="dotaccentcomb" format="2">
  <unicode hex="0307"/>
  <anchor x="230" y="958" name="_top"/>
  <anchor x="230" y="1341" name="top"/>
  <outline>
    <contour>
      <point x="229" y="1122" type="curve" smooth="yes"/>
      <point x="317" y="1122"/>
      <point x="359" y="1163"/>
      <point x="359" y="1231" type="curve" smooth="yes"/>
      <point x="359" y="1236" type="line" smooth="yes"/>
      <point x="359" y="1303"/>
      <point x="317" y="1346"/>
      <point x="229" y="1346" type="curve" smooth="yes"/>
      <point x="143" y="1346"/>
      <point x="100" y="1303"/>
      <point x="100" y="1236" type="curve" smooth="yes"/>
      <point x="100" y="1231" type="line" smooth="yes"/>
      <point x="100" y="1163"/>
      <point x="143" y="1122"/>
    </contour>
  </outline>
</glyph>
<glyph name="dieresiscomb" format="2">
	<advance width="0"/>
	<unicode hex="0308"/>
	<anchor x="-412" y="1338" name="top"/>
	<anchor x="-412" y="958" name="_top"/>
	<outline>
		<contour>
			<point x="-604" y="1125" type="curve" smooth="yes"/>
			<point x="-518" y="1125"/>
			<point x="-477" y="1165"/>
			<point x="-477" y="1233" type="curve" smooth="yes"/>
			<point x="-477" y="1236" type="line" smooth="yes"/>
			<point x="-477" y="1302"/>
			<point x="-518" y="1343"/>
			<point x="-604" y="1343" type="curve" smooth="yes"/>
			<point x="-689" y="1343"/>
			<point x="-729" y="1302"/>
			<point x="-729" y="1236" type="curve" smooth="yes"/>
			<point x="-729" y="1233" type="line" smooth="yes"/>
			<point x="-729" y="1166"/>
			<point x="-689" y="1125"/>
		</contour>
		<contour>
			<point x="-223" y="1125" type="curve" smooth="yes"/>
			<point x="-137" y="1125"/>
			<point x="-96" y="1165"/>
			<point x="-96" y="1233" type="curve" smooth="yes"/>
			<point x="-96" y="1236" type="line" smooth="yes"/>
			<point x="-96" y="1302"/>
			<point x="-137" y="1343"/>
			<point x="-223" y="1343" type="curve" smooth="yes"/>
			<point x="-308" y="1343"/>
			<point x="-348" y="1302"/>
			<point x="-348" y="1236" type="curve" smooth="yes"/>
			<point x="-348" y="1233" type="line" smooth="yes"/>
			<point x="-348" y="1166"/>
			<point x="-308" y="1125"/>
		</contour>
	</outline>
</glyph>
<glyph name="ringcomb" format="2">
	<advance width="0"/>
	<unicode hex="030A"/>
	<anchor x="-325" y="1413" name="top"/>
	<anchor x="-325" y="958" name="_top"/>
	<outline>
		<contour>
			<point x="-551" y="1262" type="curve" smooth="yes"/>
			<point x="-551" y="1258" type="line"/>
			<point x="-551" y="1147"/>
			<point x="-477" y="1075"/>
			<point x="-325" y="1075" type="curve" smooth="yes"/>
			<point x="-174" y="1075"/>
			<point x="-100" y="1147"/>
			<point x="-100" y="1258" type="curve" smooth="yes"/>
			<point x="-100" y="1262" type="line" smooth="yes"/>
			<point x="-100" y="1374"/>
			<point x="-174" y="1445"/>
			<point x="-325" y="1445" type="curve" smooth="yes"/>
			<point x="-477" y="1445"/>
			<point x="-551" y="1374"/>
		</contour>
		<contour>
			<point x="-423" y="1259" type="curve" smooth="yes"/>
			<point x="-423" y="1262" type="line" smooth="yes"/>
			<point x="-423" y="1313"/>
			<point x="-389" y="1341"/>
			<point x="-325" y="1341" type="curve" smooth="yes"/>
			<point x="-261" y="1341"/>
			<point x="-227" y="1313"/>
			<point x="-227" y="1262" type="curve" smooth="yes"/>
			<point x="-227" y="1259" type="line" smooth="yes"/>
			<point x="-227" y="1208"/>
			<point x="-261" y="1179"/>
			<point x="-325" y="1179" type="curve" smooth="yes"/>
			<point x="-389" y="1179"/>
			<point x="-423" y="1208"/>
		</contour>
	</outline>
</glyph>
<glyph name="cedillacomb" format="2">
	<advance width="0"/>
	<unicode hex="0327"/>
	<anchor x="-348" y="0" name="_bottom"/>
	<anchor x="-290" y="-439" name="bottom"/>
	<outline>
		<contour>
			<point x="-263" y="20" type="line"/>
			<point x="-423" y="20" type="line"/>
			<point x="-457" y="-187" type="line"/>
			<point x="-448" y="-187"/>
			<point x="-440" y="-187"/>
			<point x="-414" y="-188" type="curve" smooth="yes"/>
			<point x="-269" y="-193"/>
			<point x="-219" y="-208"/>
			<point x="-219" y="-249" type="curve" smooth="yes"/>
			<point x="-219" y="-251" type="line" smooth="yes"/>
			<point x="-219" y="-291"/>
			<point x="-268" y="-305"/>
			<point x="-347" y="-305" type="curve" smooth="yes"/>
			<point x="-422" y="-305"/>
			<point x="-488" y="-294"/>
			<point x="-545" y="-277" type="curve"/>
			<point x="-516" y="-414" type="line"/>
			<point x="-467" y="-427"/>
			<point x="-393" y="-439"/>
			<point x="-321" y="-439" type="curve" smooth="yes"/>
			<point x="-139" y="-439"/>
			<point x="-46" y="-384"/>
			<point x="-46" y="-263" type="curve" smooth="yes"/>
			<point x="-46" y="-257" type="line" smooth="yes"/>
			<point x="-46" y="-152"/>
			<point x="-117" y="-98"/>
			<point x="-285" y="-91" type="curve" smooth="yes"/>
			<point x="-315" y="-90"/>
			<point x="-345" y="-90"/>
			<point x="-375" y="-90" type="curve"/>
			<point x="-296" y="-155" type="line"/>
		</contour>
	</outline>
</glyph>
<glyph name="Danda.bn" format="2">
  <advance width="866"/>
  <unicode hex="0964"/>
  <outline>
    <contour>
      <point x="331" y="1289" type="line"/>
      <point x="331" y="-60" type="line"/>
      <point x="534" y="-60" type="line"/>
      <point x="534" y="1289" type="line"/>
    </contour>
  </outline>
</glyph>
<glyph name="Doubledanda.bn" format="2">
  <advance width="1638"/>
  <unicode hex="0965"/>
  <outline>
    <contour>
      <point x="331" y="1289" type="line"/>
      <point x="331" y="-60" type="line"/>
      <point x="534" y="-60" type="line"/>
      <point x="534" y="1289" type="line"/>
    </contour>
    <contour>
      <point x="1103" y="1289" type="line"/>
      <point x="1103" y="-60" type="line"/>
      <point x="1306" y="-60" type="line"/>
      <point x="1306" y="1289" type="line"/>
    </contour>
  </outline>
</glyph>
<glyph name="anji.bn" format="2">
  <advance width="1622"/>
  <unicode hex="0980"/>
  <outline>
    <contour>
      <point x="787" y="1247" type="curve" smooth="yes"/>
      <point x="565" y="1247"/>
      <point x="354" y="1185"/>
      <point x="230" y="1059" type="curve" smooth="yes"/>
      <point x="158" y="988"/>
      <point x="114" y="895"/>
      <point x="114" y="781" type="curve" smooth="yes"/>
      <point x="114" y="546"/>
      <point x="290" y="415"/>
      <point x="623" y="417" type="curve" smooth="yes"/>
      <point x="903" y="419" type="line"/>
      <point x="917" y="577" type="line"/>
      <point x="619" y="576" type="line" smooth="yes"/>
      <point x="432" y="575"/>
      <point x="322" y="639"/>
      <point x="322" y="777" type="curve" smooth="yes"/>
      <point x="322" y="861"/>
      <point x="362" y="928"/>
      <point x="425" y="978" type="curve" smooth="yes"/>
      <point x="514" y="1048"/>
      <point x="651" y="1083"/>
      <point x="789" y="1083" type="curve" smooth="yes"/>
      <point x="1060" y="1083"/>
      <point x="1166" y="972"/>
      <point x="1166" y="777" type="curve" smooth="yes"/>
      <point x="1166" y="250" type="line"/>
      <point x="1369" y="255" type="line"/>
      <point x="1369" y="776" type="line" smooth="yes"/>
      <point x="1369" y="1090"/>
      <point x="1169" y="1247"/>
    </contour>
    <contour>
      <point x="1379" y="278" type="line"/>
      <point x="1176" y="278" type="line"/>
      <point x="1176" y="223" type="line" smooth="yes"/>
      <point x="1176" y="15"/>
      <point x="1309" y="-79"/>
      <point x="1532" y="-79" type="curve" smooth="yes"/>
      <point x="1610" y="-79" type="line"/>
      <point x="1597" y="83" type="line"/>
      <point x="1531" y="83" type="line" smooth="yes"/>
      <point x="1427" y="83"/>
      <point x="1379" y="135"/>
      <point x="1379" y="223" type="curve" smooth="yes"/>
    </contour>
  </outline>
</glyph>
<glyph name="Candrabindu.bn" format="2">
  <unicode hex="0981"/>
  <anchor x="-348" y="1774" name="_top2"/>
  <outline>
    <contour>
      <point x="558" y="1777" type="curve"/>
      <point x="402" y="1777" type="line"/>
      <point x="402" y="1760" type="line" smooth="yes"/>
      <point x="402" y="1637"/>
      <point x="297" y="1577"/>
      <point x="93" y="1577" type="curve" smooth="yes"/>
      <point x="-107" y="1577"/>
      <point x="-213" y="1637"/>
      <point x="-213" y="1760" type="curve" smooth="yes"/>
      <point x="-213" y="1777" type="line"/>
      <point x="-371" y="1777" type="line"/>
      <point x="-371" y="1763"/>
      <point x="-372" y="1750"/>
      <point x="-372" y="1743" type="curve" smooth="yes"/>
      <point x="-372" y="1528"/>
      <point x="-213" y="1410"/>
      <point x="93" y="1410" type="curve" smooth="yes"/>
      <point x="402" y="1410"/>
      <point x="559" y="1528"/>
      <point x="559" y="1743" type="curve" smooth="yes"/>
      <point x="559" y="1750"/>
      <point x="559" y="1762"/>
    </contour>
    <contour>
      <point x="94" y="1695" type="curve" smooth="yes"/>
      <point x="186" y="1695"/>
      <point x="235" y="1742"/>
      <point x="235" y="1811" type="curve" smooth="yes"/>
      <point x="235" y="1815" type="line" smooth="yes"/>
      <point x="235" y="1885"/>
      <point x="186" y="1933"/>
      <point x="94" y="1933" type="curve" smooth="yes"/>
      <point x="2" y="1933"/>
      <point x="-48" y="1886"/>
      <point x="-48" y="1815" type="curve" smooth="yes"/>
      <point x="-48" y="1811" type="line" smooth="yes"/>
      <point x="-48" y="1742"/>
      <point x="2" y="1695"/>
    </contour>
  </outline>
</glyph>
<glyph name="Anuswara.bn" format="2">
	<advance width="1358"/>
	<unicode hex="0982"/>
	<outline>
		<contour>
			<point x="1217" y="-84" type="line"/>
			<point x="1233" y="97" type="line"/>
			<point x="191" y="452" type="line"/>
			<point x="175" y="272" type="line"/>
		</contour>
		<contour>
			<point x="658" y="592" type="curve" smooth="yes"/>
			<point x="980" y="592"/>
			<point x="1149" y="706"/>
			<point x="1149" y="917" type="curve" smooth="yes"/>
			<point x="1149" y="920" type="line" smooth="yes"/>
			<point x="1149" y="1128"/>
			<point x="978" y="1248"/>
			<point x="658" y="1248" type="curve" smooth="yes"/>
			<point x="333" y="1248"/>
			<point x="165" y="1128"/>
			<point x="165" y="920" type="curve" smooth="yes"/>
			<point x="165" y="917" type="line" smooth="yes"/>
			<point x="165" y="706"/>
			<point x="334" y="592"/>
		</contour>
		<contour>
			<point x="658" y="733" type="curve" smooth="yes"/>
			<point x="452" y="733"/>
			<point x="350" y="799"/>
			<point x="350" y="918" type="curve" smooth="yes"/>
			<point x="350" y="921" type="line" smooth="yes"/>
			<point x="350" y="1040"/>
			<point x="452" y="1107"/>
			<point x="658" y="1107" type="curve" smooth="yes"/>
			<point x="859" y="1107"/>
			<point x="964" y="1040"/>
			<point x="964" y="921" type="curve" smooth="yes"/>
			<point x="964" y="918" type="line" smooth="yes"/>
			<point x="964" y="799"/>
			<point x="859" y="733"/>
		</contour>
	</outline>
</glyph>
<glyph name="Visarga.bn" format="2">
	<advance width="1314"/>
	<unicode hex="0983"/>
	<outline>
		<contour>
			<point x="658" y="656" type="curve" smooth="yes"/>
			<point x="988" y="656"/>
			<point x="1149" y="756"/>
			<point x="1149" y="951" type="curve" smooth="yes"/>
			<point x="1149" y="954" type="line" smooth="yes"/>
			<point x="1149" y="1147"/>
			<point x="986" y="1252"/>
			<point x="658" y="1252" type="curve" smooth="yes"/>
			<point x="326" y="1252"/>
			<point x="165" y="1147"/>
			<point x="165" y="954" type="curve" smooth="yes"/>
			<point x="165" y="951" type="line" smooth="yes"/>
			<point x="165" y="756"/>
			<point x="327" y="656"/>
		</contour>
		<contour>
			<point x="658" y="801" type="curve" smooth="yes"/>
			<point x="449" y="801"/>
			<point x="350" y="853"/>
			<point x="350" y="952" type="curve" smooth="yes"/>
			<point x="350" y="955" type="line" smooth="yes"/>
			<point x="350" y="1054"/>
			<point x="449" y="1107"/>
			<point x="658" y="1107" type="curve" smooth="yes"/>
			<point x="863" y="1107"/>
			<point x="964" y="1054"/>
			<point x="964" y="955" type="curve" smooth="yes"/>
			<point x="964" y="952" type="line" smooth="yes"/>
			<point x="964" y="853"/>
			<point x="863" y="801"/>
		</contour>
		<contour>
			<point x="658" y="-26" type="curve" smooth="yes"/>
			<point x="988" y="-26"/>
			<point x="1149" y="74"/>
			<point x="1149" y="269" type="curve" smooth="yes"/>
			<point x="1149" y="272" type="line" smooth="yes"/>
			<point x="1149" y="465"/>
			<point x="986" y="570"/>
			<point x="658" y="570" type="curve" smooth="yes"/>
			<point x="326" y="570"/>
			<point x="165" y="465"/>
			<point x="165" y="272" type="curve" smooth="yes"/>
			<point x="165" y="269" type="line" smooth="yes"/>
			<point x="165" y="74"/>
			<point x="327" y="-26"/>
		</contour>
		<contour>
			<point x="658" y="119" type="curve" smooth="yes"/>
			<point x="449" y="119"/>
			<point x="350" y="171"/>
			<point x="350" y="270" type="curve" smooth="yes"/>
			<point x="350" y="273" type="line" smooth="yes"/>
			<point x="350" y="372"/>
			<point x="449" y="425"/>
			<point x="658" y="425" type="curve" smooth="yes"/>
			<point x="863" y="425"/>
			<point x="964" y="372"/>
			<point x="964" y="273" type="curve" smooth="yes"/>
			<point x="964" y="270" type="line" smooth="yes"/>
			<point x="964" y="171"/>
			<point x="863" y="119"/>
		</contour>
	</outline>
</glyph>
<glyph name="VowelA.bn" format="2">
	<advance width="2442"/>
	<unicode hex="0985"/>
	<anchor x="2000" y="1401" name="top"/>
	<anchor x="1691" y="1784" name="top2"/>
	<note>
		VowelA.bn
	</note>
	<outline>
		<contour>
			<point x="1000" y="96" type="curve" smooth="yes"/>
			<point x="1446" y="96"/>
			<point x="1678" y="249"/>
			<point x="1678" y="546" type="curve" smooth="yes"/>
			<point x="1678" y="551" type="line" smooth="yes"/>
			<point x="1678" y="800"/>
			<point x="1497" y="955"/>
			<point x="1196" y="955" type="curve" smooth="yes"/>
			<point x="881" y="955"/>
			<point x="717" y="819"/>
			<point x="717" y="576" type="curve" smooth="yes"/>
			<point x="717" y="558"/>
			<point x="719" y="536"/>
			<point x="722" y="519" type="curve"/>
			<point x="937" y="519" type="line"/>
			<point x="933" y="534"/>
			<point x="932" y="555"/>
			<point x="932" y="572" type="curve" smooth="yes"/>
			<point x="932" y="706"/>
			<point x="1023" y="784"/>
			<point x="1204" y="784" type="curve" smooth="yes"/>
			<point x="1369" y="784"/>
			<point x="1472" y="700"/>
			<point x="1472" y="558" type="curve" smooth="yes"/>
			<point x="1472" y="553" type="line" smooth="yes"/>
			<point x="1472" y="367"/>
			<point x="1307" y="270"/>
			<point x="983" y="270" type="curve" smooth="yes"/>
			<point x="567" y="270"/>
			<point x="375" y="431"/>
			<point x="349" y="725" type="curve" smooth="yes"/>
			<point x="339" y="836" type="line"/>
			<point x="141" y="836" type="line"/>
			<point x="149" y="731" type="line" smooth="yes"/>
			<point x="180" y="319"/>
			<point x="455" y="96"/>
		</contour>
		<contour>
			<point x="2052" y="-2" type="line"/>
			<point x="2228" y="-2" type="line"/>
			<point x="2228" y="1170" type="line"/>
			<point x="2025" y="1170" type="line"/>
			<point x="2025" y="299" type="line"/>
			<point x="2034" y="112" type="line"/>
			<point x="2096" y="175" type="line"/>
			<point x="2051" y="172" type="line"/>
			<point x="1444" y="366" type="line"/>
			<point x="1363" y="213" type="line"/>
		</contour>
		<contour>
			<point x="-60" y="1066" type="line"/>
			<point x="2216" y="1066" type="line"/>
			<point x="2214" y="1228" type="line"/>
			<point x="-73" y="1228" type="line"/>
		</contour>
		<contour>
			<point x="2153" y="1160" type="line"/>
			<point x="2153" y="812" type="line"/>
			<point x="2228" y="812" type="line"/>
			<point x="2228" y="1160" type="line"/>
		</contour>
		<contour>
			<point x="2153" y="1066" type="line"/>
			<point x="2501" y="1066" type="line"/>
			<point x="2488" y="1228" type="line"/>
			<point x="2153" y="1228" type="line"/>
		</contour>
	</outline>
</glyph>
<glyph name="VowelAa.bn" format="2">
	<advance width="3086"/>
	<unicode hex="0986"/>
	<anchor x="2644" y="1401" name="top"/>
	<anchor x="2335" y="1784" name="top2"/>
	<note>
		VowelAa.bn
	</note>
	<outline>
		<contour>
			<point x="1000" y="96" type="curve" smooth="yes"/>
			<point x="1446" y="96"/>
			<point x="1678" y="249"/>
			<point x="1678" y="546" type="curve" smooth="yes"/>
			<point x="1678" y="551" type="line" smooth="yes"/>
			<point x="1678" y="800"/>
			<point x="1497" y="955"/>
			<point x="1196" y="955" type="curve" smooth="yes"/>
			<point x="881" y="955"/>
			<point x="717" y="819"/>
			<point x="717" y="576" type="curve" smooth="yes"/>
			<point x="717" y="558"/>
			<point x="719" y="536"/>
			<point x="722" y="519" type="curve"/>
			<point x="937" y="519" type="line"/>
			<point x="933" y="534"/>
			<point x="932" y="555"/>
			<point x="932" y="572" type="curve" smooth="yes"/>
			<point x="932" y="706"/>
			<point x="1023" y="784"/>
			<point x="1204" y="784" type="curve" smooth="yes"/>
			<point x="1369" y="784"/>
			<point x="1472" y="700"/>
			<point x="1472" y="558" type="curve" smooth="yes"/>
			<point x="1472" y="553" type="line" smooth="yes"/>
			<point x="1472" y="367"/>
			<point x="1307" y="270"/>
			<point x="983" y="270" type="curve" smooth="yes"/>
			<point x="567" y="270"/>
			<point x="375" y="431"/>
			<point x="349" y="725" type="curve" smooth="yes"/>
			<point x="339" y="836" type="line"/>
			<point x="141" y="836" type="line"/>
			<point x="149" y="731" type="line" smooth="yes"/>
			<point x="180" y="319"/>
			<point x="455" y="96"/>
		</contour>
		<contour>
			<point x="2052" y="-2" type="line"/>
			<point x="2228" y="-2" type="line"/>
			<point x="2228" y="1170" type="line"/>
			<point x="2025" y="1170" type="line"/>
			<point x="2025" y="299" type="line"/>
			<point x="2034" y="112" type="line"/>
			<point x="2096" y="175" type="line"/>
			<point x="2051" y="172" type="line"/>
			<point x="1444" y="366" type="line"/>
			<point x="1363" y="213" type="line"/>
		</contour>
		<contour>
			<point x="-60" y="1066" type="line"/>
			<point x="2216" y="1066" type="line"/>
			<point x="2214" y="1228" type="line"/>
			<point x="-73" y="1228" type="line"/>
		</contour>
		<contour>
			<point x="2153" y="1160" type="line"/>
			<point x="2153" y="812" type="line"/>
			<point x="2228" y="812" type="line"/>
			<point x="2228" y="1160" type="line"/>
		</contour>
		<contour>
			<point x="2153" y="1066" type="line"/>
			<point x="2501" y="1066" type="line"/>
			<point x="2488" y="1228" type="line"/>
			<point x="2153" y="1228" type="line"/>
		</contour>
		<contour>
			<point x="2669" y="0" type="line"/>
			<point x="2872" y="0" type="line"/>
			<point x="2872" y="1102" type="line"/>
			<point x="2669" y="1102" type="line"/>
		</contour>
		<contour>
			<point x="2408" y="1066" type="line"/>
			<point x="2860" y="1066" type="line"/>
			<point x="2860" y="1228" type="line"/>
			<point x="2395" y="1228" type="line"/>
		</contour>
		<contour>
			<point x="2797" y="1160" type="line"/>
			<point x="2797" y="812" type="line"/>
			<point x="2872" y="812" type="line"/>
			<point x="2872" y="1160" type="line"/>
		</contour>
		<contour>
			<point x="2797" y="1066" type="line"/>
			<point x="3145" y="1066" type="line"/>
			<point x="3132" y="1228" type="line"/>
			<point x="2797" y="1228" type="line"/>
		</contour>
	</outline>
</glyph>
<glyph name="VowelIi.bn" format="2">
	<advance width="1972"/>
	<unicode hex="0988"/>
	<anchor x="1320.2" y="1528" name="top"/>
	<anchor x="1580.2" y="1521" name="top2"/>
	<outline>
		<contour>
			<point x="1555" y="-62" type="line"/>
			<point x="1758" y="-62" type="line"/>
			<point x="1758" y="849" type="line"/>
			<point x="1557" y="849" type="line"/>
			<point x="1365" y="723"/>
			<point x="1126" y="529"/>
			<point x="966" y="405" type="curve"/>
			<point x="1067" y="365" type="line"/>
			<point x="1118" y="408"/>
			<point x="1143" y="488"/>
			<point x="1143" y="575" type="curve" smooth="yes"/>
			<point x="1143" y="580" type="line" smooth="yes"/>
			<point x="1143" y="826"/>
			<point x="984" y="961"/>
			<point x="669" y="961" type="curve" smooth="yes"/>
			<point x="355" y="961"/>
			<point x="189" y="830"/>
			<point x="189" y="582" type="curve" smooth="yes"/>
			<point x="189" y="562"/>
			<point x="191" y="537"/>
			<point x="195" y="520" type="curve"/>
			<point x="401" y="520" type="line"/>
			<point x="397" y="537"/>
			<point x="395" y="559"/>
			<point x="395" y="578" type="curve" smooth="yes"/>
			<point x="395" y="720"/>
			<point x="495" y="791"/>
			<point x="674" y="791" type="curve" smooth="yes"/>
			<point x="858" y="791"/>
			<point x="956" y="718"/>
			<point x="956" y="584" type="curve" smooth="yes"/>
			<point x="956" y="579" type="line" smooth="yes"/>
			<point x="956" y="424"/>
			<point x="853" y="307"/>
			<point x="518" y="307" type="curve" smooth="yes"/>
			<point x="406" y="307"/>
			<point x="314" y="320"/>
			<point x="240" y="338" type="curve" smooth="yes"/>
			<point x="182" y="352" type="line"/>
			<point x="181" y="184" type="line"/>
			<point x="282" y="156"/>
			<point x="434" y="142"/>
			<point x="544" y="142" type="curve" smooth="yes"/>
			<point x="748" y="142"/>
			<point x="903" y="187"/>
			<point x="1012" y="255" type="curve" smooth="yes"/>
			<point x="1187" y="369"/>
			<point x="1482" y="596"/>
			<point x="1689" y="728" type="curve"/>
			<point x="1569" y="796" type="line"/>
			<point x="1555" y="476" type="line"/>
		</contour>
		<contour>
			<point x="-92" y="1066" type="line"/>
			<point x="2018" y="1066" type="line"/>
			<point x="2005" y="1228" type="line"/>
			<point x="-105" y="1228" type="line"/>
		</contour>
		<contour>
			<point x="1795" y="1281" type="line"/>
			<point x="1798" y="1295"/>
			<point x="1800" y="1313"/>
			<point x="1800" y="1329" type="curve" smooth="yes"/>
			<point x="1800" y="1516"/>
			<point x="1664" y="1618"/>
			<point x="1416" y="1618" type="curve" smooth="yes"/>
			<point x="598" y="1618" type="line" smooth="yes"/>
			<point x="455" y="1618"/>
			<point x="399" y="1658"/>
			<point x="390" y="1759" type="curve" smooth="yes"/>
			<point x="388" y="1781" type="line"/>
			<point x="209" y="1781" type="line"/>
			<point x="209" y="1758" type="line" smooth="yes"/>
			<point x="209" y="1553"/>
			<point x="333" y="1461"/>
			<point x="607" y="1461" type="curve" smooth="yes"/>
			<point x="1407" y="1461" type="line" smooth="yes"/>
			<point x="1546" y="1461"/>
			<point x="1607" y="1418"/>
			<point x="1607" y="1317" type="curve" smooth="yes"/>
			<point x="1607" y="1274"/>
			<point x="1595" y="1238"/>
			<point x="1570" y="1208" type="curve"/>
			<point x="1624" y="1204" type="line"/>
		</contour>
	</outline>
</glyph>
<glyph name="VowelUu.bn" format="2">
	<advance width="2129"/>
	<unicode hex="098A"/>
	<anchor x="1485.7" y="1528" name="top"/>
	<anchor x="1745.7" y="1521" name="top2"/>
	<outline>
		<contour>
			<point x="994" y="1178" type="line"/>
			<point x="994" y="864" type="line" smooth="yes"/>
			<point x="994" y="625"/>
			<point x="1106" y="510"/>
			<point x="1357" y="510" type="curve" smooth="yes"/>
			<point x="1489" y="510"/>
			<point x="1608" y="554"/>
			<point x="1736" y="637" type="curve" smooth="yes"/>
			<point x="1860" y="718" type="line"/>
			<point x="1751" y="734" type="line"/>
			<point x="1768" y="675"/>
			<point x="1774" y="611"/>
			<point x="1774" y="552" type="curve" smooth="yes"/>
			<point x="1774" y="299"/>
			<point x="1566" y="185"/>
			<point x="1237" y="185" type="curve" smooth="yes"/>
			<point x="865" y="185"/>
			<point x="730" y="395"/>
			<point x="699" y="713" type="curve" smooth="yes"/>
			<point x="685" y="855" type="line"/>
			<point x="489" y="855" type="line"/>
			<point x="502" y="715" type="line" smooth="yes"/>
			<point x="532" y="391"/>
			<point x="704" y="178"/>
			<point x="976" y="97" type="curve"/>
			<point x="775" y="247" type="line"/>
			<point x="733" y="166" type="line"/>
			<point x="938" y="149" type="line"/>
			<point x="547" y="229"/>
			<point x="402" y="410"/>
			<point x="363" y="666" type="curve" smooth="yes"/>
			<point x="349" y="758" type="line"/>
			<point x="153" y="758" type="line"/>
			<point x="168" y="649" type="line" smooth="yes"/>
			<point x="226" y="229"/>
			<point x="550" y="10"/>
			<point x="1203" y="10" type="curve" smooth="yes"/>
			<point x="1712" y="10"/>
			<point x="1979" y="188"/>
			<point x="1979" y="551" type="curve" smooth="yes"/>
			<point x="1979" y="651"/>
			<point x="1963" y="728"/>
			<point x="1934" y="816" type="curve"/>
			<point x="1753" y="844" type="line"/>
			<point x="1645" y="779" type="line" smooth="yes"/>
			<point x="1531" y="711"/>
			<point x="1455" y="679"/>
			<point x="1358" y="679" type="curve" smooth="yes"/>
			<point x="1250" y="679"/>
			<point x="1197" y="741"/>
			<point x="1197" y="861" type="curve" smooth="yes"/>
			<point x="1197" y="1177" type="line"/>
		</contour>
		<contour>
			<point x="-58" y="1064" type="line"/>
			<point x="2181" y="1064" type="line"/>
			<point x="2168" y="1228" type="line"/>
			<point x="-71" y="1228" type="line"/>
		</contour>
		<contour>
			<point x="1961" y="1281" type="line"/>
			<point x="1964" y="1295"/>
			<point x="1966" y="1313"/>
			<point x="1966" y="1329" type="curve" smooth="yes"/>
			<point x="1966" y="1516"/>
			<point x="1830" y="1618"/>
			<point x="1582" y="1618" type="curve" smooth="yes"/>
			<point x="610" y="1618" type="line" smooth="yes"/>
			<point x="468" y="1618"/>
			<point x="412" y="1658"/>
			<point x="403" y="1759" type="curve" smooth="yes"/>
			<point x="401" y="1781" type="line"/>
			<point x="221" y="1781" type="line"/>
			<point x="221" y="1758" type="line" smooth="yes"/>
			<point x="221" y="1553"/>
			<point x="345" y="1461"/>
			<point x="619" y="1461" type="curve" smooth="yes"/>
			<point x="1573" y="1461" type="line" smooth="yes"/>
			<point x="1712" y="1461"/>
			<point x="1773" y="1418"/>
			<point x="1773" y="1317" type="curve" smooth="yes"/>
			<point x="1773" y="1274"/>
			<point x="1761" y="1238"/>
			<point x="1736" y="1208" type="curve"/>
			<point x="1790" y="1204" type="line"/>
		</contour>
	</outline>
</glyph>
<glyph name="VowelRu.bn" format="2">
	<advance width="2198"/>
	<unicode hex="098B"/>
	<anchor x="857" y="1784" name="top2"/>
	<outline>
		<contour>
			<point x="1233" y="-2" type="line"/>
			<point x="1408" y="-2" type="line"/>
			<point x="1408" y="1228" type="line"/>
			<point x="1211" y="1228" type="line"/>
			<point x="1211" y="1021" type="line"/>
			<point x="1218" y="847" type="line"/>
			<point x="1205" y="795" type="line"/>
			<point x="1205" y="299" type="line"/>
			<point x="1215" y="113" type="line"/>
			<point x="1230" y="170" type="line"/>
			<point x="364" y="387" type="line"/>
			<point x="407" y="323" type="line"/>
			<point x="407" y="563" type="line"/>
			<point x="367" y="520" type="line"/>
			<point x="675" y="602"/>
			<point x="1019" y="672"/>
			<point x="1354" y="735" type="curve"/>
			<point x="1342" y="905" type="line"/>
			<point x="1249" y="890"/>
			<point x="1159" y="873"/>
			<point x="1069" y="856" type="curve"/>
			<point x="1045" y="856" type="line"/>
			<point x="742" y="794"/>
			<point x="459" y="728"/>
			<point x="205" y="658" type="curve"/>
			<point x="205" y="249" type="line"/>
		</contour>
		<contour>
			<point x="975" y="808" type="curve"/>
			<point x="1154" y="848" type="line"/>
			<point x="1067" y="978"/>
			<point x="973" y="1105"/>
			<point x="873" y="1225" type="curve"/>
			<point x="725" y="1240" type="line"/>
			<point x="634" y="1157" type="line" smooth="yes"/>
			<point x="549" y="1080"/>
			<point x="467" y="1048"/>
			<point x="368" y="1048" type="curve" smooth="yes"/>
			<point x="250" y="1048"/>
			<point x="197" y="1101"/>
			<point x="186" y="1209" type="curve" smooth="yes"/>
			<point x="184" y="1228" type="line"/>
			<point x="-10" y="1228" type="line"/>
			<point x="-10" y="1214" type="line" smooth="yes"/>
			<point x="-10" y="1001"/>
			<point x="121" y="880"/>
			<point x="360" y="880" type="curve" smooth="yes"/>
			<point x="507" y="880"/>
			<point x="620" y="918"/>
			<point x="732" y="1009" type="curve" smooth="yes"/>
			<point x="832" y="1090" type="line"/>
			<point x="722" y="1133" type="line"/>
			<point x="813" y="1029"/>
			<point x="897" y="923"/>
		</contour>
		<contour>
			<point x="1817" y="120" type="line"/>
			<point x="1989" y="120" type="line"/>
			<point x="1989" y="1228" type="line"/>
			<point x="1788" y="1228" type="line"/>
			<point x="1788" y="420" type="line"/>
			<point x="1797" y="233" type="line"/>
			<point x="1812" y="294" type="line"/>
			<point x="1287" y="453" type="line"/>
			<point x="1287" y="275" type="line"/>
		</contour>
	</outline>
</glyph>
<glyph name="VowelLru.bn" format="2">
	<advance width="1816"/>
	<unicode hex="098C"/>
	<anchor x="694" y="1576" name="top2"/>
	<outline>
		<contour>
			<point x="156" y="0" type="curve"/>
			<point x="357" y="0" type="line"/>
			<point x="357" y="54"/>
			<point x="357" y="108"/>
			<point x="357" y="161" type="curve" smooth="yes"/>
			<point x="357" y="191" type="line" smooth="yes"/>
			<point x="357" y="362"/>
			<point x="455" y="457"/>
			<point x="630" y="457" type="curve" smooth="yes"/>
			<point x="799" y="457"/>
			<point x="894" y="361"/>
			<point x="894" y="189" type="curve" smooth="yes"/>
			<point x="894" y="0" type="line"/>
			<point x="1127" y="0" type="line" smooth="yes"/>
			<point x="1471" y="0"/>
			<point x="1692" y="160"/>
			<point x="1692" y="455" type="curve" smooth="yes"/>
			<point x="1692" y="463" type="line" smooth="yes"/>
			<point x="1692" y="788"/>
			<point x="1460" y="971"/>
			<point x="998" y="1016" type="curve" smooth="yes"/>
			<point x="698" y="1045" type="line" smooth="yes"/>
			<point x="492" y="1066"/>
			<point x="418" y="1117"/>
			<point x="413" y="1227" type="curve" smooth="yes"/>
			<point x="412" y="1252" type="line"/>
			<point x="212" y="1252" type="line"/>
			<point x="212" y="1222" type="line" smooth="yes"/>
			<point x="212" y="1016"/>
			<point x="362" y="910"/>
			<point x="660" y="878" type="curve" smooth="yes"/>
			<point x="959" y="847" type="line" smooth="yes"/>
			<point x="1311" y="811"/>
			<point x="1486" y="693"/>
			<point x="1486" y="469" type="curve" smooth="yes"/>
			<point x="1486" y="461" type="line" smooth="yes"/>
			<point x="1486" y="265"/>
			<point x="1349" y="164"/>
			<point x="1129" y="164" type="curve" smooth="yes"/>
			<point x="957" y="164" type="line"/>
			<point x="1084" y="49" type="line"/>
			<point x="1084" y="195" type="line" smooth="yes"/>
			<point x="1084" y="475"/>
			<point x="917" y="632"/>
			<point x="617" y="632" type="curve" smooth="yes"/>
			<point x="321" y="631"/>
			<point x="156" y="476"/>
			<point x="156" y="200" type="curve" smooth="yes"/>
			<point x="156" y="159" type="line" smooth="yes"/>
			<point x="156" y="108"/>
			<point x="156" y="55"/>
		</contour>
	</outline>
</glyph>
<glyph name="VowelE.bn" format="2">
	<advance width="1868"/>
	<unicode hex="098F"/>
	<anchor x="668" y="1784" name="top2"/>
	<outline>
		<contour>
			<point x="1140" y="567" type="curve"/>
			<point x="1157" y="737" type="line"/>
			<point x="1080" y="731"/>
			<point x="995" y="725"/>
			<point x="918" y="725" type="curve" smooth="yes"/>
			<point x="762" y="725"/>
			<point x="684" y="771"/>
			<point x="684" y="861" type="curve" smooth="yes"/>
			<point x="684" y="922"/>
			<point x="716" y="969"/>
			<point x="766" y="1003" type="curve" smooth="yes"/>
			<point x="850" y="1062"/>
			<point x="984" y="1085"/>
			<point x="1092" y="1085" type="curve" smooth="yes"/>
			<point x="1355" y="1085"/>
			<point x="1454" y="979"/>
			<point x="1454" y="772" type="curve" smooth="yes"/>
			<point x="1454" y="329" type="line"/>
			<point x="1465" y="121" type="line"/>
			<point x="1476" y="-7" type="line"/>
			<point x="1657" y="-7" type="line"/>
			<point x="1657" y="763" type="line" smooth="yes"/>
			<point x="1657" y="1096"/>
			<point x="1465" y="1256"/>
			<point x="1083" y="1256" type="curve" smooth="yes"/>
			<point x="861" y="1256"/>
			<point x="665" y="1190"/>
			<point x="559" y="1072" type="curve" smooth="yes"/>
			<point x="507" y="1013"/>
			<point x="477" y="942"/>
			<point x="477" y="860" type="curve" smooth="yes"/>
			<point x="477" y="655"/>
			<point x="611" y="552"/>
			<point x="918" y="552" type="curve" smooth="yes"/>
			<point x="1001" y="552"/>
			<point x="1071" y="558"/>
		</contour>
		<contour>
			<point x="1455" y="28" type="curve" smooth="yes"/>
			<point x="1476" y="-7" type="line"/>
			<point x="1476" y="184" type="line"/>
			<point x="1452" y="184" type="line"/>
			<point x="1420" y="268"/>
			<point x="1332" y="308"/>
			<point x="1197" y="308" type="curve" smooth="yes"/>
			<point x="605" y="308" type="line" smooth="yes"/>
			<point x="422" y="308"/>
			<point x="327" y="392"/>
			<point x="322" y="564" type="curve" smooth="yes"/>
			<point x="321" y="639" type="line"/>
			<point x="117" y="639" type="line"/>
			<point x="117" y="612"/>
			<point x="117" y="592"/>
			<point x="117" y="561" type="curve" smooth="yes"/>
			<point x="117" y="273"/>
			<point x="280" y="130"/>
			<point x="602" y="130" type="curve" smooth="yes"/>
			<point x="1206" y="130" type="line" smooth="yes"/>
			<point x="1350" y="130"/>
			<point x="1414" y="96"/>
		</contour>
	</outline>
</glyph>
<glyph name="VowelAi.bn" format="2">
  <advance width="2260"/>
  <unicode hex="0990"/>
  <anchor x="1890" y="1474" name="top2"/>
  <outline>
    <contour>
      <point x="1678" y="509" type="curve" smooth="yes"/>
      <point x="1996" y="509"/>
      <point x="2238" y="677"/>
      <point x="2238" y="1005" type="curve" smooth="yes"/>
      <point x="2238" y="1017" type="line" smooth="yes"/>
      <point x="2238" y="1374"/>
      <point x="1994" y="1546"/>
      <point x="1502" y="1603" type="curve" smooth="yes"/>
      <point x="1147" y="1644" type="line" smooth="yes"/>
      <point x="942" y="1668"/>
      <point x="871" y="1720"/>
      <point x="862" y="1832" type="curve" smooth="yes"/>
      <point x="860" y="1857" type="line"/>
      <point x="661" y="1857" type="line"/>
      <point x="661" y="1830" type="line" smooth="yes"/>
      <point x="661" y="1619"/>
      <point x="810" y="1515"/>
      <point x="1108" y="1479" type="curve" smooth="yes"/>
      <point x="1463" y="1436" type="line" smooth="yes"/>
      <point x="1867" y="1387"/>
      <point x="2030" y="1262"/>
      <point x="2030" y="1027" type="curve" smooth="yes"/>
      <point x="2030" y="1015" type="line" smooth="yes"/>
      <point x="2030" y="795"/>
      <point x="1897" y="677"/>
      <point x="1658" y="677" type="curve" smooth="yes"/>
      <point x="1619" y="677"/>
      <point x="1574" y="677"/>
      <point x="1533" y="686" type="curve"/>
      <point x="1566" y="512" type="line"/>
      <point x="1592" y="512" type="line"/>
      <point x="1612" y="510"/>
      <point x="1634" y="509"/>
    </contour>
    <contour>
      <point x="1140" y="567" type="curve"/>
      <point x="1157" y="737" type="line"/>
      <point x="1080" y="731"/>
      <point x="995" y="725"/>
      <point x="918" y="725" type="curve" smooth="yes"/>
      <point x="762" y="725"/>
      <point x="684" y="771"/>
      <point x="684" y="861" type="curve" smooth="yes"/>
      <point x="684" y="922"/>
      <point x="716" y="969"/>
      <point x="766" y="1003" type="curve" smooth="yes"/>
      <point x="850" y="1062"/>
      <point x="984" y="1085"/>
      <point x="1092" y="1085" type="curve" smooth="yes"/>
      <point x="1355" y="1085"/>
      <point x="1454" y="979"/>
      <point x="1454" y="772" type="curve" smooth="yes"/>
      <point x="1454" y="329" type="line"/>
      <point x="1465" y="121" type="line"/>
      <point x="1476" y="-7" type="line"/>
      <point x="1657" y="-7" type="line"/>
      <point x="1657" y="763" type="line" smooth="yes"/>
      <point x="1657" y="1096"/>
      <point x="1465" y="1256"/>
      <point x="1083" y="1256" type="curve" smooth="yes"/>
      <point x="861" y="1256"/>
      <point x="665" y="1190"/>
      <point x="559" y="1072" type="curve" smooth="yes"/>
      <point x="507" y="1013"/>
      <point x="477" y="942"/>
      <point x="477" y="860" type="curve" smooth="yes"/>
      <point x="477" y="655"/>
      <point x="611" y="552"/>
      <point x="918" y="552" type="curve" smooth="yes"/>
      <point x="1001" y="552"/>
      <point x="1071" y="558"/>
    </contour>
    <contour>
      <point x="1476" y="-7" type="line"/>
      <point x="1476" y="184" type="line"/>
      <point x="1452" y="184" type="line"/>
      <point x="1420" y="268"/>
      <point x="1332" y="308"/>
      <point x="1197" y="308" type="curve" smooth="yes"/>
      <point x="605" y="308" type="line" smooth="yes"/>
      <point x="422" y="308"/>
      <point x="327" y="392"/>
      <point x="322" y="564" type="curve" smooth="yes"/>
      <point x="321" y="639" type="line"/>
      <point x="117" y="639" type="line"/>
      <point x="117" y="612"/>
      <point x="117" y="592"/>
      <point x="117" y="561" type="curve" smooth="yes"/>
      <point x="117" y="273"/>
      <point x="280" y="130"/>
      <point x="602" y="130" type="curve" smooth="yes"/>
      <point x="1206" y="130" type="line" smooth="yes"/>
      <point x="1350" y="130"/>
      <point x="1414" y="96"/>
      <point x="1455" y="28" type="curve" smooth="yes"/>
    </contour>
  </outline>
</glyph>
<glyph name="VowelO.bn" format="2">
  <advance width="1663"/>
  <unicode hex="0993"/>
  <anchor x="477" y="1784" name="top2"/>
  <outline>
    <contour>
      <point x="138" y="634" type="line"/>
      <point x="147" y="545" type="line" smooth="yes"/>
      <point x="182" y="203"/>
      <point x="435" y="11"/>
      <point x="898" y="11" type="curve" smooth="yes"/>
      <point x="1305" y="11"/>
      <point x="1506" y="123"/>
      <point x="1506" y="345" type="curve" smooth="yes"/>
      <point x="1506" y="350" type="line" smooth="yes"/>
      <point x="1506" y="487"/>
      <point x="1400" y="588"/>
      <point x="1215" y="606" type="curve"/>
      <point x="1215" y="616" type="line"/>
      <point x="1391" y="641"/>
      <point x="1477" y="746"/>
      <point x="1477" y="893" type="curve" smooth="yes"/>
      <point x="1477" y="898" type="line" smooth="yes"/>
      <point x="1477" y="1127"/>
      <point x="1279" y="1256"/>
      <point x="919" y="1256" type="curve" smooth="yes"/>
      <point x="549" y="1256"/>
      <point x="344" y="1128"/>
      <point x="344" y="881" type="curve" smooth="yes"/>
      <point x="344" y="861"/>
      <point x="346" y="843"/>
      <point x="349" y="826" type="curve"/>
      <point x="554" y="826" type="line"/>
      <point x="552" y="840"/>
      <point x="550" y="855"/>
      <point x="550" y="871" type="curve" smooth="yes"/>
      <point x="550" y="1012"/>
      <point x="678" y="1085"/>
      <point x="919" y="1085" type="curve" smooth="yes"/>
      <point x="1144" y="1085"/>
      <point x="1267" y="1016"/>
      <point x="1267" y="889" type="curve" smooth="yes"/>
      <point x="1267" y="884" type="line" smooth="yes"/>
      <point x="1267" y="767"/>
      <point x="1152" y="707"/>
      <point x="939" y="703" type="curve" smooth="yes"/>
      <point x="767" y="700" type="line"/>
      <point x="767" y="522" type="line"/>
      <point x="959" y="517" type="line" smooth="yes"/>
      <point x="1190" y="511"/>
      <point x="1292" y="466"/>
      <point x="1292" y="371" type="curve" smooth="yes"/>
      <point x="1292" y="366" type="line" smooth="yes"/>
      <point x="1292" y="245"/>
      <point x="1164" y="185"/>
      <point x="897" y="185" type="curve" smooth="yes"/>
      <point x="521" y="185"/>
      <point x="378" y="333"/>
      <point x="349" y="546" type="curve" smooth="yes"/>
      <point x="337" y="634" type="line"/>
    </contour>
  </outline>
</glyph>
<glyph name="VowelAu.bn" format="2">
  <advance width="2065"/>
  <unicode hex="0994"/>
  <anchor x="1723" y="1474" name="top2"/>
  <outline>
    <contour>
      <point x="1477" y="566" type="curve" smooth="yes"/>
      <point x="1841" y="566"/>
      <point x="2043" y="736"/>
      <point x="2043" y="1031" type="curve" smooth="yes"/>
      <point x="2043" y="1036" type="line" smooth="yes"/>
      <point x="2043" y="1363"/>
      <point x="1799" y="1548"/>
      <point x="1307" y="1603" type="curve" smooth="yes"/>
      <point x="951" y="1643" type="line" smooth="yes"/>
      <point x="746" y="1666"/>
      <point x="670" y="1721"/>
      <point x="666" y="1832" type="curve" smooth="yes"/>
      <point x="665" y="1857" type="line"/>
      <point x="466" y="1857" type="line"/>
      <point x="466" y="1830" type="line" smooth="yes"/>
      <point x="466" y="1619"/>
      <point x="615" y="1516"/>
      <point x="914" y="1479" type="curve" smooth="yes"/>
      <point x="1267" y="1435" type="line" smooth="yes"/>
      <point x="1668" y="1385"/>
      <point x="1835" y="1255"/>
      <point x="1835" y="1036" type="curve" smooth="yes"/>
      <point x="1835" y="1031" type="line" smooth="yes"/>
      <point x="1835" y="822"/>
      <point x="1698" y="722"/>
      <point x="1413" y="722" type="curve" smooth="yes"/>
      <point x="1374" y="722"/>
      <point x="1303" y="722"/>
      <point x="1262" y="722" type="curve"/>
      <point x="1125" y="592" type="line"/>
      <point x="1202" y="598" type="line"/>
      <point x="1260" y="578"/>
      <point x="1368" y="566"/>
    </contour>
    <contour>
      <point x="138" y="634" type="line"/>
      <point x="147" y="545" type="line" smooth="yes"/>
      <point x="182" y="203"/>
      <point x="435" y="11"/>
      <point x="898" y="11" type="curve" smooth="yes"/>
      <point x="1305" y="11"/>
      <point x="1506" y="123"/>
      <point x="1506" y="345" type="curve" smooth="yes"/>
      <point x="1506" y="350" type="line" smooth="yes"/>
      <point x="1506" y="487"/>
      <point x="1383" y="589"/>
      <point x="1167" y="607" type="curve"/>
      <point x="1167" y="614" type="line"/>
      <point x="1376" y="639"/>
      <point x="1475" y="747"/>
      <point x="1475" y="893" type="curve" smooth="yes"/>
      <point x="1475" y="898" type="line" smooth="yes"/>
      <point x="1475" y="1127"/>
      <point x="1276" y="1256"/>
      <point x="915" y="1256" type="curve" smooth="yes"/>
      <point x="548" y="1256"/>
      <point x="344" y="1124"/>
      <point x="344" y="871" type="curve" smooth="yes"/>
      <point x="344" y="851"/>
      <point x="346" y="833"/>
      <point x="349" y="816" type="curve"/>
      <point x="554" y="816" type="line"/>
      <point x="552" y="830"/>
      <point x="550" y="845"/>
      <point x="550" y="861" type="curve" smooth="yes"/>
      <point x="550" y="1009"/>
      <point x="678" y="1085"/>
      <point x="919" y="1085" type="curve" smooth="yes"/>
      <point x="1144" y="1085"/>
      <point x="1267" y="1013"/>
      <point x="1267" y="880" type="curve" smooth="yes"/>
      <point x="1267" y="874" type="line" smooth="yes"/>
      <point x="1267" y="757"/>
      <point x="1152" y="698"/>
      <point x="939" y="694" type="curve" smooth="yes"/>
      <point x="767" y="691" type="line"/>
      <point x="767" y="530" type="line"/>
      <point x="959" y="526" type="line" smooth="yes"/>
      <point x="1190" y="521"/>
      <point x="1292" y="474"/>
      <point x="1292" y="377" type="curve" smooth="yes"/>
      <point x="1292" y="371" type="line" smooth="yes"/>
      <point x="1292" y="247"/>
      <point x="1164" y="185"/>
      <point x="897" y="185" type="curve" smooth="yes"/>
      <point x="518" y="185"/>
      <point x="374" y="333"/>
      <point x="345" y="546" type="curve" smooth="yes"/>
      <point x="333" y="634" type="line"/>
    </contour>
  </outline>
</glyph>
<glyph name="Ka.bn" format="2">
	<advance width="2222"/>
	<unicode hex="0995"/>
	<anchor x="1342" y="-2" name="bottom1"/>
	<anchor x="1097" y="1401" name="top"/>
	<anchor x="788" y="1784" name="top2"/>
	<outline>
		<contour>
			<point x="1155" y="-2" type="line"/>
			<point x="1329" y="-2" type="line"/>
			<point x="1329" y="865" type="line"/>
			<point x="1325" y="890" type="line"/>
			<point x="1325" y="1102" type="line"/>
			<point x="1131" y="1102" type="line"/>
			<point x="1131" y="897" type="line"/>
			<point x="1126" y="867" type="line"/>
			<point x="1126" y="299" type="line"/>
			<point x="1137" y="113" type="line"/>
			<point x="1149" y="176" type="line"/>
			<point x="275" y="452" type="line"/>
			<point x="367" y="338" type="line"/>
			<point x="367" y="645" type="line"/>
			<point x="274" y="566" type="line"/>
			<point x="606" y="666"/>
			<point x="947" y="731"/>
			<point x="1282" y="776" type="curve"/>
			<point x="1265" y="952" type="line"/>
			<point x="866" y="903"/>
			<point x="499" y="819"/>
			<point x="163" y="715" type="curve"/>
			<point x="163" y="303" type="line"/>
		</contour>
		<contour>
			<point x="1510" y="438" type="curve"/>
			<point x="1528" y="264" type="line"/>
			<point x="1566" y="261"/>
			<point x="1605" y="258"/>
			<point x="1643" y="258" type="curve" smooth="yes"/>
			<point x="1965" y="258"/>
			<point x="2112" y="352"/>
			<point x="2112" y="565" type="curve" smooth="yes"/>
			<point x="2112" y="570" type="line" smooth="yes"/>
			<point x="2112" y="784"/>
			<point x="1958" y="878"/>
			<point x="1548" y="917" type="curve" smooth="yes"/>
			<point x="1257" y="945" type="line"/>
			<point x="1255" y="776" type="line"/>
			<point x="1570" y="746" type="line" smooth="yes"/>
			<point x="1808" y="723"/>
			<point x="1907" y="676"/>
			<point x="1907" y="575" type="curve" smooth="yes"/>
			<point x="1907" y="570" type="line" smooth="yes"/>
			<point x="1907" y="471"/>
			<point x="1825" y="431"/>
			<point x="1641" y="431" type="curve" smooth="yes"/>
			<point x="1601" y="431"/>
			<point x="1553" y="433"/>
		</contour>
		<contour>
			<point x="-23" y="1066" type="line"/>
			<point x="2277" y="1066" type="line"/>
			<point x="2264" y="1228" type="line"/>
			<point x="-36" y="1228" type="line"/>
		</contour>
		<contour>
			<point x="1250" y="1160" type="line"/>
			<point x="1250" y="812" type="line"/>
			<point x="1325" y="812" type="line"/>
			<point x="1325" y="1160" type="line"/>
		</contour>
		<contour>
			<point x="1250" y="1066" type="line"/>
			<point x="1598" y="1066" type="line"/>
			<point x="1585" y="1228" type="line"/>
			<point x="1250" y="1228" type="line"/>
		</contour>
	</outline>
</glyph>
<glyph name="Ga.bn" format="2">
	<advance width="1784"/>
	<unicode hex="0997"/>
	<anchor x="1580" y="200" name="bottom1"/>
	<anchor x="1342" y="1401" name="top"/>
	<anchor x="1033" y="1784" name="top2"/>
	<outline>
		<contour>
			<point x="259" y="183" type="line"/>
			<point x="364" y="183" type="line" smooth="yes"/>
			<point x="809" y="183"/>
			<point x="1020" y="293"/>
			<point x="1020" y="530" type="curve" smooth="yes"/>
			<point x="1020" y="534" type="line" smooth="yes"/>
			<point x="1020" y="733"/>
			<point x="886" y="833"/>
			<point x="604" y="833" type="curve" smooth="yes"/>
			<point x="499" y="833"/>
			<point x="377" y="814"/>
			<point x="270" y="786" type="curve"/>
			<point x="352" y="724" type="line"/>
			<point x="349" y="748"/>
			<point x="347" y="769"/>
			<point x="347" y="789" type="curve" smooth="yes"/>
			<point x="347" y="973"/>
			<point x="505" y="1081"/>
			<point x="811" y="1081" type="curve" smooth="yes"/>
			<point x="1088" y="1081"/>
			<point x="1288" y="964"/>
			<point x="1370" y="695" type="curve"/>
			<point x="1370" y="600" type="line"/>
			<point x="1400" y="682" type="line"/>
			<point x="1402" y="930" type="line"/>
			<point x="1367" y="930" type="line"/>
			<point x="1307" y="1135"/>
			<point x="1113" y="1258"/>
			<point x="790" y="1258" type="curve" smooth="yes"/>
			<point x="363" y="1258"/>
			<point x="144" y="1081"/>
			<point x="144" y="766" type="curve" smooth="yes"/>
			<point x="144" y="723"/>
			<point x="148" y="674"/>
			<point x="156" y="617" type="curve"/>
			<point x="297" y="648"/>
			<point x="459" y="670"/>
			<point x="585" y="670" type="curve" smooth="yes"/>
			<point x="746" y="670"/>
			<point x="820" y="628"/>
			<point x="820" y="537" type="curve" smooth="yes"/>
			<point x="820" y="533" type="line" smooth="yes"/>
			<point x="820" y="407"/>
			<point x="671" y="351"/>
			<point x="351" y="351" type="curve" smooth="yes"/>
			<point x="238" y="351" type="line"/>
		</contour>
		<contour>
			<point x="1367" y="0" type="line"/>
			<point x="1570" y="0" type="line"/>
			<point x="1570" y="1228" type="line"/>
			<point x="1377" y="1228" type="line"/>
			<point x="1377" y="806" type="line"/>
			<point x="1367" y="806" type="line"/>
		</contour>
		<contour>
			<point x="1495" y="1160" type="line"/>
			<point x="1495" y="812" type="line"/>
			<point x="1570" y="812" type="line"/>
			<point x="1570" y="1160" type="line"/>
		</contour>
		<contour>
			<point x="1495" y="1066" type="line"/>
			<point x="1843" y="1066" type="line"/>
			<point x="1830" y="1228" type="line"/>
			<point x="1495" y="1228" type="line"/>
		</contour>
	</outline>
</glyph>
<glyph name="Gha.bn" format="2">
	<advance width="1720"/>
	<unicode hex="0998"/>
	<anchor x="1516" y="-2" name="bottom1"/>
	<anchor x="1278" y="1401" name="top"/>
	<anchor x="969" y="1784" name="top2"/>
	<outline>
		<contour>
			<point x="1506" y="-2" type="line"/>
			<point x="1506" y="1102" type="line"/>
			<point x="1303" y="1102" type="line"/>
			<point x="1303" y="299" type="line"/>
			<point x="1314" y="113" type="line"/>
			<point x="1330" y="173" type="line"/>
			<point x="402" y="392" type="line"/>
			<point x="439" y="343" type="line"/>
			<point x="439" y="534" type="line"/>
			<point x="401" y="495" type="line"/>
			<point x="984" y="631" type="line"/>
			<point x="963" y="797" type="line"/>
			<point x="236" y="615" type="line"/>
			<point x="236" y="256" type="line"/>
			<point x="1332" y="-2" type="line"/>
		</contour>
		<contour>
			<point x="631" y="1087" type="curve"/>
			<point x="426" y="1175" type="line"/>
			<point x="261" y="1149"/>
			<point x="172" y="1064"/>
			<point x="172" y="936" type="curve" smooth="yes"/>
			<point x="172" y="934" type="line" smooth="yes"/>
			<point x="172" y="771"/>
			<point x="327" y="691"/>
			<point x="499" y="691" type="curve"/>
			<point x="499" y="662" type="line"/>
			<point x="963" y="797" type="line"/>
			<point x="866" y="781"/>
			<point x="760" y="768"/>
			<point x="687" y="768" type="curve" smooth="yes"/>
			<point x="506" y="768"/>
			<point x="407" y="822"/>
			<point x="407" y="921" type="curve" smooth="yes"/>
			<point x="407" y="922" type="line" smooth="yes"/>
			<point x="407" y="1024"/>
			<point x="483" y="1084"/>
		</contour>
		<contour>
			<point x="-48" y="1066" type="line"/>
			<point x="1490" y="1066" type="line"/>
			<point x="1490" y="1228" type="line"/>
			<point x="-61" y="1228" type="line"/>
		</contour>
		<contour>
			<point x="1431" y="1160" type="line"/>
			<point x="1431" y="812" type="line"/>
			<point x="1506" y="812" type="line"/>
			<point x="1506" y="1160" type="line"/>
		</contour>
		<contour>
			<point x="1431" y="1066" type="line"/>
			<point x="1779" y="1066" type="line"/>
			<point x="1766" y="1228" type="line"/>
			<point x="1431" y="1228" type="line"/>
		</contour>
	</outline>
</glyph>
<glyph name="Ca.bn" format="2">
	<advance width="1608"/>
	<unicode hex="099A"/>
	<anchor x="1085" y="182" name="bottom1"/>
	<anchor x="179" y="1401" name="top"/>
	<anchor x="229" y="1792" name="top2"/>
	<outline>
		<contour>
			<point x="791" y="5" type="curve" smooth="yes"/>
			<point x="1005" y="5"/>
			<point x="1211" y="55"/>
			<point x="1342" y="162" type="curve" smooth="yes"/>
			<point x="1431" y="235"/>
			<point x="1486" y="334"/>
			<point x="1486" y="462" type="curve" smooth="yes"/>
			<point x="1486" y="678"/>
			<point x="1334" y="788"/>
			<point x="987" y="824" type="curve" smooth="yes"/>
			<point x="349" y="890" type="line"/>
			<point x="349" y="717" type="line"/>
			<point x="983" y="652" type="line" smooth="yes"/>
			<point x="1188" y="631"/>
			<point x="1278" y="575"/>
			<point x="1278" y="467" type="curve" smooth="yes"/>
			<point x="1278" y="377"/>
			<point x="1226" y="310"/>
			<point x="1150" y="265" type="curve" smooth="yes"/>
			<point x="1050" y="204"/>
			<point x="908" y="179"/>
			<point x="784" y="179" type="curve" smooth="yes"/>
			<point x="515" y="179"/>
			<point x="399" y="276"/>
			<point x="399" y="468" type="curve" smooth="yes"/>
			<point x="399" y="1127" type="line"/>
			<point x="196" y="1127" type="line"/>
			<point x="196" y="468" type="line" smooth="yes"/>
			<point x="196" y="159"/>
			<point x="400" y="5"/>
		</contour>
		<contour>
			<point x="-75" y="1066" type="line"/>
			<point x="1652" y="1066" type="line"/>
			<point x="1639" y="1228" type="line"/>
			<point x="-88" y="1228" type="line"/>
		</contour>
	</outline>
</glyph>
<glyph name="Cha.bn" format="2">
  <advance width="1709"/>
  <unicode hex="099B"/>
  <anchor x="1222" y="35" name="bottom1"/>
  <anchor x="171" y="1405" name="top"/>
  <anchor x="472" y="1789" name="top2"/>
  <outline>
    <contour>
      <point x="277" y="251" type="line"/>
      <point x="266" y="83" type="line"/>
      <point x="1680" y="-263" type="line"/>
      <point x="1695" y="-88" type="line"/>
      <point x="1027" y="59" type="line"/>
      <point x="941" y="74" type="line"/>
      <point x="949" y="154" type="line"/>
      <point x="515" y="113" type="line"/>
      <point x="646" y="93"/>
      <point x="782" y="83"/>
      <point x="926" y="83" type="curve" smooth="yes"/>
      <point x="1342" y="83"/>
      <point x="1541" y="223"/>
      <point x="1541" y="482" type="curve" smooth="yes"/>
      <point x="1541" y="487" type="line" smooth="yes"/>
      <point x="1541" y="741"/>
      <point x="1337" y="882"/>
      <point x="923" y="905" type="curve" smooth="yes"/>
      <point x="330" y="938" type="line"/>
      <point x="330" y="783" type="line"/>
      <point x="943" y="749" type="line" smooth="yes"/>
      <point x="1208" y="734"/>
      <point x="1337" y="654"/>
      <point x="1337" y="492" type="curve" smooth="yes"/>
      <point x="1337" y="487" type="line" smooth="yes"/>
      <point x="1337" y="301"/>
      <point x="1149" y="202"/>
      <point x="775" y="202" type="curve" smooth="yes"/>
      <point x="625" y="202"/>
      <point x="492" y="211"/>
      <point x="357" y="236" type="curve" smooth="yes"/>
    </contour>
    <contour>
      <point x="636" y="384" type="curve" smooth="yes"/>
      <point x="866" y="384"/>
      <point x="1017" y="498"/>
      <point x="1090" y="733" type="curve" smooth="yes"/>
      <point x="1109" y="794" type="line"/>
      <point x="922" y="820" type="line"/>
      <point x="903" y="755" type="line" smooth="yes"/>
      <point x="861" y="612"/>
      <point x="766" y="546"/>
      <point x="628" y="546" type="curve" smooth="yes"/>
      <point x="470" y="546"/>
      <point x="390" y="603"/>
      <point x="390" y="714" type="curve" smooth="yes"/>
      <point x="390" y="1132" type="line"/>
      <point x="196" y="1132" type="line"/>
      <point x="196" y="743" type="line" smooth="yes"/>
      <point x="196" y="513"/>
      <point x="342" y="384"/>
    </contour>
    <contour>
      <point x="-92" y="1067" type="line"/>
      <point x="1764" y="1067" type="line"/>
      <point x="1751" y="1229" type="line"/>
      <point x="-105" y="1229" type="line"/>
    </contour>
  </outline>
</glyph>
<glyph name="Ja.bn" format="2">
  <advance width="2338"/>
  <unicode hex="099C"/>
  <note>
Ja.bn
</note>
  <anchor x="2112" y="282" name="bottom1"/>
  <anchor x="1211" y="1405" name="top"/>
  <anchor x="855" y="1788" name="top2"/>
  <outline>
    <contour>
      <point x="961" y="6" type="curve" smooth="yes"/>
      <point x="1390" y="6"/>
      <point x="1619" y="163"/>
      <point x="1619" y="436" type="curve" smooth="yes"/>
      <point x="1619" y="505"/>
      <point x="1612" y="570"/>
      <point x="1599" y="629" type="curve"/>
      <point x="1414" y="711" type="line"/>
      <point x="1279" y="657" type="line" smooth="yes"/>
      <point x="1191" y="622"/>
      <point x="1119" y="606"/>
      <point x="1037" y="606" type="curve" smooth="yes"/>
      <point x="942" y="606"/>
      <point x="887" y="641"/>
      <point x="887" y="720" type="curve" smooth="yes"/>
      <point x="887" y="723" type="line" smooth="yes"/>
      <point x="887" y="850"/>
      <point x="1107" y="964"/>
      <point x="1360" y="1032" type="curve"/>
      <point x="1277" y="1103" type="line"/>
      <point x="1138" y="1103" type="line"/>
      <point x="847" y="1045"/>
      <point x="682" y="912"/>
      <point x="682" y="727" type="curve" smooth="yes"/>
      <point x="682" y="723" type="line" smooth="yes"/>
      <point x="682" y="536"/>
      <point x="809" y="437"/>
      <point x="1045" y="437" type="curve" smooth="yes"/>
      <point x="1162" y="437"/>
      <point x="1255" y="460"/>
      <point x="1349" y="500" type="curve" smooth="yes"/>
      <point x="1498" y="563" type="line"/>
      <point x="1412" y="633" type="line"/>
      <point x="1420" y="579"/>
      <point x="1422" y="520"/>
      <point x="1422" y="460" type="curve" smooth="yes"/>
      <point x="1422" y="275"/>
      <point x="1262" y="180"/>
      <point x="958" y="180" type="curve" smooth="yes"/>
      <point x="545" y="180"/>
      <point x="388" y="400"/>
      <point x="356" y="703" type="curve" smooth="yes"/>
      <point x="341" y="844" type="line"/>
      <point x="141" y="844" type="line"/>
      <point x="155" y="693" type="line" smooth="yes"/>
      <point x="196" y="246"/>
      <point x="467" y="6"/>
    </contour>
    <contour>
      <point x="1925" y="-21" type="curve"/>
      <point x="2116" y="-21" type="line"/>
      <point x="2114" y="64"/>
      <point x="2112" y="159"/>
      <point x="2112" y="282" type="curve" smooth="yes"/>
      <point x="2112" y="470"/>
      <point x="2140" y="623"/>
      <point x="2184" y="814" type="curve"/>
      <point x="1846" y="855"/>
      <point x="1596" y="966"/>
      <point x="1439" y="1140" type="curve"/>
      <point x="1279" y="1077" type="line"/>
      <point x="1440" y="851"/>
      <point x="1699" y="715"/>
      <point x="2118" y="673" type="curve"/>
      <point x="1982" y="763" type="line"/>
      <point x="1934" y="610"/>
      <point x="1906" y="452"/>
      <point x="1906" y="282" type="curve" smooth="yes"/>
      <point x="1906" y="146"/>
      <point x="1914" y="62"/>
    </contour>
    <contour>
      <point x="-58" y="1066" type="line"/>
      <point x="2416" y="1066" type="line"/>
      <point x="2403" y="1228" type="line"/>
      <point x="-71" y="1228" type="line"/>
    </contour>
  </outline>
</glyph>
<glyph name="Tta.bn" format="2">
  <advance width="1622"/>
  <unicode hex="099F"/>
  <anchor x="1090" y="180" name="bottom1"/>
  <anchor x="1010.7" y="1528" name="top"/>
  <anchor x="1270.7" y="1521" name="top2"/>
  <outline>
    <contour>
      <point x="803" y="5" type="curve" smooth="yes"/>
      <point x="1020" y="5"/>
      <point x="1225" y="55"/>
      <point x="1356" y="162" type="curve" smooth="yes"/>
      <point x="1444" y="235"/>
      <point x="1498" y="334"/>
      <point x="1498" y="461" type="curve" smooth="yes"/>
      <point x="1498" y="687"/>
      <point x="1331" y="802"/>
      <point x="981" y="802" type="curve" smooth="yes"/>
      <point x="886" y="802"/>
      <point x="801" y="794"/>
      <point x="707" y="781" type="curve"/>
      <point x="691" y="612" type="line"/>
      <point x="788" y="626"/>
      <point x="880" y="632"/>
      <point x="985" y="632" type="curve" smooth="yes"/>
      <point x="1211" y="632"/>
      <point x="1291" y="574"/>
      <point x="1291" y="464" type="curve" smooth="yes"/>
      <point x="1291" y="375"/>
      <point x="1239" y="309"/>
      <point x="1163" y="264" type="curve" smooth="yes"/>
      <point x="1063" y="204"/>
      <point x="921" y="179"/>
      <point x="800" y="179" type="curve" smooth="yes"/>
      <point x="522" y="179"/>
      <point x="399" y="281"/>
      <point x="399" y="484" type="curve" smooth="yes"/>
      <point x="399" y="1128" type="line"/>
      <point x="196" y="1128" type="line"/>
      <point x="196" y="488" type="line" smooth="yes"/>
      <point x="196" y="155"/>
      <point x="411" y="5"/>
    </contour>
    <contour>
      <point x="-75" y="1066" type="line"/>
      <point x="1652" y="1066" type="line"/>
      <point x="1639" y="1228" type="line"/>
      <point x="-88" y="1228" type="line"/>
    </contour>
    <contour>
      <point x="1486" y="1281" type="line"/>
      <point x="1489" y="1295"/>
      <point x="1491" y="1313"/>
      <point x="1491" y="1329" type="curve" smooth="yes"/>
      <point x="1491" y="1516"/>
      <point x="1355" y="1618"/>
      <point x="1107" y="1618" type="curve" smooth="yes"/>
      <point x="543" y="1618" type="line" smooth="yes"/>
      <point x="401" y="1618"/>
      <point x="345" y="1658"/>
      <point x="336" y="1759" type="curve" smooth="yes"/>
      <point x="334" y="1781" type="line"/>
      <point x="154" y="1781" type="line"/>
      <point x="154" y="1758" type="line" smooth="yes"/>
      <point x="154" y="1554"/>
      <point x="278" y="1461"/>
      <point x="552" y="1461" type="curve" smooth="yes"/>
      <point x="1098" y="1461" type="line" smooth="yes"/>
      <point x="1237" y="1461"/>
      <point x="1298" y="1418"/>
      <point x="1298" y="1317" type="curve" smooth="yes"/>
      <point x="1298" y="1274"/>
      <point x="1286" y="1238"/>
      <point x="1261" y="1208" type="curve"/>
      <point x="1315" y="1204" type="line"/>
    </contour>
  </outline>
</glyph>
<glyph name="Ttha.bn" format="2">
  <advance width="1572"/>
  <unicode hex="09A0"/>
  <anchor x="1077" y="180" name="bottom1"/>
  <anchor x="849" y="1401" name="top"/>
  <anchor x="1216" y="1384" name="top2"/>
  <outline>
    <contour>
      <point x="807" y="-5" type="curve" smooth="yes"/>
      <point x="1220" y="-5"/>
      <point x="1473" y="165"/>
      <point x="1473" y="463" type="curve" smooth="yes"/>
      <point x="1473" y="468" type="line" smooth="yes"/>
      <point x="1473" y="700"/>
      <point x="1329" y="866"/>
      <point x="1031" y="1045" type="curve" smooth="yes"/>
      <point x="846" y="1156" type="line"/>
      <point x="704" y="1050" type="line"/>
      <point x="950" y="900" type="line" smooth="yes"/>
      <point x="1156" y="774"/>
      <point x="1264" y="636"/>
      <point x="1264" y="490" type="curve" smooth="yes"/>
      <point x="1264" y="484" type="line" smooth="yes"/>
      <point x="1264" y="278"/>
      <point x="1091" y="171"/>
      <point x="799" y="171" type="curve" smooth="yes"/>
      <point x="488" y="171"/>
      <point x="332" y="308"/>
      <point x="332" y="492" type="curve" smooth="yes"/>
      <point x="332" y="500"/>
      <point x="332" y="510"/>
      <point x="332" y="519" type="curve"/>
      <point x="232" y="418" type="line"/>
      <point x="601" y="480"/>
      <point x="815" y="651"/>
      <point x="808" y="1079" type="curve" smooth="yes"/>
      <point x="807" y="1141" type="line"/>
      <point x="636" y="1155" type="line"/>
      <point x="636" y="1109" type="line" smooth="yes"/>
      <point x="636" y="754"/>
      <point x="483" y="621"/>
      <point x="127" y="539" type="curve"/>
      <point x="127" y="529"/>
      <point x="127" y="517"/>
      <point x="127" y="508" type="curve" smooth="yes"/>
      <point x="127" y="209"/>
      <point x="372" y="-5"/>
    </contour>
    <contour>
      <point x="-66" y="1066" type="line"/>
      <point x="1621" y="1066" type="line"/>
      <point x="1608" y="1228" type="line"/>
      <point x="-79" y="1228" type="line"/>
    </contour>
    <contour>
      <point x="644" y="1190" type="line"/>
      <point x="825" y="1202" type="line"/>
      <point x="795" y="1232" type="line" smooth="yes"/>
      <point x="606" y="1416"/>
      <point x="539" y="1532"/>
      <point x="539" y="1675" type="curve" smooth="yes"/>
      <point x="539" y="1720"/>
      <point x="547" y="1761"/>
      <point x="567" y="1810" type="curve"/>
      <point x="370" y="1810" type="line"/>
      <point x="348" y="1765"/>
      <point x="338" y="1723"/>
      <point x="338" y="1670" type="curve" smooth="yes"/>
      <point x="338" y="1530"/>
      <point x="404" y="1396"/>
      <point x="609" y="1219" type="curve" smooth="yes"/>
    </contour>
  </outline>
</glyph>
<glyph name="Ddha.bn" format="2">
	<advance width="1622"/>
	<unicode hex="09A2"/>
	<anchor x="1090" y="180" name="bottom1"/>
	<anchor x="179" y="1402" name="top"/>
	<anchor x="229" y="1793" name="top2"/>
	<outline>
		<contour>
			<point x="803" y="5" type="curve" smooth="yes"/>
			<point x="1020" y="5"/>
			<point x="1225" y="55"/>
			<point x="1356" y="162" type="curve" smooth="yes"/>
			<point x="1444" y="235"/>
			<point x="1498" y="334"/>
			<point x="1498" y="461" type="curve" smooth="yes"/>
			<point x="1498" y="687"/>
			<point x="1331" y="802"/>
			<point x="981" y="802" type="curve" smooth="yes"/>
			<point x="886" y="802"/>
			<point x="801" y="794"/>
			<point x="707" y="781" type="curve"/>
			<point x="691" y="612" type="line"/>
			<point x="788" y="626"/>
			<point x="880" y="632"/>
			<point x="985" y="632" type="curve" smooth="yes"/>
			<point x="1211" y="632"/>
			<point x="1291" y="574"/>
			<point x="1291" y="464" type="curve" smooth="yes"/>
			<point x="1291" y="375"/>
			<point x="1239" y="309"/>
			<point x="1163" y="264" type="curve" smooth="yes"/>
			<point x="1063" y="204"/>
			<point x="921" y="179"/>
			<point x="800" y="179" type="curve" smooth="yes"/>
			<point x="522" y="179"/>
			<point x="399" y="281"/>
			<point x="399" y="484" type="curve" smooth="yes"/>
			<point x="399" y="1128" type="line"/>
			<point x="196" y="1128" type="line"/>
			<point x="196" y="488" type="line" smooth="yes"/>
			<point x="196" y="155"/>
			<point x="411" y="5"/>
		</contour>
		<contour>
			<point x="-75" y="1066" type="line"/>
			<point x="1652" y="1066" type="line"/>
			<point x="1639" y="1228" type="line"/>
			<point x="-88" y="1228" type="line"/>
		</contour>
	</outline>
</glyph>
<glyph name="Nna.bn" format="2">
  <advance width="1678"/>
  <unicode hex="09A3"/>
  <anchor x="1464" y="200" name="bottom1"/>
  <anchor x="1236" y="1401" name="top"/>
  <anchor x="927" y="1784" name="top2"/>
  <outline>
    <contour>
      <point x="672" y="456" type="curve" smooth="yes"/>
      <point x="752" y="456"/>
      <point x="818" y="465"/>
      <point x="876" y="479" type="curve"/>
      <point x="888" y="657" type="line"/>
      <point x="831" y="643"/>
      <point x="767" y="636"/>
      <point x="692" y="636" type="curve" smooth="yes"/>
      <point x="457" y="636"/>
      <point x="342" y="703"/>
      <point x="342" y="838" type="curve" smooth="yes"/>
      <point x="342" y="843" type="line" smooth="yes"/>
      <point x="342" y="997"/>
      <point x="471" y="1080"/>
      <point x="724" y="1080" type="curve" smooth="yes"/>
      <point x="1011" y="1080"/>
      <point x="1195" y="956"/>
      <point x="1265" y="715" type="curve"/>
      <point x="1331" y="938" type="line"/>
      <point x="1261" y="939" type="line"/>
      <point x="1197" y="1150"/>
      <point x="1006" y="1256"/>
      <point x="692" y="1257" type="curve" smooth="yes"/>
      <point x="324" y="1258"/>
      <point x="131" y="1120"/>
      <point x="131" y="852" type="curve" smooth="yes"/>
      <point x="131" y="847" type="line" smooth="yes"/>
      <point x="131" y="593"/>
      <point x="312" y="456"/>
    </contour>
    <contour>
      <point x="1261" y="0" type="line"/>
      <point x="1464" y="0" type="line"/>
      <point x="1464" y="1228" type="line"/>
      <point x="1271" y="1228" type="line"/>
      <point x="1271" y="856" type="line"/>
      <point x="1261" y="856" type="line"/>
    </contour>
    <contour>
      <point x="1389" y="1160" type="line"/>
      <point x="1389" y="812" type="line"/>
      <point x="1464" y="812" type="line"/>
      <point x="1464" y="1160" type="line"/>
    </contour>
    <contour>
      <point x="1389" y="1066" type="line"/>
      <point x="1737" y="1066" type="line"/>
      <point x="1724" y="1228" type="line"/>
      <point x="1389" y="1228" type="line"/>
    </contour>
  </outline>
</glyph>
<glyph name="Tha.bn" format="2">
	<advance width="1769"/>
	<unicode hex="09A5"/>
	<anchor x="1566" y="-2" name="bottom1"/>
	<anchor x="1327" y="1401" name="top"/>
	<anchor x="1018" y="1784" name="top2"/>
	<outline>
		<contour>
			<point x="1381" y="-2" type="line"/>
			<point x="1555" y="-2" type="line"/>
			<point x="1555" y="1228" type="line"/>
			<point x="1352" y="1228" type="line"/>
			<point x="1352" y="299" type="line"/>
			<point x="1363" y="113" type="line"/>
			<point x="1386" y="170" type="line"/>
			<point x="331" y="400" type="line"/>
			<point x="418" y="313" type="line"/>
			<point x="418" y="600" type="line"/>
			<point x="332" y="507" type="line"/>
			<point x="532" y="519" type="line" smooth="yes"/>
			<point x="927" y="543"/>
			<point x="1089" y="671"/>
			<point x="1089" y="887" type="curve" smooth="yes"/>
			<point x="1089" y="892" type="line" smooth="yes"/>
			<point x="1089" y="1127"/>
			<point x="914" y="1255"/>
			<point x="608" y="1255" type="curve" smooth="yes"/>
			<point x="300" y="1255"/>
			<point x="137" y="1132"/>
			<point x="137" y="901" type="curve" smooth="yes"/>
			<point x="137" y="883"/>
			<point x="139" y="865"/>
			<point x="142" y="846" type="curve"/>
			<point x="355" y="846" type="line"/>
			<point x="353" y="862"/>
			<point x="351" y="880"/>
			<point x="351" y="895" type="curve" smooth="yes"/>
			<point x="351" y="1018"/>
			<point x="446" y="1083"/>
			<point x="615" y="1083" type="curve" smooth="yes"/>
			<point x="787" y="1083"/>
			<point x="884" y="1018"/>
			<point x="884" y="898" type="curve" smooth="yes"/>
			<point x="884" y="893" type="line" smooth="yes"/>
			<point x="884" y="776"/>
			<point x="804" y="708"/>
			<point x="496" y="690" type="curve" smooth="yes"/>
			<point x="215" y="674" type="line"/>
			<point x="215" y="248" type="line"/>
		</contour>
		<contour>
			<point x="1480" y="1160" type="line"/>
			<point x="1480" y="812" type="line"/>
			<point x="1555" y="812" type="line"/>
			<point x="1555" y="1160" type="line"/>
		</contour>
		<contour>
			<point x="1480" y="1066" type="line"/>
			<point x="1828" y="1066" type="line"/>
			<point x="1815" y="1228" type="line"/>
			<point x="1480" y="1228" type="line"/>
		</contour>
	</outline>
</glyph>
<glyph name="Da.bn" format="2">
	<advance width="1665"/>
	<unicode hex="09A6"/>
	<anchor x="1451" y="0" name="bottom1"/>
	<anchor x="194" y="1405" name="top"/>
	<anchor x="413" y="1788" name="top2"/>
	<note>
		Da.bn
	</note>
	<outline>
		<contour>
			<point x="-74" y="1066" type="line"/>
			<point x="1711" y="1066" type="line"/>
			<point x="1698" y="1228" type="line"/>
			<point x="-87" y="1228" type="line"/>
		</contour>
		<contour>
			<point x="1248" y="-62" type="line"/>
			<point x="1451" y="-62" type="line"/>
			<point x="1451" y="870" type="line"/>
			<point x="1217" y="870" type="line"/>
			<point x="902" y="730"/>
			<point x="608" y="556"/>
			<point x="351" y="371" type="curve"/>
			<point x="413" y="297" type="line"/>
			<point x="427" y="663" type="line"/>
			<point x="427" y="1177" type="line"/>
			<point x="224" y="1177" type="line"/>
			<point x="224" y="208" type="line"/>
			<point x="440" y="208" type="line"/>
			<point x="732" y="414"/>
			<point x="1079" y="607"/>
			<point x="1367" y="739" type="curve"/>
			<point x="1257" y="821" type="line"/>
			<point x="1248" y="468" type="line"/>
		</contour>
	</outline>
</glyph>
<glyph name="Na.bn" format="2">
	<advance width="1608"/>
	<unicode hex="09A8"/>
	<anchor x="1404" y="200" name="bottom1"/>
	<anchor x="1166" y="1401" name="top"/>
	<anchor x="857" y="1784" name="top2"/>
	<outline>
		<contour>
			<point x="1191" y="0" type="line"/>
			<point x="1394" y="0" type="line"/>
			<point x="1394" y="1157" type="line"/>
			<point x="1191" y="1157" type="line"/>
			<point x="1191" y="663" type="line"/>
			<point x="1197" y="460" type="line"/>
			<point x="1191" y="382" type="line"/>
		</contour>
		<contour>
			<point x="-74" y="1066" type="line"/>
			<point x="1378" y="1066" type="line"/>
			<point x="1361" y="1228" type="line"/>
			<point x="-87" y="1228" type="line"/>
		</contour>
		<contour>
			<point x="163" y="277" type="curve"/>
			<point x="371" y="277" type="line"/>
			<point x="361" y="316"/>
			<point x="355" y="353"/>
			<point x="355" y="406" type="curve" smooth="yes"/>
			<point x="355" y="575"/>
			<point x="457" y="667"/>
			<point x="663" y="667" type="curve" smooth="yes"/>
			<point x="879" y="667"/>
			<point x="1088" y="513"/>
			<point x="1195" y="269" type="curve"/>
			<point x="1203" y="525" type="line"/>
			<point x="1185" y="525" type="line"/>
			<point x="1096" y="707"/>
			<point x="901" y="851"/>
			<point x="634" y="851" type="curve" smooth="yes"/>
			<point x="319" y="851"/>
			<point x="141" y="700"/>
			<point x="141" y="436" type="curve" smooth="yes"/>
			<point x="141" y="378"/>
			<point x="149" y="316"/>
		</contour>
		<contour>
			<point x="1319" y="1160" type="line"/>
			<point x="1319" y="812" type="line"/>
			<point x="1394" y="812" type="line"/>
			<point x="1394" y="1160" type="line"/>
		</contour>
		<contour>
			<point x="1319" y="1066" type="line"/>
			<point x="1667" y="1066" type="line"/>
			<point x="1654" y="1228" type="line"/>
			<point x="1319" y="1228" type="line"/>
		</contour>
	</outline>
</glyph>
<glyph name="Pa.bn" format="2">
	<advance width="1762"/>
	<unicode hex="09AA"/>
	<anchor x="1548" y="200" name="bottom1"/>
	<anchor x="1320" y="1401" name="top"/>
	<anchor x="1011" y="1784" name="top2"/>
	<outline>
		<contour>
			<point x="127" y="787" type="curve" smooth="yes"/>
			<point x="127" y="776" type="line"/>
			<point x="659" y="519" type="line"/>
			<point x="819" y="627" type="line"/>
			<point x="317" y="875" type="line"/>
			<point x="337" y="785" type="line"/>
			<point x="337" y="799" type="line" smooth="yes"/>
			<point x="337" y="972"/>
			<point x="498" y="1081"/>
			<point x="787" y="1081" type="curve" smooth="yes"/>
			<point x="1051" y="1081"/>
			<point x="1215" y="985"/>
			<point x="1285" y="790" type="curve"/>
			<point x="1345" y="724" type="line"/>
			<point x="1376" y="764" type="line"/>
			<point x="1388" y="936" type="line"/>
			<point x="1346" y="936" type="line"/>
			<point x="1292" y="1139"/>
			<point x="1084" y="1254"/>
			<point x="774" y="1254" type="curve" smooth="yes"/>
			<point x="359" y="1254"/>
			<point x="127" y="1089"/>
		</contour>
		<contour>
			<point x="376" y="258" type="line"/>
			<point x="1418" y="730" type="line"/>
			<point x="1315" y="876" type="line"/>
			<point x="240" y="386" type="line"/>
		</contour>
		<contour>
			<point x="1345" y="0" type="line"/>
			<point x="1548" y="0" type="line"/>
			<point x="1548" y="1228" type="line"/>
			<point x="1356" y="1228" type="line"/>
			<point x="1356" y="892" type="line"/>
			<point x="1345" y="892" type="line"/>
		</contour>
		<contour>
			<point x="1473" y="1160" type="line"/>
			<point x="1473" y="812" type="line"/>
			<point x="1548" y="812" type="line"/>
			<point x="1548" y="1160" type="line"/>
		</contour>
		<contour>
			<point x="1473" y="1066" type="line"/>
			<point x="1821" y="1066" type="line"/>
			<point x="1808" y="1228" type="line"/>
			<point x="1473" y="1228" type="line"/>
		</contour>
	</outline>
</glyph>
<glyph name="Bha.bn" format="2">
  <advance width="1879"/>
  <unicode hex="09AD"/>
  <anchor x="1214" y="180" name="bottom1"/>
  <anchor x="869" y="1409" name="top"/>
  <anchor x="584" y="1788" name="top2"/>
  <outline>
    <contour>
      <point x="1000" y="10" type="curve" smooth="yes"/>
      <point x="1471" y="10"/>
      <point x="1730" y="191"/>
      <point x="1731" y="533" type="curve" smooth="yes"/>
      <point x="1732" y="640"/>
      <point x="1719" y="713"/>
      <point x="1686" y="812" type="curve"/>
      <point x="1510" y="840" type="line"/>
      <point x="1360" y="692"/>
      <point x="1250" y="613"/>
      <point x="1063" y="613" type="curve" smooth="yes"/>
      <point x="928" y="613"/>
      <point x="865" y="653"/>
      <point x="865" y="727" type="curve" smooth="yes"/>
      <point x="865" y="729" type="line" smooth="yes"/>
      <point x="865" y="803"/>
      <point x="937" y="842"/>
      <point x="1067" y="842" type="curve" smooth="yes"/>
      <point x="1121" y="842"/>
      <point x="1188" y="837"/>
      <point x="1240" y="826" type="curve"/>
      <point x="1217" y="988" type="line"/>
      <point x="1162" y="1006"/>
      <point x="1105" y="1014"/>
      <point x="1029" y="1014" type="curve" smooth="yes"/>
      <point x="800" y="1014"/>
      <point x="661" y="916"/>
      <point x="661" y="736" type="curve" smooth="yes"/>
      <point x="661" y="734" type="line" smooth="yes"/>
      <point x="661" y="551"/>
      <point x="802" y="441"/>
      <point x="1072" y="441" type="curve" smooth="yes"/>
      <point x="1297" y="441"/>
      <point x="1458" y="529"/>
      <point x="1600" y="729" type="curve"/>
      <point x="1520" y="750" type="line"/>
      <point x="1528" y="689"/>
      <point x="1533" y="617"/>
      <point x="1533" y="542" type="curve" smooth="yes"/>
      <point x="1531" y="306"/>
      <point x="1338" y="188"/>
      <point x="1000" y="188" type="curve" smooth="yes"/>
      <point x="602" y="188"/>
      <point x="403" y="348"/>
      <point x="362" y="704" type="curve" smooth="yes"/>
      <point x="346" y="844" type="line"/>
      <point x="144" y="844" type="line"/>
      <point x="159" y="693" type="line" smooth="yes"/>
      <point x="204" y="242"/>
      <point x="475" y="10"/>
    </contour>
    <contour>
      <point x="-58" y="1066" type="line"/>
      <point x="1931" y="1066" type="line"/>
      <point x="1918" y="1228" type="line"/>
      <point x="-71" y="1228" type="line"/>
    </contour>
  </outline>
</glyph>
<glyph name="Ma.bn" format="2">
	<advance width="1668"/>
	<unicode hex="09AE"/>
	<anchor x="1464" y="200" name="bottom1"/>
	<anchor x="1226" y="1401" name="top"/>
	<anchor x="917" y="1784" name="top2"/>
	<outline>
		<contour>
			<point x="645" y="71" type="curve" smooth="yes"/>
			<point x="703" y="71"/>
			<point x="762" y="77"/>
			<point x="821" y="90" type="curve"/>
			<point x="834" y="266" type="line"/>
			<point x="770" y="254"/>
			<point x="714" y="248"/>
			<point x="653" y="248" type="curve" smooth="yes"/>
			<point x="476" y="248"/>
			<point x="382" y="300"/>
			<point x="382" y="399" type="curve" smooth="yes"/>
			<point x="382" y="403" type="line" smooth="yes"/>
			<point x="382" y="528"/>
			<point x="496" y="585"/>
			<point x="736" y="585" type="curve" smooth="yes"/>
			<point x="983" y="585"/>
			<point x="1179" y="486"/>
			<point x="1253" y="297" type="curve"/>
			<point x="1277" y="506" type="line"/>
			<point x="1245" y="506" type="line"/>
			<point x="1184" y="664"/>
			<point x="984" y="760"/>
			<point x="718" y="760" type="curve" smooth="yes"/>
			<point x="361" y="760"/>
			<point x="175" y="647"/>
			<point x="175" y="413" type="curve" smooth="yes"/>
			<point x="175" y="408" type="line" smooth="yes"/>
			<point x="175" y="184"/>
			<point x="333" y="71"/>
		</contour>
		<contour>
			<point x="387" y="719" type="curve"/>
			<point x="387" y="675" type="line"/>
			<point x="607" y="720" type="line"/>
			<point x="491" y="760"/>
			<point x="431" y="842"/>
			<point x="431" y="967" type="curve" smooth="yes"/>
			<point x="431" y="1122" type="line"/>
			<point x="195" y="1122" type="line"/>
			<point x="195" y="986" type="line" smooth="yes"/>
			<point x="195" y="851"/>
			<point x="259" y="742"/>
		</contour>
		<contour>
			<point x="1251" y="0" type="line"/>
			<point x="1454" y="0" type="line"/>
			<point x="1454" y="1101" type="line"/>
			<point x="1251" y="1101" type="line"/>
			<point x="1251" y="665" type="line"/>
			<point x="1256" y="471" type="line"/>
			<point x="1251" y="425" type="line"/>
		</contour>
		<contour>
			<point x="-96" y="1066" type="line"/>
			<point x="1453" y="1066" type="line"/>
			<point x="1453" y="1228" type="line"/>
			<point x="-109" y="1228" type="line"/>
		</contour>
		<contour>
			<point x="1379" y="1160" type="line"/>
			<point x="1379" y="812" type="line"/>
			<point x="1454" y="812" type="line"/>
			<point x="1454" y="1160" type="line"/>
		</contour>
		<contour>
			<point x="1379" y="1066" type="line"/>
			<point x="1727" y="1066" type="line"/>
			<point x="1714" y="1228" type="line"/>
			<point x="1379" y="1228" type="line"/>
		</contour>
	</outline>
</glyph>
<glyph name="Ssa.bn" format="2">
  <advance width="1701"/>
  <unicode hex="09B7"/>
  <anchor x="1486" y="-2" name="bottom1"/>
  <anchor x="1259" y="1401" name="top"/>
  <anchor x="950" y="1784" name="top2"/>
  <outline>
    <contour>
      <point x="1412" y="1160" type="line"/>
      <point x="1412" y="812" type="line"/>
      <point x="1487" y="812" type="line"/>
      <point x="1487" y="1160" type="line"/>
    </contour>
    <contour>
      <point x="1412" y="1066" type="line"/>
      <point x="1760" y="1066" type="line"/>
      <point x="1747" y="1228" type="line"/>
      <point x="1412" y="1228" type="line"/>
    </contour>
    <contour>
      <point x="1311" y="-2" type="line"/>
      <point x="1487" y="-2" type="line"/>
      <point x="1487" y="1171" type="line"/>
      <point x="1284" y="1171" type="line"/>
      <point x="1284" y="299" type="line"/>
      <point x="1293" y="113" type="line"/>
      <point x="1302" y="167" type="line"/>
      <point x="369" y="375" type="line"/>
      <point x="408" y="315" type="line"/>
      <point x="408" y="537" type="line"/>
      <point x="370" y="452" type="line"/>
      <point x="983" y="613" type="line"/>
      <point x="925" y="693" type="line"/>
      <point x="851" y="661" type="line"/>
      <point x="1358" y="449" type="line"/>
      <point x="1366" y="611" type="line"/>
      <point x="911" y="814" type="line"/>
      <point x="646" y="938"/>
      <point x="392" y="1048"/>
      <point x="194" y="1136" type="curve"/>
      <point x="128" y="1127" type="line"/>
      <point x="128" y="956" type="line"/>
      <point x="728" y="728" type="line"/>
      <point x="728" y="718" type="line"/>
      <point x="210" y="586" type="line"/>
      <point x="210" y="236" type="line"/>
    </contour>
    <contour>
      <point x="-81" y="1066" type="line"/>
      <point x="1487" y="1066" type="line"/>
      <point x="1487" y="1228" type="line"/>
      <point x="-94" y="1228" type="line"/>
    </contour>
  </outline>
</glyph>
<glyph name="Sa.bn" format="2">
  <advance width="1638"/>
  <unicode hex="09B8"/>
  <anchor x="1434" y="200" name="bottom1"/>
  <anchor x="1196" y="1401" name="top"/>
  <anchor x="887" y="1784" name="top2"/>
  <outline>
    <contour>
      <point x="1221" y="0" type="line"/>
      <point x="1424" y="0" type="line"/>
      <point x="1424" y="1100" type="line"/>
      <point x="1221" y="1100" type="line"/>
      <point x="1221" y="887" type="line"/>
      <point x="1227" y="697" type="line"/>
      <point x="1221" y="613" type="line"/>
    </contour>
    <contour>
      <point x="-127" y="1066" type="line"/>
      <point x="1410" y="1066" type="line"/>
      <point x="1410" y="1228" type="line"/>
      <point x="-140" y="1228" type="line"/>
    </contour>
    <contour>
      <point x="1270" y="585" type="curve"/>
      <point x="1270" y="758" type="line"/>
      <point x="1234" y="764"/>
      <point x="1201" y="768"/>
      <point x="1165" y="768" type="curve" smooth="yes"/>
      <point x="982" y="768"/>
      <point x="827" y="687"/>
      <point x="682" y="588" type="curve" smooth="yes"/>
      <point x="607" y="536"/>
      <point x="534" y="485"/>
      <point x="474" y="447" type="curve"/>
      <point x="421" y="323" type="line"/>
      <point x="649" y="416"/>
      <point x="733" y="532"/>
      <point x="733" y="687" type="curve" smooth="yes"/>
      <point x="733" y="693" type="line" smooth="yes"/>
      <point x="733" y="941"/>
      <point x="531" y="1098"/>
      <point x="261" y="1113" type="curve"/>
      <point x="154" y="1083" type="line"/>
      <point x="154" y="999" type="line"/>
      <point x="375" y="973"/>
      <point x="538" y="863"/>
      <point x="538" y="673" type="curve" smooth="yes"/>
      <point x="538" y="667" type="line" smooth="yes"/>
      <point x="538" y="477"/>
      <point x="350" y="368"/>
      <point x="121" y="368" type="curve" smooth="yes"/>
      <point x="71" y="368" type="line"/>
      <point x="71" y="196" type="line"/>
      <point x="154" y="196" type="line" smooth="yes"/>
      <point x="421" y="196"/>
      <point x="583" y="315"/>
      <point x="744" y="418" type="curve" smooth="yes"/>
      <point x="883" y="511"/>
      <point x="1011" y="593"/>
      <point x="1176" y="593" type="curve" smooth="yes"/>
      <point x="1207" y="593"/>
      <point x="1244" y="591"/>
    </contour>
    <contour>
      <point x="1349" y="1160" type="line"/>
      <point x="1349" y="812" type="line"/>
      <point x="1424" y="812" type="line"/>
      <point x="1424" y="1160" type="line"/>
    </contour>
    <contour>
      <point x="1349" y="1066" type="line"/>
      <point x="1697" y="1066" type="line"/>
      <point x="1684" y="1228" type="line"/>
      <point x="1349" y="1228" type="line"/>
    </contour>
  </outline>
</glyph>
<glyph name="Ha.bn" format="2">
  <advance width="1521"/>
  <unicode hex="09B9"/>
  <note>
Ha.bn
</note>
  <anchor x="1026" y="154" name="bottom1"/>
  <anchor x="650" y="1404" name="top"/>
  <anchor x="330" y="1788" name="top2"/>
  <outline>
    <contour>
      <point x="1449" y="-172" type="line"/>
      <point x="1464" y="5" type="line"/>
      <point x="874" y="147" type="line"/>
      <point x="788" y="166" type="line"/>
      <point x="794" y="231" type="line"/>
      <point x="525" y="212" type="line"/>
      <point x="623" y="188"/>
      <point x="727" y="176"/>
      <point x="828" y="176" type="curve" smooth="yes"/>
      <point x="1213" y="176"/>
      <point x="1348" y="313"/>
      <point x="1348" y="543" type="curve" smooth="yes"/>
      <point x="1348" y="548" type="line" smooth="yes"/>
      <point x="1348" y="805"/>
      <point x="1134" y="954"/>
      <point x="772" y="954" type="curve" smooth="yes"/>
      <point x="388" y="954"/>
      <point x="185" y="820"/>
      <point x="185" y="568" type="curve" smooth="yes"/>
      <point x="185" y="553"/>
      <point x="187" y="534"/>
      <point x="189" y="520" type="curve"/>
      <point x="397" y="520" type="line"/>
      <point x="394" y="534"/>
      <point x="393" y="551"/>
      <point x="393" y="564" type="curve" smooth="yes"/>
      <point x="393" y="710"/>
      <point x="526" y="782"/>
      <point x="771" y="782" type="curve" smooth="yes"/>
      <point x="1011" y="782"/>
      <point x="1140" y="696"/>
      <point x="1140" y="550" type="curve" smooth="yes"/>
      <point x="1140" y="545" type="line" smooth="yes"/>
      <point x="1140" y="385"/>
      <point x="1029" y="295"/>
      <point x="666" y="295" type="curve" smooth="yes"/>
      <point x="509" y="295"/>
      <point x="359" y="305"/>
      <point x="213" y="336" type="curve" smooth="yes"/>
      <point x="156" y="348" type="line"/>
      <point x="146" y="177" type="line"/>
    </contour>
    <contour>
      <point x="-48" y="1066" type="line"/>
      <point x="1573" y="1066" type="line"/>
      <point x="1560" y="1228" type="line"/>
      <point x="-61" y="1228" type="line"/>
    </contour>
  </outline>
</glyph>
<glyph name="Nukta.bn" format="2">
  <unicode hex="09BC"/>
  <outline>
    <contour>
      <point x="-369" y="-323" type="curve" smooth="yes"/>
      <point x="-276" y="-323"/>
      <point x="-227" y="-273"/>
      <point x="-227" y="-199" type="curve" smooth="yes"/>
      <point x="-227" y="-194" type="line" smooth="yes"/>
      <point x="-227" y="-119"/>
      <point x="-276" y="-69"/>
      <point x="-369" y="-69" type="curve" smooth="yes"/>
      <point x="-462" y="-69"/>
      <point x="-512" y="-118"/>
      <point x="-512" y="-194" type="curve" smooth="yes"/>
      <point x="-512" y="-199" type="line" smooth="yes"/>
      <point x="-512" y="-273"/>
      <point x="-462" y="-323"/>
    </contour>
  </outline>
</glyph>
<glyph name="Avagraha.bn" format="2">
  <advance width="1506"/>
  <unicode hex="09BD"/>
  <outline>
    <contour>
      <point x="377" y="851" type="line"/>
      <point x="558" y="851" type="line"/>
      <point x="558" y="901" type="line" smooth="yes"/>
      <point x="558" y="1115"/>
      <point x="414" y="1228"/>
      <point x="143" y="1228" type="curve" smooth="yes"/>
      <point x="-61" y="1228" type="line"/>
      <point x="-48" y="1081" type="line"/>
      <point x="144" y="1081" type="line" smooth="yes"/>
      <point x="296" y="1081"/>
      <point x="377" y="1016"/>
      <point x="377" y="896" type="curve" smooth="yes"/>
    </contour>
    <contour>
      <point x="1442" y="-172" type="line"/>
      <point x="1457" y="3" type="line"/>
      <point x="867" y="155" type="line"/>
      <point x="685" y="197" type="line"/>
      <point x="691" y="252" type="line"/>
      <point x="518" y="233" type="line"/>
      <point x="616" y="205"/>
      <point x="720" y="193"/>
      <point x="821" y="193" type="curve" smooth="yes"/>
      <point x="1206" y="193"/>
      <point x="1341" y="330"/>
      <point x="1341" y="558" type="curve" smooth="yes"/>
      <point x="1341" y="563" type="line" smooth="yes"/>
      <point x="1341" y="830"/>
      <point x="1127" y="983"/>
      <point x="765" y="983" type="curve" smooth="yes"/>
      <point x="381" y="983"/>
      <point x="178" y="847"/>
      <point x="178" y="589" type="curve" smooth="yes"/>
      <point x="178" y="574"/>
      <point x="180" y="556"/>
      <point x="182" y="542" type="curve"/>
      <point x="390" y="542" type="line"/>
      <point x="387" y="556"/>
      <point x="386" y="572"/>
      <point x="386" y="585" type="curve" smooth="yes"/>
      <point x="386" y="737"/>
      <point x="519" y="813"/>
      <point x="764" y="813" type="curve" smooth="yes"/>
      <point x="1004" y="813"/>
      <point x="1133" y="718"/>
      <point x="1133" y="560" type="curve" smooth="yes"/>
      <point x="1133" y="555" type="line" smooth="yes"/>
      <point x="1133" y="389"/>
      <point x="1022" y="295"/>
      <point x="659" y="295" type="curve" smooth="yes"/>
      <point x="502" y="295"/>
      <point x="353" y="308"/>
      <point x="206" y="336" type="curve" smooth="yes"/>
      <point x="149" y="348" type="line"/>
      <point x="139" y="177" type="line"/>
    </contour>
  </outline>
</glyph>
<glyph name="SignAa.bn" format="2">
  <advance width="644"/>
  <unicode hex="09BE"/>
  <anchor x="202" y="1401" name="top"/>
  <anchor x="-107" y="1784" name="top2"/>
  <outline>
    <contour>
      <point x="227" y="0" type="line"/>
      <point x="430" y="0" type="line"/>
      <point x="430" y="1102" type="line"/>
      <point x="227" y="1102" type="line"/>
    </contour>
    <contour>
      <point x="-34" y="1066" type="line"/>
      <point x="418" y="1066" type="line"/>
      <point x="418" y="1228" type="line"/>
      <point x="-47" y="1228" type="line"/>
    </contour>
    <contour>
      <point x="355" y="1160" type="line"/>
      <point x="355" y="812" type="line"/>
      <point x="430" y="812" type="line"/>
      <point x="430" y="1160" type="line"/>
    </contour>
    <contour>
      <point x="355" y="1066" type="line"/>
      <point x="703" y="1066" type="line"/>
      <point x="690" y="1228" type="line"/>
      <point x="355" y="1228" type="line"/>
    </contour>
  </outline>
</glyph>
<glyph name="SignU.bn" format="2">
	<advance width="0"/>
	<unicode hex="09C1"/>
	<anchor x="-184" y="-1" name="_bottom1"/>
	<outline>
		<contour>
			<point x="-373" y="-239" type="line"/>
			<point x="-184" y="-280" type="line"/>
			<point x="-184" y="20" type="line"/>
			<point x="-373" y="20" type="line"/>
		</contour>
		<contour>
			<point x="262" y="-679" type="curve"/>
			<point x="276" y="-512" type="line"/>
			<point x="-16" y="-254"/>
			<point x="-317" y="-143"/>
			<point x="-640" y="-143" type="curve" smooth="yes"/>
			<point x="-934" y="-143"/>
			<point x="-1090" y="-225"/>
			<point x="-1090" y="-396" type="curve" smooth="yes"/>
			<point x="-1090" y="-561"/>
			<point x="-944" y="-644"/>
			<point x="-679" y="-644" type="curve" smooth="yes"/>
			<point x="-355" y="-644"/>
			<point x="-201" y="-501"/>
			<point x="-201" y="-311" type="curve" smooth="yes"/>
			<point x="-201" y="-262" type="line"/>
			<point x="-383" y="-249" type="line"/>
			<point x="-383" y="-285" type="line" smooth="yes"/>
			<point x="-383" y="-414"/>
			<point x="-474" y="-498"/>
			<point x="-682" y="-498" type="curve" smooth="yes"/>
			<point x="-830" y="-498"/>
			<point x="-904" y="-467"/>
			<point x="-904" y="-402" type="curve" smooth="yes"/>
			<point x="-904" y="-329"/>
			<point x="-815" y="-294"/>
			<point x="-616" y="-294" type="curve" smooth="yes"/>
			<point x="-338" y="-294"/>
			<point x="-49" y="-410"/>
		</contour>
	</outline>
</glyph>
<glyph name="SignUu.bn" format="2">
	<advance width="0"/>
	<unicode hex="09C2"/>
	<anchor x="271" y="0" name="_bottom1"/>
	<outline>
		<contour>
			<point x="271" y="-307" type="line"/>
			<point x="271" y="20" type="line"/>
			<point x="82" y="20" type="line"/>
			<point x="82" y="-236" type="line"/>
		</contour>
		<contour>
			<point x="747" y="-776" type="line"/>
			<point x="760" y="-617" type="line"/>
			<point x="281" y="-422" type="line"/>
			<point x="170" y="-478"/>
			<point x="57" y="-515"/>
			<point x="-106" y="-515" type="curve" smooth="yes"/>
			<point x="-280" y="-515"/>
			<point x="-358" y="-482"/>
			<point x="-358" y="-413" type="curve" smooth="yes"/>
			<point x="-358" y="-326"/>
			<point x="-244" y="-296"/>
			<point x="-89" y="-296" type="curve" smooth="yes"/>
			<point x="0" y="-296"/>
			<point x="183" y="-300"/>
			<point x="271" y="-307" type="curve"/>
			<point x="184" y="-175" type="line"/>
			<point x="104" y="-154"/>
			<point x="-23" y="-143"/>
			<point x="-112" y="-143" type="curve" smooth="yes"/>
			<point x="-375" y="-143"/>
			<point x="-551" y="-225"/>
			<point x="-551" y="-403" type="curve" smooth="yes"/>
			<point x="-551" y="-581"/>
			<point x="-397" y="-671"/>
			<point x="-103" y="-671" type="curve" smooth="yes"/>
			<point x="83" y="-671"/>
			<point x="213" y="-624"/>
			<point x="339" y="-565" type="curve"/>
			<point x="201" y="-545" type="line"/>
		</contour>
	</outline>
</glyph>
<glyph name="SignRu.bn" format="2">
	<advance width="0"/>
	<unicode hex="09C3"/>
	<anchor x="-138" y="0" name="_bottom1"/>
	<outline>
		<contour>
			<point x="-138" y="-235" type="line"/>
			<point x="-138" y="20" type="line"/>
			<point x="-328" y="20" type="line"/>
			<point x="-328" y="-164" type="line"/>
		</contour>
		<contour>
			<point x="9" y="-746" type="line"/>
			<point x="21" y="-586" type="line"/>
			<point x="-696" y="-398" type="line"/>
			<point x="-696" y="-392" type="line"/>
			<point x="-584" y="-357"/>
			<point x="-297" y="-276"/>
			<point x="-138" y="-236" type="curve"/>
			<point x="-253" y="-97" type="line"/>
			<point x="-487" y="-156"/>
			<point x="-804" y="-251"/>
			<point x="-956" y="-306" type="curve"/>
			<point x="-956" y="-474" type="line"/>
		</contour>
	</outline>
</glyph>
<glyph name="SignRuu.bn" format="2">
  <unicode hex="09C4"/>
  <anchor x="459" y="180" name="_bottom1"/>
  <outline>
    <contour>
      <point x="350" y="-643" type="curve"/>
      <point x="132" y="-531" type="line"/>
      <point x="-56" y="-584"/>
      <point x="-250" y="-644"/>
      <point x="-359" y="-683" type="curve"/>
      <point x="-359" y="-851" type="line"/>
      <point x="606" y="-1123" type="line"/>
      <point x="618" y="-963" type="line"/>
      <point x="-99" y="-775" type="line"/>
      <point x="-99" y="-769" type="line"/>
      <point x="-8" y="-741"/>
      <point x="190" y="-686"/>
    </contour>
    <contour>
      <point x="449" y="-235" type="line"/>
      <point x="449" y="40" type="line"/>
      <point x="259" y="40" type="line"/>
      <point x="259" y="-164" type="line"/>
    </contour>
    <contour>
      <point x="596" y="-746" type="line"/>
      <point x="608" y="-586" type="line"/>
      <point x="-109" y="-398" type="line"/>
      <point x="-109" y="-392" type="line"/>
      <point x="3" y="-357"/>
      <point x="290" y="-276"/>
      <point x="449" y="-236" type="curve"/>
      <point x="334" y="-97" type="line"/>
      <point x="100" y="-156"/>
      <point x="-217" y="-251"/>
      <point x="-369" y="-306" type="curve"/>
      <point x="-369" y="-474" type="line"/>
    </contour>
  </outline>
</glyph>
<glyph name="SignE.bn" format="2">
	<advance width="819"/>
	<unicode hex="09C7"/>
	<outline>
		<contour>
			<point x="778" y="1068" type="curve"/>
			<point x="678" y="1168" type="line"/>
			<point x="328" y="1077"/>
			<point x="148" y="832"/>
			<point x="148" y="523" type="curve" smooth="yes"/>
			<point x="148" y="515" type="line" smooth="yes"/>
			<point x="148" y="176"/>
			<point x="370" y="-18"/>
			<point x="690" y="-38" type="curve" smooth="yes"/>
			<point x="737" y="-41" type="line"/>
			<point x="764" y="123" type="line"/>
			<point x="718" y="127" type="line" smooth="yes"/>
			<point x="494" y="146"/>
			<point x="353" y="269"/>
			<point x="353" y="528" type="curve" smooth="yes"/>
			<point x="353" y="537" type="line" smooth="yes"/>
			<point x="353" y="781"/>
			<point x="499" y="1001"/>
		</contour>
		<contour>
			<point x="-75" y="1066" type="line"/>
			<point x="1054" y="1066" type="line"/>
			<point x="1042" y="1228" type="line"/>
			<point x="-88" y="1228" type="line"/>
		</contour>
	</outline>
</glyph>
<glyph name="SignAi.bn" format="2">
  <advance width="838"/>
  <unicode hex="09C8"/>
  <anchor x="370" y="1531" name="top"/>
  <anchor x="630" y="1524" name="top2"/>
  <outline>
    <contour>
      <point x="797" y="1068" type="curve"/>
      <point x="697" y="1168" type="line"/>
      <point x="347" y="1077"/>
      <point x="167" y="832"/>
      <point x="167" y="523" type="curve" smooth="yes"/>
      <point x="167" y="515" type="line" smooth="yes"/>
      <point x="167" y="176"/>
      <point x="389" y="-18"/>
      <point x="709" y="-38" type="curve" smooth="yes"/>
      <point x="756" y="-41" type="line"/>
      <point x="783" y="123" type="line"/>
      <point x="737" y="127" type="line" smooth="yes"/>
      <point x="513" y="146"/>
      <point x="372" y="269"/>
      <point x="372" y="528" type="curve" smooth="yes"/>
      <point x="372" y="537" type="line" smooth="yes"/>
      <point x="372" y="781"/>
      <point x="518" y="1001"/>
    </contour>
    <contour>
      <point x="-56" y="1066" type="line"/>
      <point x="1073" y="1066" type="line"/>
      <point x="1061" y="1228" type="line"/>
      <point x="-69" y="1228" type="line"/>
    </contour>
    <contour>
      <point x="845" y="1284" type="line"/>
      <point x="848" y="1298"/>
      <point x="850" y="1316"/>
      <point x="850" y="1332" type="curve" smooth="yes"/>
      <point x="850" y="1519"/>
      <point x="714" y="1621"/>
      <point x="466" y="1621" type="curve" smooth="yes"/>
      <point x="280" y="1621" type="line" smooth="yes"/>
      <point x="137" y="1621"/>
      <point x="81" y="1661"/>
      <point x="72" y="1762" type="curve" smooth="yes"/>
      <point x="70" y="1784" type="line"/>
      <point x="-109" y="1784" type="line"/>
      <point x="-109" y="1761" type="line" smooth="yes"/>
      <point x="-109" y="1557"/>
      <point x="15" y="1464"/>
      <point x="289" y="1464" type="curve" smooth="yes"/>
      <point x="457" y="1464" type="line" smooth="yes"/>
      <point x="596" y="1464"/>
      <point x="657" y="1421"/>
      <point x="657" y="1320" type="curve" smooth="yes"/>
      <point x="657" y="1277"/>
      <point x="645" y="1241"/>
      <point x="620" y="1211" type="curve"/>
      <point x="674" y="1207" type="line"/>
    </contour>
  </outline>
</glyph>
<glyph name="SignO.bn" format="2">
  <advance width="1879"/>
  <unicode hex="09CB"/>
  <anchor x="1437" y="1401" name="top"/>
  <anchor x="1128" y="1784" name="top2"/>
  <outline>
    <contour>
      <point x="960" y="1228" type="line"/>
      <point x="960" y="1066" type="line"/>
      <point x="1304" y="1066" type="line"/>
      <point x="1304" y="1228" type="line"/>
    </contour>
    <contour>
      <point x="778" y="1068" type="curve"/>
      <point x="678" y="1168" type="line"/>
      <point x="328" y="1077"/>
      <point x="148" y="832"/>
      <point x="148" y="523" type="curve" smooth="yes"/>
      <point x="148" y="515" type="line" smooth="yes"/>
      <point x="148" y="176"/>
      <point x="370" y="-18"/>
      <point x="690" y="-38" type="curve" smooth="yes"/>
      <point x="737" y="-41" type="line"/>
      <point x="764" y="123" type="line"/>
      <point x="718" y="127" type="line" smooth="yes"/>
      <point x="494" y="146"/>
      <point x="353" y="269"/>
      <point x="353" y="528" type="curve" smooth="yes"/>
      <point x="353" y="537" type="line" smooth="yes"/>
      <point x="353" y="781"/>
      <point x="499" y="1001"/>
    </contour>
    <contour>
      <point x="-75" y="1066" type="line"/>
      <point x="1054" y="1066" type="line"/>
      <point x="1042" y="1228" type="line"/>
      <point x="-88" y="1228" type="line"/>
    </contour>
    <contour>
      <point x="1462" y="0" type="line"/>
      <point x="1665" y="0" type="line"/>
      <point x="1665" y="1102" type="line"/>
      <point x="1462" y="1102" type="line"/>
    </contour>
    <contour>
      <point x="1201" y="1066" type="line"/>
      <point x="1653" y="1066" type="line"/>
      <point x="1653" y="1228" type="line"/>
      <point x="1188" y="1228" type="line"/>
    </contour>
    <contour>
      <point x="1590" y="1160" type="line"/>
      <point x="1590" y="812" type="line"/>
      <point x="1665" y="812" type="line"/>
      <point x="1665" y="1160" type="line"/>
    </contour>
    <contour>
      <point x="1590" y="1066" type="line"/>
      <point x="1938" y="1066" type="line"/>
      <point x="1925" y="1228" type="line"/>
      <point x="1590" y="1228" type="line"/>
    </contour>
  </outline>
</glyph>
<glyph name="SignAu.bn" format="2">
	<advance width="1853"/>
	<unicode hex="09CC"/>
	<anchor x="370" y="1531" name="top"/>
	<anchor x="630" y="1524" name="top2"/>
	<outline>
		<contour>
			<point x="934" y="1228" type="line"/>
			<point x="934" y="1066" type="line"/>
			<point x="1278" y="1066" type="line"/>
			<point x="1278" y="1228" type="line"/>
		</contour>
		<contour>
			<point x="763" y="1068" type="curve"/>
			<point x="663" y="1168" type="line"/>
			<point x="313" y="1077"/>
			<point x="133" y="832"/>
			<point x="133" y="523" type="curve" smooth="yes"/>
			<point x="133" y="515" type="line" smooth="yes"/>
			<point x="133" y="176"/>
			<point x="355" y="-18"/>
			<point x="675" y="-38" type="curve" smooth="yes"/>
			<point x="722" y="-41" type="line"/>
			<point x="749" y="123" type="line"/>
			<point x="703" y="127" type="line" smooth="yes"/>
			<point x="479" y="146"/>
			<point x="338" y="269"/>
			<point x="338" y="528" type="curve" smooth="yes"/>
			<point x="338" y="537" type="line" smooth="yes"/>
			<point x="338" y="781"/>
			<point x="484" y="1001"/>
		</contour>
		<contour>
			<point x="-90" y="1066" type="line"/>
			<point x="1039" y="1066" type="line"/>
			<point x="1027" y="1228" type="line"/>
			<point x="-103" y="1228" type="line"/>
		</contour>
		<contour>
			<point x="1436" y="0" type="line"/>
			<point x="1639" y="0" type="line"/>
			<point x="1639" y="1102" type="line"/>
			<point x="1436" y="1102" type="line"/>
		</contour>
		<contour>
			<point x="1175" y="1066" type="line"/>
			<point x="1627" y="1066" type="line"/>
			<point x="1627" y="1228" type="line"/>
			<point x="1162" y="1228" type="line"/>
		</contour>
		<contour>
			<point x="1564" y="1160" type="line"/>
			<point x="1564" y="812" type="line"/>
			<point x="1639" y="812" type="line"/>
			<point x="1639" y="1160" type="line"/>
		</contour>
		<contour>
			<point x="1564" y="1066" type="line"/>
			<point x="1912" y="1066" type="line"/>
			<point x="1899" y="1228" type="line"/>
			<point x="1564" y="1228" type="line"/>
		</contour>
		<contour>
			<point x="845" y="1284" type="line"/>
			<point x="848" y="1298"/>
			<point x="850" y="1316"/>
			<point x="850" y="1332" type="curve" smooth="yes"/>
			<point x="850" y="1519"/>
			<point x="714" y="1621"/>
			<point x="466" y="1621" type="curve" smooth="yes"/>
			<point x="280" y="1621" type="line" smooth="yes"/>
			<point x="137" y="1621"/>
			<point x="81" y="1661"/>
			<point x="72" y="1762" type="curve" smooth="yes"/>
			<point x="70" y="1784" type="line"/>
			<point x="-109" y="1784" type="line"/>
			<point x="-109" y="1761" type="line" smooth="yes"/>
			<point x="-109" y="1557"/>
			<point x="15" y="1464"/>
			<point x="289" y="1464" type="curve" smooth="yes"/>
			<point x="457" y="1464" type="line" smooth="yes"/>
			<point x="596" y="1464"/>
			<point x="657" y="1421"/>
			<point x="657" y="1320" type="curve" smooth="yes"/>
			<point x="657" y="1277"/>
			<point x="645" y="1241"/>
			<point x="620" y="1211" type="curve"/>
			<point x="674" y="1207" type="line"/>
		</contour>
	</outline>
</glyph>
<glyph name="Hasant.bn" format="2">
	<advance width="0"/>
	<unicode hex="09CD"/>
	<anchor x="-77" y="21" name="_bottom1"/>
	<outline>
		<contour>
			<point x="761" y="-448" type="line"/>
			<point x="-1" y="-118" type="line"/>
			<point x="-10" y="-312" type="line"/>
			<point x="752" y="-627" type="line"/>
		</contour>
	</outline>
</glyph>
<glyph name="KhandaTa.bn" format="2">
	<advance width="1486"/>
	<unicode hex="09CE"/>
	<anchor x="92" y="-10" name="mark0"/>
	<outline>
		<contour>
			<point x="1143" y="-2" type="curve"/>
			<point x="1346" y="-2" type="line"/>
			<point x="1353" y="35"/>
			<point x="1356" y="71"/>
			<point x="1356" y="106" type="curve" smooth="yes"/>
			<point x="1356" y="282"/>
			<point x="1232" y="416"/>
			<point x="875" y="500" type="curve" smooth="yes"/>
			<point x="655" y="552" type="line" smooth="yes"/>
			<point x="440" y="603"/>
			<point x="335" y="675"/>
			<point x="335" y="813" type="curve" smooth="yes"/>
			<point x="335" y="821" type="line" smooth="yes"/>
			<point x="335" y="995"/>
			<point x="467" y="1081"/>
			<point x="713" y="1081" type="curve" smooth="yes"/>
			<point x="938" y="1081"/>
			<point x="1053" y="1016"/>
			<point x="1053" y="889" type="curve" smooth="yes"/>
			<point x="1053" y="887" type="line" smooth="yes"/>
			<point x="1053" y="791"/>
			<point x="981" y="744"/>
			<point x="832" y="744" type="curve" smooth="yes"/>
			<point x="772" y="744" type="line"/>
			<point x="789" y="567" type="line"/>
			<point x="856" y="567" type="line" smooth="yes"/>
			<point x="1124" y="567"/>
			<point x="1261" y="677"/>
			<point x="1261" y="877" type="curve" smooth="yes"/>
			<point x="1261" y="879" type="line" smooth="yes"/>
			<point x="1261" y="1120"/>
			<point x="1064" y="1252"/>
			<point x="700" y="1252" type="curve" smooth="yes"/>
			<point x="334" y="1252"/>
			<point x="128" y="1104"/>
			<point x="128" y="829" type="curve" smooth="yes"/>
			<point x="128" y="818" type="line" smooth="yes"/>
			<point x="128" y="587"/>
			<point x="283" y="458"/>
			<point x="593" y="385" type="curve" smooth="yes"/>
			<point x="813" y="333" type="line" smooth="yes"/>
			<point x="1078" y="270"/>
			<point x="1153" y="188"/>
			<point x="1153" y="87" type="curve" smooth="yes"/>
			<point x="1153" y="65"/>
			<point x="1150" y="35"/>
		</contour>
	</outline>
</glyph>
<glyph name="SignAuMark.bn" format="2">
	<advance width="644"/>
	<unicode hex="09D7"/>
	<anchor x="-20" y="1531" name="top"/>
	<anchor x="240" y="1524" name="top2"/>
	<outline>
		<contour>
			<point x="227" y="0" type="line"/>
			<point x="430" y="0" type="line"/>
			<point x="430" y="1102" type="line"/>
			<point x="227" y="1102" type="line"/>
		</contour>
		<contour>
			<point x="-34" y="1066" type="line"/>
			<point x="418" y="1066" type="line"/>
			<point x="418" y="1228" type="line"/>
			<point x="-47" y="1228" type="line"/>
		</contour>
		<contour>
			<point x="355" y="1160" type="line"/>
			<point x="355" y="812" type="line"/>
			<point x="430" y="812" type="line"/>
			<point x="430" y="1160" type="line"/>
		</contour>
		<contour>
			<point x="355" y="1066" type="line"/>
			<point x="703" y="1066" type="line"/>
			<point x="690" y="1228" type="line"/>
			<point x="355" y="1228" type="line"/>
		</contour>
		<contour>
			<point x="455" y="1284" type="line"/>
			<point x="458" y="1298"/>
			<point x="460" y="1316"/>
			<point x="460" y="1332" type="curve" smooth="yes"/>
			<point x="460" y="1519"/>
			<point x="324" y="1621"/>
			<point x="76" y="1621" type="curve" smooth="yes"/>
			<point x="-110" y="1621" type="line" smooth="yes"/>
			<point x="-253" y="1621"/>
			<point x="-309" y="1661"/>
			<point x="-318" y="1762" type="curve" smooth="yes"/>
			<point x="-320" y="1784" type="line"/>
			<point x="-499" y="1784" type="line"/>
			<point x="-499" y="1761" type="line" smooth="yes"/>
			<point x="-499" y="1557"/>
			<point x="-375" y="1464"/>
			<point x="-101" y="1464" type="curve" smooth="yes"/>
			<point x="67" y="1464" type="line" smooth="yes"/>
			<point x="206" y="1464"/>
			<point x="267" y="1421"/>
			<point x="267" y="1320" type="curve" smooth="yes"/>
			<point x="267" y="1277"/>
			<point x="255" y="1241"/>
			<point x="230" y="1211" type="curve"/>
			<point x="284" y="1207" type="line"/>
		</contour>
	</outline>
</glyph>
<glyph name="Rra.bn" format="2">
  <advance width="1881"/>
  <unicode hex="09DC"/>
  <anchor x="1214" y="180" name="bottom1"/>
  <anchor x="722" y="1401" name="top"/>
  <anchor x="487" y="1784" name="top2"/>
  <outline>
    <contour>
      <point x="346" y="844" type="line"/>
      <point x="143" y="844" type="line"/>
      <point x="158" y="693" type="line" smooth="yes"/>
      <point x="203" y="238"/>
      <point x="476" y="10"/>
      <point x="1002" y="10" type="curve" smooth="yes"/>
      <point x="1483" y="10"/>
      <point x="1731" y="202"/>
      <point x="1731" y="551" type="curve" smooth="yes"/>
      <point x="1731" y="651"/>
      <point x="1715" y="728"/>
      <point x="1686" y="816" type="curve"/>
      <point x="1505" y="844" type="line"/>
      <point x="1397" y="779" type="line" smooth="yes"/>
      <point x="1283" y="710"/>
      <point x="1207" y="679"/>
      <point x="1110" y="679" type="curve" smooth="yes"/>
      <point x="1003" y="679"/>
      <point x="949" y="741"/>
      <point x="949" y="861" type="curve" smooth="yes"/>
      <point x="949" y="1177" type="line"/>
      <point x="746" y="1178" type="line"/>
      <point x="746" y="864" type="line" smooth="yes"/>
      <point x="746" y="625"/>
      <point x="860" y="510"/>
      <point x="1109" y="510" type="curve" smooth="yes"/>
      <point x="1242" y="510"/>
      <point x="1359" y="554"/>
      <point x="1488" y="637" type="curve" smooth="yes"/>
      <point x="1643" y="737" type="line"/>
      <point x="1504" y="734" type="line"/>
      <point x="1519" y="675"/>
      <point x="1526" y="612"/>
      <point x="1526" y="552" type="curve" smooth="yes"/>
      <point x="1526" y="308"/>
      <point x="1338" y="188"/>
      <point x="993" y="188" type="curve" smooth="yes"/>
      <point x="599" y="188"/>
      <point x="399" y="354"/>
      <point x="361" y="704" type="curve" smooth="yes"/>
    </contour>
    <contour>
      <point x="-58" y="1066" type="line"/>
      <point x="1933" y="1066" type="line"/>
      <point x="1920" y="1228" type="line"/>
      <point x="-71" y="1228" type="line"/>
    </contour>
    <contour>
      <point x="953" y="-430" type="curve" smooth="yes"/>
      <point x="1046" y="-430"/>
      <point x="1095" y="-380"/>
      <point x="1095" y="-306" type="curve" smooth="yes"/>
      <point x="1095" y="-301" type="line" smooth="yes"/>
      <point x="1095" y="-226"/>
      <point x="1046" y="-176"/>
      <point x="953" y="-176" type="curve" smooth="yes"/>
      <point x="860" y="-176"/>
      <point x="810" y="-225"/>
      <point x="810" y="-301" type="curve" smooth="yes"/>
      <point x="810" y="-306" type="line" smooth="yes"/>
      <point x="810" y="-380"/>
      <point x="860" y="-430"/>
    </contour>
  </outline>
</glyph>
<glyph name="VowelLruu.bn" format="2">
	<advance width="1838"/>
	<unicode hex="09E1"/>
	<anchor x="694" y="1576" name="top2"/>
	<outline>
		<contour>
			<point x="1195" y="154" type="curve"/>
			<point x="1131" y="13" type="line"/>
			<point x="1427" y="-17"/>
			<point x="1516" y="-122"/>
			<point x="1516" y="-265" type="curve" smooth="yes"/>
			<point x="1516" y="-276" type="line" smooth="yes"/>
			<point x="1516" y="-407"/>
			<point x="1417" y="-490"/>
			<point x="1229" y="-490" type="curve" smooth="yes"/>
			<point x="1081" y="-490" type="line"/>
			<point x="1215" y="-593" type="line"/>
			<point x="1215" y="-504" type="line" smooth="yes"/>
			<point x="1215" y="-257"/>
			<point x="1064" y="-127"/>
			<point x="809" y="-127" type="curve" smooth="yes"/>
			<point x="530" y="-128"/>
			<point x="402" y="-268"/>
			<point x="402" y="-506" type="curve" smooth="yes"/>
			<point x="402" y="-542" type="line" smooth="yes"/>
			<point x="402" y="-575"/>
			<point x="402" y="-607"/>
			<point x="402" y="-640" type="curve"/>
			<point x="582" y="-640" type="line"/>
			<point x="582" y="-603"/>
			<point x="582" y="-565"/>
			<point x="582" y="-527" type="curve" smooth="yes"/>
			<point x="582" y="-502" type="line" smooth="yes"/>
			<point x="582" y="-360"/>
			<point x="667" y="-286"/>
			<point x="815" y="-286" type="curve" smooth="yes"/>
			<point x="953" y="-286"/>
			<point x="1048" y="-358"/>
			<point x="1048" y="-506" type="curve" smooth="yes"/>
			<point x="1048" y="-640" type="line"/>
			<point x="1226" y="-640" type="line" smooth="yes"/>
			<point x="1527" y="-640"/>
			<point x="1714" y="-508"/>
			<point x="1714" y="-275" type="curve" smooth="yes"/>
			<point x="1714" y="-263" type="line" smooth="yes"/>
			<point x="1714" y="-37"/>
			<point x="1562" y="92"/>
		</contour>
		<contour>
			<point x="156" y="0" type="curve"/>
			<point x="357" y="0" type="line"/>
			<point x="357" y="54"/>
			<point x="357" y="108"/>
			<point x="357" y="161" type="curve" smooth="yes"/>
			<point x="357" y="191" type="line" smooth="yes"/>
			<point x="357" y="362"/>
			<point x="455" y="457"/>
			<point x="630" y="457" type="curve" smooth="yes"/>
			<point x="799" y="457"/>
			<point x="894" y="361"/>
			<point x="894" y="189" type="curve" smooth="yes"/>
			<point x="894" y="0" type="line"/>
			<point x="1127" y="0" type="line" smooth="yes"/>
			<point x="1471" y="0"/>
			<point x="1692" y="160"/>
			<point x="1692" y="455" type="curve" smooth="yes"/>
			<point x="1692" y="463" type="line" smooth="yes"/>
			<point x="1692" y="788"/>
			<point x="1460" y="971"/>
			<point x="998" y="1016" type="curve" smooth="yes"/>
			<point x="698" y="1045" type="line" smooth="yes"/>
			<point x="492" y="1066"/>
			<point x="418" y="1117"/>
			<point x="413" y="1227" type="curve" smooth="yes"/>
			<point x="412" y="1252" type="line"/>
			<point x="212" y="1252" type="line"/>
			<point x="212" y="1222" type="line" smooth="yes"/>
			<point x="212" y="1016"/>
			<point x="362" y="910"/>
			<point x="660" y="878" type="curve" smooth="yes"/>
			<point x="959" y="847" type="line" smooth="yes"/>
			<point x="1311" y="811"/>
			<point x="1486" y="693"/>
			<point x="1486" y="469" type="curve" smooth="yes"/>
			<point x="1486" y="461" type="line" smooth="yes"/>
			<point x="1486" y="265"/>
			<point x="1349" y="164"/>
			<point x="1129" y="164" type="curve" smooth="yes"/>
			<point x="957" y="164" type="line"/>
			<point x="1084" y="49" type="line"/>
			<point x="1084" y="195" type="line" smooth="yes"/>
			<point x="1084" y="475"/>
			<point x="917" y="632"/>
			<point x="617" y="632" type="curve" smooth="yes"/>
			<point x="321" y="631"/>
			<point x="156" y="476"/>
			<point x="156" y="200" type="curve" smooth="yes"/>
			<point x="156" y="159" type="line" smooth="yes"/>
			<point x="156" y="108"/>
			<point x="156" y="55"/>
		</contour>
	</outline>
</glyph>
<glyph name="SignLru.bn" format="2">
  <advance width="1612"/>
  <unicode hex="09E2"/>
  <outline>
    <contour>
      <point x="588" y="-720" type="curve"/>
      <point x="735" y="-720" type="line"/>
      <point x="735" y="-687"/>
      <point x="735" y="-653"/>
      <point x="735" y="-621" type="curve" smooth="yes"/>
      <point x="735" y="-589" type="line" smooth="yes"/>
      <point x="735" y="-496"/>
      <point x="788" y="-443"/>
      <point x="882" y="-443" type="curve" smooth="yes"/>
      <point x="969" y="-443"/>
      <point x="1029" y="-492"/>
      <point x="1029" y="-590" type="curve" smooth="yes"/>
      <point x="1029" y="-720" type="line"/>
      <point x="1167" y="-720" type="line" smooth="yes"/>
      <point x="1376" y="-720"/>
      <point x="1511" y="-621"/>
      <point x="1511" y="-444" type="curve" smooth="yes"/>
      <point x="1511" y="-435" type="line" smooth="yes"/>
      <point x="1511" y="-239"/>
      <point x="1372" y="-128"/>
      <point x="1093" y="-97" type="curve" smooth="yes"/>
      <point x="928" y="-79" type="line" smooth="yes"/>
      <point x="804" y="-66"/>
      <point x="766" y="-37"/>
      <point x="763" y="24" type="curve" smooth="yes"/>
      <point x="762" y="39" type="line"/>
      <point x="617" y="39" type="line"/>
      <point x="617" y="20" type="line" smooth="yes"/>
      <point x="617" y="-106"/>
      <point x="710" y="-170"/>
      <point x="898" y="-194" type="curve" smooth="yes"/>
      <point x="1062" y="-212" type="line" smooth="yes"/>
      <point x="1261" y="-235"/>
      <point x="1359" y="-303"/>
      <point x="1359" y="-432" type="curve" smooth="yes"/>
      <point x="1359" y="-440" type="line" smooth="yes"/>
      <point x="1359" y="-548"/>
      <point x="1286" y="-604"/>
      <point x="1170" y="-604" type="curve" smooth="yes"/>
      <point x="1063" y="-604" type="line"/>
      <point x="1154" y="-684" type="line"/>
      <point x="1154" y="-586" type="line" smooth="yes"/>
      <point x="1154" y="-417"/>
      <point x="1049" y="-328"/>
      <point x="875" y="-329" type="curve" smooth="yes"/>
      <point x="673" y="-329"/>
      <point x="588" y="-431"/>
      <point x="588" y="-593" type="curve" smooth="yes"/>
      <point x="588" y="-622" type="line" smooth="yes"/>
      <point x="588" y="-654"/>
      <point x="588" y="-687"/>
    </contour>
  </outline>
</glyph>
<glyph name="SignLruu.bn" format="2">
  <advance width="1622"/>
  <unicode hex="09E3"/>
  <outline>
    <contour>
      <point x="1221" y="-609" type="curve"/>
      <point x="1178" y="-711" type="line"/>
      <point x="1337" y="-728"/>
      <point x="1394" y="-784"/>
      <point x="1394" y="-867" type="curve" smooth="yes"/>
      <point x="1394" y="-875" type="line" smooth="yes"/>
      <point x="1394" y="-950"/>
      <point x="1333" y="-993"/>
      <point x="1239" y="-993" type="curve" smooth="yes"/>
      <point x="1147" y="-993" type="line"/>
      <point x="1233" y="-1068" type="line"/>
      <point x="1233" y="-1012" type="line" smooth="yes"/>
      <point x="1233" y="-864"/>
      <point x="1144" y="-786"/>
      <point x="994" y="-786" type="curve" smooth="yes"/>
      <point x="825" y="-786"/>
      <point x="749" y="-873"/>
      <point x="749" y="-1019" type="curve" smooth="yes"/>
      <point x="749" y="-1043" type="line" smooth="yes"/>
      <point x="749" y="-1063"/>
      <point x="749" y="-1083"/>
      <point x="749" y="-1102" type="curve"/>
      <point x="880" y="-1102" type="line"/>
      <point x="880" y="-1080"/>
      <point x="880" y="-1055"/>
      <point x="880" y="-1031" type="curve" smooth="yes"/>
      <point x="880" y="-1016" type="line" smooth="yes"/>
      <point x="880" y="-941"/>
      <point x="925" y="-901"/>
      <point x="1001" y="-901" type="curve" smooth="yes"/>
      <point x="1074" y="-901"/>
      <point x="1122" y="-940"/>
      <point x="1122" y="-1017" type="curve" smooth="yes"/>
      <point x="1122" y="-1102" type="line"/>
      <point x="1236" y="-1102" type="line" smooth="yes"/>
      <point x="1419" y="-1102"/>
      <point x="1538" y="-1019"/>
      <point x="1538" y="-878" type="curve" smooth="yes"/>
      <point x="1538" y="-869" type="line" smooth="yes"/>
      <point x="1538" y="-726"/>
      <point x="1441" y="-649"/>
    </contour>
    <contour>
      <point x="598" y="-720" type="curve"/>
      <point x="745" y="-720" type="line"/>
      <point x="745" y="-687"/>
      <point x="745" y="-653"/>
      <point x="745" y="-621" type="curve" smooth="yes"/>
      <point x="745" y="-589" type="line" smooth="yes"/>
      <point x="745" y="-496"/>
      <point x="798" y="-443"/>
      <point x="892" y="-443" type="curve" smooth="yes"/>
      <point x="979" y="-443"/>
      <point x="1039" y="-492"/>
      <point x="1039" y="-590" type="curve" smooth="yes"/>
      <point x="1039" y="-720" type="line"/>
      <point x="1177" y="-720" type="line" smooth="yes"/>
      <point x="1386" y="-720"/>
      <point x="1521" y="-621"/>
      <point x="1521" y="-444" type="curve" smooth="yes"/>
      <point x="1521" y="-435" type="line" smooth="yes"/>
      <point x="1521" y="-239"/>
      <point x="1382" y="-128"/>
      <point x="1103" y="-97" type="curve" smooth="yes"/>
      <point x="938" y="-79" type="line" smooth="yes"/>
      <point x="814" y="-66"/>
      <point x="776" y="-37"/>
      <point x="773" y="24" type="curve" smooth="yes"/>
      <point x="772" y="39" type="line"/>
      <point x="627" y="39" type="line"/>
      <point x="627" y="20" type="line" smooth="yes"/>
      <point x="627" y="-106"/>
      <point x="720" y="-170"/>
      <point x="908" y="-194" type="curve" smooth="yes"/>
      <point x="1072" y="-212" type="line" smooth="yes"/>
      <point x="1271" y="-235"/>
      <point x="1369" y="-303"/>
      <point x="1369" y="-432" type="curve" smooth="yes"/>
      <point x="1369" y="-440" type="line" smooth="yes"/>
      <point x="1369" y="-548"/>
      <point x="1296" y="-604"/>
      <point x="1180" y="-604" type="curve" smooth="yes"/>
      <point x="1073" y="-604" type="line"/>
      <point x="1164" y="-684" type="line"/>
      <point x="1164" y="-586" type="line" smooth="yes"/>
      <point x="1164" y="-417"/>
      <point x="1059" y="-328"/>
      <point x="885" y="-329" type="curve" smooth="yes"/>
      <point x="683" y="-329"/>
      <point x="598" y="-431"/>
      <point x="598" y="-593" type="curve" smooth="yes"/>
      <point x="598" y="-622" type="line" smooth="yes"/>
      <point x="598" y="-654"/>
      <point x="598" y="-687"/>
    </contour>
  </outline>
</glyph>
<glyph name="Zero.bn" format="2">
  <advance width="1599"/>
  <unicode hex="09E6"/>
  <outline>
    <contour>
      <point x="801" y="10" type="curve" smooth="yes"/>
      <point x="1221" y="10"/>
      <point x="1456" y="234"/>
      <point x="1456" y="628" type="curve" smooth="yes"/>
      <point x="1456" y="638" type="line" smooth="yes"/>
      <point x="1456" y="1034"/>
      <point x="1218" y="1252"/>
      <point x="798" y="1252" type="curve" smooth="yes"/>
      <point x="379" y="1252"/>
      <point x="143" y="1036"/>
      <point x="143" y="638" type="curve" smooth="yes"/>
      <point x="143" y="628" type="line" smooth="yes"/>
      <point x="143" y="234"/>
      <point x="381" y="10"/>
    </contour>
    <contour>
      <point x="799" y="177" type="curve" smooth="yes"/>
      <point x="511" y="177"/>
      <point x="348" y="331"/>
      <point x="348" y="631" type="curve" smooth="yes"/>
      <point x="348" y="636" type="line" smooth="yes"/>
      <point x="348" y="936"/>
      <point x="511" y="1085"/>
      <point x="799" y="1085" type="curve" smooth="yes"/>
      <point x="1092" y="1085"/>
      <point x="1252" y="938"/>
      <point x="1252" y="636" type="curve" smooth="yes"/>
      <point x="1252" y="631" type="line" smooth="yes"/>
      <point x="1252" y="331"/>
      <point x="1092" y="177"/>
    </contour>
  </outline>
</glyph>
<glyph name="One.bn" format="2">
	<advance width="1533"/>
	<unicode hex="09E7"/>
	<outline>
		<contour>
			<point x="1394" y="432" type="curve" smooth="yes"/>
			<point x="1394" y="441" type="line"/>
			<point x="1394" y="691"/>
			<point x="1223" y="826"/>
			<point x="899" y="935" type="curve" smooth="yes"/>
			<point x="529" y="1056" type="line" smooth="yes"/>
			<point x="408" y="1096"/>
			<point x="364" y="1145"/>
			<point x="360" y="1227" type="curve" smooth="yes"/>
			<point x="358" y="1252" type="line"/>
			<point x="158" y="1252" type="line"/>
			<point x="158" y="1223" type="line" smooth="yes"/>
			<point x="158" y="1077"/>
			<point x="228" y="981"/>
			<point x="468" y="897" type="curve" smooth="yes"/>
			<point x="845" y="773" type="line" smooth="yes"/>
			<point x="1067" y="701"/>
			<point x="1188" y="613"/>
			<point x="1188" y="454" type="curve" smooth="yes"/>
			<point x="1188" y="444" type="line" smooth="yes"/>
			<point x="1188" y="271"/>
			<point x="1038" y="180"/>
			<point x="759" y="180" type="curve" smooth="yes"/>
			<point x="474" y="180"/>
			<point x="322" y="267"/>
			<point x="322" y="428" type="curve" smooth="yes"/>
			<point x="322" y="462"/>
			<point x="328" y="507"/>
			<point x="338" y="549" type="curve"/>
			<point x="132" y="549" type="line"/>
			<point x="120" y="506"/>
			<point x="114" y="463"/>
			<point x="114" y="413" type="curve" smooth="yes"/>
			<point x="114" y="147"/>
			<point x="341" y="11"/>
			<point x="769" y="11" type="curve" smooth="yes"/>
			<point x="1179" y="11"/>
			<point x="1394" y="151"/>
		</contour>
	</outline>
</glyph>
<glyph name="Two.bn" format="2">
	<advance width="1494"/>
	<unicode hex="09E8"/>
	<outline>
		<contour>
			<point x="1459" y="-105" type="line"/>
			<point x="1471" y="65" type="line"/>
			<point x="961" y="195" type="line"/>
			<point x="594" y="275" type="line"/>
			<point x="826" y="190" type="line"/>
			<point x="846" y="306" type="line"/>
			<point x="493" y="283" type="line"/>
			<point x="595" y="250"/>
			<point x="720" y="232"/>
			<point x="863" y="232" type="curve" smooth="yes"/>
			<point x="1158" y="232"/>
			<point x="1303" y="344"/>
			<point x="1303" y="569" type="curve" smooth="yes"/>
			<point x="1303" y="576" type="line" smooth="yes"/>
			<point x="1303" y="815"/>
			<point x="1099" y="926"/>
			<point x="817" y="982" type="curve" smooth="yes"/>
			<point x="461" y="1053" type="line" smooth="yes"/>
			<point x="334" y="1078"/>
			<point x="274" y="1134"/>
			<point x="270" y="1227" type="curve" smooth="yes"/>
			<point x="269" y="1252" type="line"/>
			<point x="69" y="1252" type="line"/>
			<point x="69" y="1222" type="line" smooth="yes"/>
			<point x="69" y="1022"/>
			<point x="212" y="934"/>
			<point x="398" y="897" type="curve" smooth="yes"/>
			<point x="771" y="822" type="line" smooth="yes"/>
			<point x="996" y="777"/>
			<point x="1093" y="705"/>
			<point x="1093" y="577" type="curve" smooth="yes"/>
			<point x="1093" y="569" type="line" smooth="yes"/>
			<point x="1093" y="420"/>
			<point x="990" y="355"/>
			<point x="756" y="355" type="curve" smooth="yes"/>
			<point x="582" y="355"/>
			<point x="436" y="378"/>
			<point x="322" y="406" type="curve" smooth="yes"/>
			<point x="130" y="454" type="line"/>
			<point x="121" y="251" type="line"/>
		</contour>
	</outline>
</glyph>
<glyph name="Three.bn" format="2">
  <advance width="1966"/>
  <unicode hex="09E9"/>
  <outline>
    <contour>
      <point x="1034" y="10" type="curve" smooth="yes"/>
      <point x="1536" y="10"/>
      <point x="1808" y="249"/>
      <point x="1808" y="668" type="curve" smooth="yes"/>
      <point x="1808" y="681" type="line" smooth="yes"/>
      <point x="1808" y="1035"/>
      <point x="1618" y="1222"/>
      <point x="1281" y="1222" type="curve" smooth="yes"/>
      <point x="961" y="1222"/>
      <point x="791" y="1083"/>
      <point x="791" y="785" type="curve" smooth="yes"/>
      <point x="791" y="750"/>
      <point x="796" y="709"/>
      <point x="806" y="673" type="curve"/>
      <point x="1020" y="673" type="line"/>
      <point x="1010" y="707"/>
      <point x="1005" y="745"/>
      <point x="1005" y="776" type="curve" smooth="yes"/>
      <point x="1005" y="966"/>
      <point x="1103" y="1043"/>
      <point x="1290" y="1043" type="curve" smooth="yes"/>
      <point x="1488" y="1043"/>
      <point x="1599" y="921"/>
      <point x="1599" y="685" type="curve" smooth="yes"/>
      <point x="1599" y="671" type="line" smooth="yes"/>
      <point x="1599" y="366"/>
      <point x="1399" y="191"/>
      <point x="1029" y="191" type="curve" smooth="yes"/>
      <point x="606" y="191"/>
      <point x="380" y="402"/>
      <point x="348" y="806" type="curve" smooth="yes"/>
      <point x="331" y="1028" type="line"/>
      <point x="128" y="1028" type="line"/>
      <point x="145" y="795" type="line" smooth="yes"/>
      <point x="186" y="279"/>
      <point x="480" y="10"/>
    </contour>
  </outline>
</glyph>
<glyph name="Four.bn" format="2">
  <advance width="1590"/>
  <unicode hex="09EA"/>
  <outline>
    <contour>
      <point x="795" y="725" type="curve" smooth="yes"/>
      <point x="1105" y="725"/>
      <point x="1232" y="783"/>
      <point x="1232" y="900" type="curve" smooth="yes"/>
      <point x="1232" y="905" type="line" smooth="yes"/>
      <point x="1232" y="1038"/>
      <point x="1085" y="1103"/>
      <point x="795" y="1103" type="curve" smooth="yes"/>
      <point x="499" y="1103"/>
      <point x="359" y="1038"/>
      <point x="359" y="905" type="curve" smooth="yes"/>
      <point x="359" y="900" type="line" smooth="yes"/>
      <point x="359" y="783"/>
      <point x="481" y="725"/>
    </contour>
    <contour>
      <point x="683" y="607" type="line"/>
      <point x="453" y="607" type="line"/>
      <point x="453" y="691" type="line"/>
      <point x="683" y="691" type="line"/>
      <point x="629" y="642" type="line"/>
      <point x="316" y="642"/>
      <point x="142" y="736"/>
      <point x="142" y="919" type="curve" smooth="yes"/>
      <point x="142" y="925" type="line" smooth="yes"/>
      <point x="142" y="1148"/>
      <point x="360" y="1260"/>
      <point x="787" y="1260" type="curve" smooth="yes"/>
      <point x="1227" y="1260"/>
      <point x="1449" y="1147"/>
      <point x="1449" y="924" type="curve" smooth="yes"/>
      <point x="1449" y="919" type="line" smooth="yes"/>
      <point x="1449" y="736"/>
      <point x="1278" y="642"/>
      <point x="968" y="642" type="curve"/>
      <point x="917" y="691" type="line"/>
      <point x="1143" y="691" type="line"/>
      <point x="1143" y="607" type="line"/>
      <point x="917" y="607" type="line"/>
      <point x="968" y="660" type="line"/>
      <point x="1289" y="660"/>
      <point x="1467" y="560"/>
      <point x="1467" y="362" type="curve" smooth="yes"/>
      <point x="1467" y="356" type="line" smooth="yes"/>
      <point x="1467" y="115"/>
      <point x="1239" y="-4"/>
      <point x="793" y="-4" type="curve" smooth="yes"/>
      <point x="350" y="-4"/>
      <point x="123" y="113"/>
      <point x="123" y="351" type="curve" smooth="yes"/>
      <point x="123" y="356" type="line" smooth="yes"/>
      <point x="123" y="558"/>
      <point x="296" y="660"/>
      <point x="629" y="660" type="curve"/>
    </contour>
    <contour>
      <point x="795" y="154" type="curve" smooth="yes"/>
      <point x="1099" y="154"/>
      <point x="1250" y="228"/>
      <point x="1250" y="373" type="curve" smooth="yes"/>
      <point x="1250" y="379" type="line" smooth="yes"/>
      <point x="1250" y="517"/>
      <point x="1117" y="579"/>
      <point x="795" y="579" type="curve" smooth="yes"/>
      <point x="467" y="579"/>
      <point x="340" y="517"/>
      <point x="340" y="379" type="curve" smooth="yes"/>
      <point x="340" y="373" type="line" smooth="yes"/>
      <point x="340" y="228"/>
      <point x="487" y="154"/>
    </contour>
  </outline>
</glyph>
